M48
; DRILL file KiCad 10.0.3 date 2026-09-01T20:46:57
; FORMAT={-:-/ absolute / metric / decimal}
; #@! TF.CreationDate,2026-09-01T20:46:57+03:00
; #@! TF.GenerationSoftware,Kicad,Pcbnew,10.0.3
; #@! TF.FileFunction,Plated,1,2,PTH
FMAT,2
METRIC
; #@! TA.AperFunction,Plated,PTH,ViaDrill
T1C0.300
; #@! TA.AperFunction,Plated,PTH,ComponentDrill
T2C0.750
; #@! TA.AperFunction,Plated,PTH,ComponentDrill
T3C0.800
; #@! TA.AperFunction,Plated,PTH,ComponentDrill
T4C0.900
; #@! TA.AperFunction,Plated,PTH,ComponentDrill
T5C1.000
; #@! TA.AperFunction,Plated,PTH,ComponentDrill
T6C1.100
; #@! TA.AperFunction,Plated,PTH,ComponentDrill
T7C1.300
%
G90
G05
T1
X11.0Y-24.5
X14.0Y-34.5
X16.0Y-27.5
X17.5Y-25.0
X19.0Y-53.0
X19.0Y-59.5
X19.5Y-23.5
X20.5Y-30.5
X26.5Y-23.5
X35.0Y-33.0
X35.0Y-58.0
X42.5Y-24.5
X47.5Y-24.5
X55.0Y-24.5
X56.5Y-25.0
X59.0Y-25.5
X60.0Y-43.5
X61.0Y-46.5
X61.0Y-54.0
X63.0Y-23.0
X64.0Y-45.5
X65.0Y-23.0
X65.0Y-57.5
X67.0Y-27.5
X67.0Y-50.0
X68.0Y-47.5
X69.0Y-27.5
X70.5Y-28.5
X71.5Y-43.5
X72.0Y-27.5
X77.5Y-21.0
X78.5Y-47.5
X93.5Y-54.0
X93.5Y-57.0
X96.5Y-57.0
X98.5Y-54.0
X102.0Y-57.5
X116.0Y-64.5
X120.0Y-57.0
X121.0Y-54.0
T2
X102.0Y-54.0
X103.27Y-54.0
X104.54Y-54.0
T3
X45.0Y-29.76
X45.0Y-45.0
X47.54Y-29.76
X47.54Y-45.0
X50.08Y-29.76
X50.08Y-45.0
X52.62Y-29.76
X52.62Y-45.0
X55.16Y-29.76
X55.16Y-45.0
X57.7Y-29.76
X57.7Y-45.0
X60.24Y-29.76
X60.24Y-45.0
X62.78Y-29.76
X62.78Y-45.0
X65.32Y-29.76
X65.32Y-45.0
X67.86Y-29.76
X67.86Y-45.0
X70.4Y-29.76
X70.4Y-45.0
X72.94Y-29.76
X72.94Y-45.0
X75.48Y-29.76
X75.48Y-45.0
X78.02Y-29.76
X78.02Y-45.0
X80.56Y-29.76
X80.56Y-45.0
X83.1Y-29.76
X83.1Y-45.0
X85.64Y-29.76
X85.64Y-45.0
X88.18Y-29.76
X88.18Y-45.0
X90.72Y-29.76
X90.72Y-45.0
X93.26Y-29.76
X93.26Y-45.0
X98.0Y-16.0
X98.0Y-18.54
X98.0Y-21.08
T4
X116.0Y-62.0
X118.54Y-62.0
T5
X31.0Y-20.0
X31.0Y-23.0
X35.0Y-7.0
X37.54Y-7.0
X40.08Y-7.0
X42.62Y-7.0
X45.16Y-7.0
X47.7Y-7.0
X50.24Y-7.0
X52.78Y-7.0
X55.32Y-7.0
X57.86Y-7.0
X60.4Y-7.0
X62.94Y-7.0
X65.48Y-7.0
X68.02Y-7.0
X70.56Y-7.0
X73.1Y-7.0
X113.95Y-32.05
X113.95Y-44.05
X128.0Y-56.0
X128.0Y-58.54
X128.0Y-61.08
X130.54Y-56.0
X130.54Y-58.54
X130.54Y-61.08
T6
X109.0Y-49.0
X116.62Y-49.0
T7
X6.0Y-20.0
X6.0Y-25.0
X6.0Y-53.0
X6.0Y-58.0
X112.0Y-38.0
X126.15Y-44.05
X126.2Y-32.0
X142.0Y-28.0
X142.0Y-33.0
X142.0Y-38.0
M30
