%TF.GenerationSoftware,KiCad,Pcbnew,10.0.3*%
%TF.CreationDate,2026-09-01T20:46:57+03:00*%
%TF.ProjectId,thermocouple_meter,74686572-6d6f-4636-9f75-706c655f6d65,rev?*%
%TF.SameCoordinates,Original*%
%TF.FileFunction,Legend,Top*%
%TF.FilePolarity,Positive*%
%FSLAX46Y46*%
G04 Gerber Fmt 4.6, Leading zero omitted, Abs format (unit mm)*
G04 Created by KiCad (PCBNEW 10.0.3) date 2026-09-01 20:46:57*
%MOMM*%
%LPD*%
G01*
G04 APERTURE LIST*
G04 Aperture macros list*
%AMRoundRect*
0 Rectangle with rounded corners*
0 $1 Rounding radius*
0 $2 $3 $4 $5 $6 $7 $8 $9 X,Y pos of 4 corners*
0 Add a 4 corners polygon primitive as box body*
4,1,4,$2,$3,$4,$5,$6,$7,$8,$9,$2,$3,0*
0 Add four circle primitives for the rounded corners*
1,1,$1+$1,$2,$3*
1,1,$1+$1,$4,$5*
1,1,$1+$1,$6,$7*
1,1,$1+$1,$8,$9*
0 Add four rect primitives between the rounded corners*
20,1,$1+$1,$2,$3,$4,$5,0*
20,1,$1+$1,$4,$5,$6,$7,0*
20,1,$1+$1,$6,$7,$8,$9,0*
20,1,$1+$1,$8,$9,$2,$3,0*%
G04 Aperture macros list end*
%ADD10C,0.180000*%
%ADD11C,0.150000*%
%ADD12C,0.120000*%
%ADD13RoundRect,0.250000X-0.325000X-1.100000X0.325000X-1.100000X0.325000X1.100000X-0.325000X1.100000X0*%
%ADD14C,3.200000*%
%ADD15RoundRect,0.250000X1.050000X-1.050000X1.050000X1.050000X-1.050000X1.050000X-1.050000X-1.050000X0*%
%ADD16C,2.600000*%
%ADD17RoundRect,0.250000X-0.262500X-0.450000X0.262500X-0.450000X0.262500X0.450000X-0.262500X0.450000X0*%
%ADD18C,2.000000*%
%ADD19C,3.000000*%
%ADD20C,2.500000*%
%ADD21R,1.800000X1.800000*%
%ADD22C,1.800000*%
%ADD23R,1.700000X1.700000*%
%ADD24C,1.700000*%
%ADD25RoundRect,0.249999X-0.850001X-0.850001X0.850001X-0.850001X0.850001X0.850001X-0.850001X0.850001X0*%
%ADD26C,2.200000*%
%ADD27RoundRect,0.250000X0.550000X-0.550000X0.550000X0.550000X-0.550000X0.550000X-0.550000X-0.550000X0*%
%ADD28C,1.600000*%
%ADD29RoundRect,0.250000X-0.250000X-0.475000X0.250000X-0.475000X0.250000X0.475000X-0.250000X0.475000X0*%
%ADD30RoundRect,0.375000X-0.625000X-0.375000X0.625000X-0.375000X0.625000X0.375000X-0.625000X0.375000X0*%
%ADD31RoundRect,0.500000X-0.500000X-1.400000X0.500000X-1.400000X0.500000X1.400000X-0.500000X1.400000X0*%
%ADD32R,1.050000X1.500000*%
%ADD33O,1.050000X1.500000*%
%ADD34RoundRect,0.100000X-0.637500X-0.100000X0.637500X-0.100000X0.637500X0.100000X-0.637500X0.100000X0*%
%ADD35C,1.440000*%
G04 APERTURE END LIST*
D10*
X117780953Y-7360735D02*
X117400001Y-7360735D01*
X117400001Y-7360735D02*
X117400001Y-6560735D01*
X118200001Y-6560735D02*
X118352382Y-6560735D01*
X118352382Y-6560735D02*
X118428572Y-6598830D01*
X118428572Y-6598830D02*
X118504763Y-6675020D01*
X118504763Y-6675020D02*
X118542858Y-6827401D01*
X118542858Y-6827401D02*
X118542858Y-7094068D01*
X118542858Y-7094068D02*
X118504763Y-7246449D01*
X118504763Y-7246449D02*
X118428572Y-7322640D01*
X118428572Y-7322640D02*
X118352382Y-7360735D01*
X118352382Y-7360735D02*
X118200001Y-7360735D01*
X118200001Y-7360735D02*
X118123810Y-7322640D01*
X118123810Y-7322640D02*
X118047620Y-7246449D01*
X118047620Y-7246449D02*
X118009524Y-7094068D01*
X118009524Y-7094068D02*
X118009524Y-6827401D01*
X118009524Y-6827401D02*
X118047620Y-6675020D01*
X118047620Y-6675020D02*
X118123810Y-6598830D01*
X118123810Y-6598830D02*
X118200001Y-6560735D01*
X118809524Y-6560735D02*
X119000000Y-7360735D01*
X119000000Y-7360735D02*
X119152381Y-6789306D01*
X119152381Y-6789306D02*
X119304762Y-7360735D01*
X119304762Y-7360735D02*
X119495239Y-6560735D01*
X119800001Y-7055973D02*
X120409525Y-7055973D01*
X120676191Y-6560735D02*
X120942858Y-7360735D01*
X120942858Y-7360735D02*
X121209524Y-6560735D01*
X121628572Y-6560735D02*
X121780953Y-6560735D01*
X121780953Y-6560735D02*
X121857143Y-6598830D01*
X121857143Y-6598830D02*
X121933334Y-6675020D01*
X121933334Y-6675020D02*
X121971429Y-6827401D01*
X121971429Y-6827401D02*
X121971429Y-7094068D01*
X121971429Y-7094068D02*
X121933334Y-7246449D01*
X121933334Y-7246449D02*
X121857143Y-7322640D01*
X121857143Y-7322640D02*
X121780953Y-7360735D01*
X121780953Y-7360735D02*
X121628572Y-7360735D01*
X121628572Y-7360735D02*
X121552381Y-7322640D01*
X121552381Y-7322640D02*
X121476191Y-7246449D01*
X121476191Y-7246449D02*
X121438095Y-7094068D01*
X121438095Y-7094068D02*
X121438095Y-6827401D01*
X121438095Y-6827401D02*
X121476191Y-6675020D01*
X121476191Y-6675020D02*
X121552381Y-6598830D01*
X121552381Y-6598830D02*
X121628572Y-6560735D01*
X122695238Y-7360735D02*
X122314286Y-7360735D01*
X122314286Y-7360735D02*
X122314286Y-6560735D01*
X122847619Y-6560735D02*
X123304762Y-6560735D01*
X123076190Y-7360735D02*
X123076190Y-6560735D01*
X123533333Y-7132163D02*
X123914286Y-7132163D01*
X123457143Y-7360735D02*
X123723810Y-6560735D01*
X123723810Y-6560735D02*
X123990476Y-7360735D01*
X124676190Y-6598830D02*
X124600000Y-6560735D01*
X124600000Y-6560735D02*
X124485714Y-6560735D01*
X124485714Y-6560735D02*
X124371428Y-6598830D01*
X124371428Y-6598830D02*
X124295238Y-6675020D01*
X124295238Y-6675020D02*
X124257143Y-6751211D01*
X124257143Y-6751211D02*
X124219047Y-6903592D01*
X124219047Y-6903592D02*
X124219047Y-7017878D01*
X124219047Y-7017878D02*
X124257143Y-7170259D01*
X124257143Y-7170259D02*
X124295238Y-7246449D01*
X124295238Y-7246449D02*
X124371428Y-7322640D01*
X124371428Y-7322640D02*
X124485714Y-7360735D01*
X124485714Y-7360735D02*
X124561905Y-7360735D01*
X124561905Y-7360735D02*
X124676190Y-7322640D01*
X124676190Y-7322640D02*
X124714286Y-7284544D01*
X124714286Y-7284544D02*
X124714286Y-7017878D01*
X124714286Y-7017878D02*
X124561905Y-7017878D01*
X125057143Y-6941687D02*
X125323809Y-6941687D01*
X125438095Y-7360735D02*
X125057143Y-7360735D01*
X125057143Y-7360735D02*
X125057143Y-6560735D01*
X125057143Y-6560735D02*
X125438095Y-6560735D01*
X126771429Y-7360735D02*
X126390477Y-7360735D01*
X126390477Y-7360735D02*
X126390477Y-6560735D01*
X127190477Y-6560735D02*
X127342858Y-6560735D01*
X127342858Y-6560735D02*
X127419048Y-6598830D01*
X127419048Y-6598830D02*
X127495239Y-6675020D01*
X127495239Y-6675020D02*
X127533334Y-6827401D01*
X127533334Y-6827401D02*
X127533334Y-7094068D01*
X127533334Y-7094068D02*
X127495239Y-7246449D01*
X127495239Y-7246449D02*
X127419048Y-7322640D01*
X127419048Y-7322640D02*
X127342858Y-7360735D01*
X127342858Y-7360735D02*
X127190477Y-7360735D01*
X127190477Y-7360735D02*
X127114286Y-7322640D01*
X127114286Y-7322640D02*
X127038096Y-7246449D01*
X127038096Y-7246449D02*
X127000000Y-7094068D01*
X127000000Y-7094068D02*
X127000000Y-6827401D01*
X127000000Y-6827401D02*
X127038096Y-6675020D01*
X127038096Y-6675020D02*
X127114286Y-6598830D01*
X127114286Y-6598830D02*
X127190477Y-6560735D01*
X127838095Y-7132163D02*
X128219048Y-7132163D01*
X127761905Y-7360735D02*
X128028572Y-6560735D01*
X128028572Y-6560735D02*
X128295238Y-7360735D01*
X128561905Y-7360735D02*
X128561905Y-6560735D01*
X128561905Y-6560735D02*
X128752381Y-6560735D01*
X128752381Y-6560735D02*
X128866667Y-6598830D01*
X128866667Y-6598830D02*
X128942857Y-6675020D01*
X128942857Y-6675020D02*
X128980952Y-6751211D01*
X128980952Y-6751211D02*
X129019048Y-6903592D01*
X129019048Y-6903592D02*
X129019048Y-7017878D01*
X129019048Y-7017878D02*
X128980952Y-7170259D01*
X128980952Y-7170259D02*
X128942857Y-7246449D01*
X128942857Y-7246449D02*
X128866667Y-7322640D01*
X128866667Y-7322640D02*
X128752381Y-7360735D01*
X128752381Y-7360735D02*
X128561905Y-7360735D01*
X130123810Y-6560735D02*
X130276191Y-6560735D01*
X130276191Y-6560735D02*
X130352381Y-6598830D01*
X130352381Y-6598830D02*
X130428572Y-6675020D01*
X130428572Y-6675020D02*
X130466667Y-6827401D01*
X130466667Y-6827401D02*
X130466667Y-7094068D01*
X130466667Y-7094068D02*
X130428572Y-7246449D01*
X130428572Y-7246449D02*
X130352381Y-7322640D01*
X130352381Y-7322640D02*
X130276191Y-7360735D01*
X130276191Y-7360735D02*
X130123810Y-7360735D01*
X130123810Y-7360735D02*
X130047619Y-7322640D01*
X130047619Y-7322640D02*
X129971429Y-7246449D01*
X129971429Y-7246449D02*
X129933333Y-7094068D01*
X129933333Y-7094068D02*
X129933333Y-6827401D01*
X129933333Y-6827401D02*
X129971429Y-6675020D01*
X129971429Y-6675020D02*
X130047619Y-6598830D01*
X130047619Y-6598830D02*
X130123810Y-6560735D01*
X130809524Y-7360735D02*
X130809524Y-6560735D01*
X130809524Y-6560735D02*
X131266667Y-7360735D01*
X131266667Y-7360735D02*
X131266667Y-6560735D01*
X132028571Y-7360735D02*
X131647619Y-7360735D01*
X131647619Y-7360735D02*
X131647619Y-6560735D01*
X132447619Y-6979782D02*
X132447619Y-7360735D01*
X132180952Y-6560735D02*
X132447619Y-6979782D01*
X132447619Y-6979782D02*
X132714285Y-6560735D01*
X138495238Y-18284544D02*
X138457142Y-18322640D01*
X138457142Y-18322640D02*
X138342857Y-18360735D01*
X138342857Y-18360735D02*
X138266666Y-18360735D01*
X138266666Y-18360735D02*
X138152380Y-18322640D01*
X138152380Y-18322640D02*
X138076190Y-18246449D01*
X138076190Y-18246449D02*
X138038095Y-18170259D01*
X138038095Y-18170259D02*
X137999999Y-18017878D01*
X137999999Y-18017878D02*
X137999999Y-17903592D01*
X137999999Y-17903592D02*
X138038095Y-17751211D01*
X138038095Y-17751211D02*
X138076190Y-17675020D01*
X138076190Y-17675020D02*
X138152380Y-17598830D01*
X138152380Y-17598830D02*
X138266666Y-17560735D01*
X138266666Y-17560735D02*
X138342857Y-17560735D01*
X138342857Y-17560735D02*
X138457142Y-17598830D01*
X138457142Y-17598830D02*
X138495238Y-17636925D01*
X138990476Y-17560735D02*
X139142857Y-17560735D01*
X139142857Y-17560735D02*
X139219047Y-17598830D01*
X139219047Y-17598830D02*
X139295238Y-17675020D01*
X139295238Y-17675020D02*
X139333333Y-17827401D01*
X139333333Y-17827401D02*
X139333333Y-18094068D01*
X139333333Y-18094068D02*
X139295238Y-18246449D01*
X139295238Y-18246449D02*
X139219047Y-18322640D01*
X139219047Y-18322640D02*
X139142857Y-18360735D01*
X139142857Y-18360735D02*
X138990476Y-18360735D01*
X138990476Y-18360735D02*
X138914285Y-18322640D01*
X138914285Y-18322640D02*
X138838095Y-18246449D01*
X138838095Y-18246449D02*
X138799999Y-18094068D01*
X138799999Y-18094068D02*
X138799999Y-17827401D01*
X138799999Y-17827401D02*
X138838095Y-17675020D01*
X138838095Y-17675020D02*
X138914285Y-17598830D01*
X138914285Y-17598830D02*
X138990476Y-17560735D01*
X139676190Y-18360735D02*
X139676190Y-17560735D01*
X139676190Y-17560735D02*
X139942856Y-18132163D01*
X139942856Y-18132163D02*
X140209523Y-17560735D01*
X140209523Y-17560735D02*
X140209523Y-18360735D01*
X141809524Y-18360735D02*
X141809524Y-17560735D01*
X141809524Y-17560735D02*
X142266667Y-18360735D01*
X142266667Y-18360735D02*
X142266667Y-17560735D01*
X142800000Y-17560735D02*
X142952381Y-17560735D01*
X142952381Y-17560735D02*
X143028571Y-17598830D01*
X143028571Y-17598830D02*
X143104762Y-17675020D01*
X143104762Y-17675020D02*
X143142857Y-17827401D01*
X143142857Y-17827401D02*
X143142857Y-18094068D01*
X143142857Y-18094068D02*
X143104762Y-18246449D01*
X143104762Y-18246449D02*
X143028571Y-18322640D01*
X143028571Y-18322640D02*
X142952381Y-18360735D01*
X142952381Y-18360735D02*
X142800000Y-18360735D01*
X142800000Y-18360735D02*
X142723809Y-18322640D01*
X142723809Y-18322640D02*
X142647619Y-18246449D01*
X142647619Y-18246449D02*
X142609523Y-18094068D01*
X142609523Y-18094068D02*
X142609523Y-17827401D01*
X142609523Y-17827401D02*
X142647619Y-17675020D01*
X142647619Y-17675020D02*
X142723809Y-17598830D01*
X142723809Y-17598830D02*
X142800000Y-17560735D01*
X144704762Y-18360735D02*
X144704762Y-17560735D01*
X144704762Y-17560735D02*
X145161905Y-18360735D01*
X145161905Y-18360735D02*
X145161905Y-17560735D01*
X146000000Y-18284544D02*
X145961904Y-18322640D01*
X145961904Y-18322640D02*
X145847619Y-18360735D01*
X145847619Y-18360735D02*
X145771428Y-18360735D01*
X145771428Y-18360735D02*
X145657142Y-18322640D01*
X145657142Y-18322640D02*
X145580952Y-18246449D01*
X145580952Y-18246449D02*
X145542857Y-18170259D01*
X145542857Y-18170259D02*
X145504761Y-18017878D01*
X145504761Y-18017878D02*
X145504761Y-17903592D01*
X145504761Y-17903592D02*
X145542857Y-17751211D01*
X145542857Y-17751211D02*
X145580952Y-17675020D01*
X145580952Y-17675020D02*
X145657142Y-17598830D01*
X145657142Y-17598830D02*
X145771428Y-17560735D01*
X145771428Y-17560735D02*
X145847619Y-17560735D01*
X145847619Y-17560735D02*
X145961904Y-17598830D01*
X145961904Y-17598830D02*
X146000000Y-17636925D01*
X7464286Y-64506997D02*
X7035714Y-64506997D01*
X7035714Y-64506997D02*
X6992857Y-64935568D01*
X6992857Y-64935568D02*
X7035714Y-64892711D01*
X7035714Y-64892711D02*
X7121429Y-64849854D01*
X7121429Y-64849854D02*
X7335714Y-64849854D01*
X7335714Y-64849854D02*
X7421429Y-64892711D01*
X7421429Y-64892711D02*
X7464286Y-64935568D01*
X7464286Y-64935568D02*
X7507143Y-65021282D01*
X7507143Y-65021282D02*
X7507143Y-65235568D01*
X7507143Y-65235568D02*
X7464286Y-65321282D01*
X7464286Y-65321282D02*
X7421429Y-65364140D01*
X7421429Y-65364140D02*
X7335714Y-65406997D01*
X7335714Y-65406997D02*
X7121429Y-65406997D01*
X7121429Y-65406997D02*
X7035714Y-65364140D01*
X7035714Y-65364140D02*
X6992857Y-65321282D01*
X7764286Y-64506997D02*
X8064286Y-65406997D01*
X8064286Y-65406997D02*
X8364286Y-64506997D01*
X9864286Y-65406997D02*
X9564286Y-64978425D01*
X9350000Y-65406997D02*
X9350000Y-64506997D01*
X9350000Y-64506997D02*
X9692857Y-64506997D01*
X9692857Y-64506997D02*
X9778572Y-64549854D01*
X9778572Y-64549854D02*
X9821429Y-64592711D01*
X9821429Y-64592711D02*
X9864286Y-64678425D01*
X9864286Y-64678425D02*
X9864286Y-64806997D01*
X9864286Y-64806997D02*
X9821429Y-64892711D01*
X9821429Y-64892711D02*
X9778572Y-64935568D01*
X9778572Y-64935568D02*
X9692857Y-64978425D01*
X9692857Y-64978425D02*
X9350000Y-64978425D01*
X10250000Y-64935568D02*
X10550000Y-64935568D01*
X10678572Y-65406997D02*
X10250000Y-65406997D01*
X10250000Y-65406997D02*
X10250000Y-64506997D01*
X10250000Y-64506997D02*
X10678572Y-64506997D01*
X11535715Y-64549854D02*
X11450001Y-64506997D01*
X11450001Y-64506997D02*
X11321429Y-64506997D01*
X11321429Y-64506997D02*
X11192858Y-64549854D01*
X11192858Y-64549854D02*
X11107143Y-64635568D01*
X11107143Y-64635568D02*
X11064286Y-64721282D01*
X11064286Y-64721282D02*
X11021429Y-64892711D01*
X11021429Y-64892711D02*
X11021429Y-65021282D01*
X11021429Y-65021282D02*
X11064286Y-65192711D01*
X11064286Y-65192711D02*
X11107143Y-65278425D01*
X11107143Y-65278425D02*
X11192858Y-65364140D01*
X11192858Y-65364140D02*
X11321429Y-65406997D01*
X11321429Y-65406997D02*
X11407143Y-65406997D01*
X11407143Y-65406997D02*
X11535715Y-65364140D01*
X11535715Y-65364140D02*
X11578572Y-65321282D01*
X11578572Y-65321282D02*
X11578572Y-65021282D01*
X11578572Y-65021282D02*
X11407143Y-65021282D01*
X11964286Y-64506997D02*
X11964286Y-65235568D01*
X11964286Y-65235568D02*
X12007143Y-65321282D01*
X12007143Y-65321282D02*
X12050001Y-65364140D01*
X12050001Y-65364140D02*
X12135715Y-65406997D01*
X12135715Y-65406997D02*
X12307143Y-65406997D01*
X12307143Y-65406997D02*
X12392858Y-65364140D01*
X12392858Y-65364140D02*
X12435715Y-65321282D01*
X12435715Y-65321282D02*
X12478572Y-65235568D01*
X12478572Y-65235568D02*
X12478572Y-64506997D01*
X13335715Y-65406997D02*
X12907143Y-65406997D01*
X12907143Y-65406997D02*
X12907143Y-64506997D01*
X13592857Y-65149854D02*
X14021429Y-65149854D01*
X13507143Y-65406997D02*
X13807143Y-64506997D01*
X13807143Y-64506997D02*
X14107143Y-65406997D01*
X14278572Y-64506997D02*
X14792858Y-64506997D01*
X14535715Y-65406997D02*
X14535715Y-64506997D01*
X15092857Y-64935568D02*
X15392857Y-64935568D01*
X15521429Y-65406997D02*
X15092857Y-65406997D01*
X15092857Y-65406997D02*
X15092857Y-64506997D01*
X15092857Y-64506997D02*
X15521429Y-64506997D01*
X15907143Y-65406997D02*
X15907143Y-64506997D01*
X15907143Y-64506997D02*
X16121429Y-64506997D01*
X16121429Y-64506997D02*
X16250000Y-64549854D01*
X16250000Y-64549854D02*
X16335715Y-64635568D01*
X16335715Y-64635568D02*
X16378572Y-64721282D01*
X16378572Y-64721282D02*
X16421429Y-64892711D01*
X16421429Y-64892711D02*
X16421429Y-65021282D01*
X16421429Y-65021282D02*
X16378572Y-65192711D01*
X16378572Y-65192711D02*
X16335715Y-65278425D01*
X16335715Y-65278425D02*
X16250000Y-65364140D01*
X16250000Y-65364140D02*
X16121429Y-65406997D01*
X16121429Y-65406997D02*
X15907143Y-65406997D01*
X17492857Y-65406997D02*
X17492857Y-64506997D01*
X17921428Y-65406997D02*
X17921428Y-64506997D01*
X17921428Y-64506997D02*
X18435714Y-65406997D01*
X18435714Y-65406997D02*
X18435714Y-64506997D01*
X18864285Y-65406997D02*
X18864285Y-64506997D01*
X18864285Y-64506997D02*
X19207142Y-64506997D01*
X19207142Y-64506997D02*
X19292857Y-64549854D01*
X19292857Y-64549854D02*
X19335714Y-64592711D01*
X19335714Y-64592711D02*
X19378571Y-64678425D01*
X19378571Y-64678425D02*
X19378571Y-64806997D01*
X19378571Y-64806997D02*
X19335714Y-64892711D01*
X19335714Y-64892711D02*
X19292857Y-64935568D01*
X19292857Y-64935568D02*
X19207142Y-64978425D01*
X19207142Y-64978425D02*
X18864285Y-64978425D01*
X19764285Y-64506997D02*
X19764285Y-65235568D01*
X19764285Y-65235568D02*
X19807142Y-65321282D01*
X19807142Y-65321282D02*
X19850000Y-65364140D01*
X19850000Y-65364140D02*
X19935714Y-65406997D01*
X19935714Y-65406997D02*
X20107142Y-65406997D01*
X20107142Y-65406997D02*
X20192857Y-65364140D01*
X20192857Y-65364140D02*
X20235714Y-65321282D01*
X20235714Y-65321282D02*
X20278571Y-65235568D01*
X20278571Y-65235568D02*
X20278571Y-64506997D01*
X20578571Y-64506997D02*
X21092857Y-64506997D01*
X20835714Y-65406997D02*
X20835714Y-64506997D01*
X15328571Y-17406997D02*
X15328571Y-16506997D01*
X15842857Y-17406997D02*
X15457143Y-16892711D01*
X15842857Y-16506997D02*
X15328571Y-17021282D01*
X16228571Y-17064140D02*
X16914286Y-17064140D01*
X17214286Y-16506997D02*
X17728572Y-16506997D01*
X17471429Y-17406997D02*
X17471429Y-16506997D01*
X18200000Y-16978425D02*
X18200000Y-17406997D01*
X17900000Y-16506997D02*
X18200000Y-16978425D01*
X18200000Y-16978425D02*
X18500000Y-16506997D01*
X18800000Y-17406997D02*
X18800000Y-16506997D01*
X18800000Y-16506997D02*
X19142857Y-16506997D01*
X19142857Y-16506997D02*
X19228572Y-16549854D01*
X19228572Y-16549854D02*
X19271429Y-16592711D01*
X19271429Y-16592711D02*
X19314286Y-16678425D01*
X19314286Y-16678425D02*
X19314286Y-16806997D01*
X19314286Y-16806997D02*
X19271429Y-16892711D01*
X19271429Y-16892711D02*
X19228572Y-16935568D01*
X19228572Y-16935568D02*
X19142857Y-16978425D01*
X19142857Y-16978425D02*
X18800000Y-16978425D01*
X19700000Y-16935568D02*
X20000000Y-16935568D01*
X20128572Y-17406997D02*
X19700000Y-17406997D01*
X19700000Y-17406997D02*
X19700000Y-16506997D01*
X19700000Y-16506997D02*
X20128572Y-16506997D01*
X21200000Y-17406997D02*
X21200000Y-16506997D01*
X21628571Y-17406997D02*
X21628571Y-16506997D01*
X21628571Y-16506997D02*
X22142857Y-17406997D01*
X22142857Y-17406997D02*
X22142857Y-16506997D01*
X22571428Y-17406997D02*
X22571428Y-16506997D01*
X22571428Y-16506997D02*
X22914285Y-16506997D01*
X22914285Y-16506997D02*
X23000000Y-16549854D01*
X23000000Y-16549854D02*
X23042857Y-16592711D01*
X23042857Y-16592711D02*
X23085714Y-16678425D01*
X23085714Y-16678425D02*
X23085714Y-16806997D01*
X23085714Y-16806997D02*
X23042857Y-16892711D01*
X23042857Y-16892711D02*
X23000000Y-16935568D01*
X23000000Y-16935568D02*
X22914285Y-16978425D01*
X22914285Y-16978425D02*
X22571428Y-16978425D01*
X23471428Y-16506997D02*
X23471428Y-17235568D01*
X23471428Y-17235568D02*
X23514285Y-17321282D01*
X23514285Y-17321282D02*
X23557143Y-17364140D01*
X23557143Y-17364140D02*
X23642857Y-17406997D01*
X23642857Y-17406997D02*
X23814285Y-17406997D01*
X23814285Y-17406997D02*
X23900000Y-17364140D01*
X23900000Y-17364140D02*
X23942857Y-17321282D01*
X23942857Y-17321282D02*
X23985714Y-17235568D01*
X23985714Y-17235568D02*
X23985714Y-16506997D01*
X24285714Y-16506997D02*
X24800000Y-16506997D01*
X24542857Y-17406997D02*
X24542857Y-16506997D01*
X51385715Y-3406997D02*
X50957143Y-3406997D01*
X50957143Y-3406997D02*
X50957143Y-2506997D01*
X52200000Y-3321282D02*
X52157143Y-3364140D01*
X52157143Y-3364140D02*
X52028571Y-3406997D01*
X52028571Y-3406997D02*
X51942857Y-3406997D01*
X51942857Y-3406997D02*
X51814286Y-3364140D01*
X51814286Y-3364140D02*
X51728571Y-3278425D01*
X51728571Y-3278425D02*
X51685714Y-3192711D01*
X51685714Y-3192711D02*
X51642857Y-3021282D01*
X51642857Y-3021282D02*
X51642857Y-2892711D01*
X51642857Y-2892711D02*
X51685714Y-2721282D01*
X51685714Y-2721282D02*
X51728571Y-2635568D01*
X51728571Y-2635568D02*
X51814286Y-2549854D01*
X51814286Y-2549854D02*
X51942857Y-2506997D01*
X51942857Y-2506997D02*
X52028571Y-2506997D01*
X52028571Y-2506997D02*
X52157143Y-2549854D01*
X52157143Y-2549854D02*
X52200000Y-2592711D01*
X52585714Y-3406997D02*
X52585714Y-2506997D01*
X52585714Y-2506997D02*
X52800000Y-2506997D01*
X52800000Y-2506997D02*
X52928571Y-2549854D01*
X52928571Y-2549854D02*
X53014286Y-2635568D01*
X53014286Y-2635568D02*
X53057143Y-2721282D01*
X53057143Y-2721282D02*
X53100000Y-2892711D01*
X53100000Y-2892711D02*
X53100000Y-3021282D01*
X53100000Y-3021282D02*
X53057143Y-3192711D01*
X53057143Y-3192711D02*
X53014286Y-3278425D01*
X53014286Y-3278425D02*
X52928571Y-3364140D01*
X52928571Y-3364140D02*
X52800000Y-3406997D01*
X52800000Y-3406997D02*
X52585714Y-3406997D01*
X54642857Y-3406997D02*
X54128571Y-3406997D01*
X54385714Y-3406997D02*
X54385714Y-2506997D01*
X54385714Y-2506997D02*
X54300000Y-2635568D01*
X54300000Y-2635568D02*
X54214285Y-2721282D01*
X54214285Y-2721282D02*
X54128571Y-2764140D01*
X55414286Y-2506997D02*
X55242857Y-2506997D01*
X55242857Y-2506997D02*
X55157143Y-2549854D01*
X55157143Y-2549854D02*
X55114286Y-2592711D01*
X55114286Y-2592711D02*
X55028571Y-2721282D01*
X55028571Y-2721282D02*
X54985714Y-2892711D01*
X54985714Y-2892711D02*
X54985714Y-3235568D01*
X54985714Y-3235568D02*
X55028571Y-3321282D01*
X55028571Y-3321282D02*
X55071428Y-3364140D01*
X55071428Y-3364140D02*
X55157143Y-3406997D01*
X55157143Y-3406997D02*
X55328571Y-3406997D01*
X55328571Y-3406997D02*
X55414286Y-3364140D01*
X55414286Y-3364140D02*
X55457143Y-3321282D01*
X55457143Y-3321282D02*
X55500000Y-3235568D01*
X55500000Y-3235568D02*
X55500000Y-3021282D01*
X55500000Y-3021282D02*
X55457143Y-2935568D01*
X55457143Y-2935568D02*
X55414286Y-2892711D01*
X55414286Y-2892711D02*
X55328571Y-2849854D01*
X55328571Y-2849854D02*
X55157143Y-2849854D01*
X55157143Y-2849854D02*
X55071428Y-2892711D01*
X55071428Y-2892711D02*
X55028571Y-2935568D01*
X55028571Y-2935568D02*
X54985714Y-3021282D01*
X55800000Y-3406997D02*
X56271429Y-2806997D01*
X55800000Y-2806997D02*
X56271429Y-3406997D01*
X56571428Y-2592711D02*
X56614285Y-2549854D01*
X56614285Y-2549854D02*
X56700000Y-2506997D01*
X56700000Y-2506997D02*
X56914285Y-2506997D01*
X56914285Y-2506997D02*
X57000000Y-2549854D01*
X57000000Y-2549854D02*
X57042857Y-2592711D01*
X57042857Y-2592711D02*
X57085714Y-2678425D01*
X57085714Y-2678425D02*
X57085714Y-2764140D01*
X57085714Y-2764140D02*
X57042857Y-2892711D01*
X57042857Y-2892711D02*
X56528571Y-3406997D01*
X56528571Y-3406997D02*
X57085714Y-3406997D01*
X107878571Y-67149854D02*
X108307143Y-67149854D01*
X107792857Y-67406997D02*
X108092857Y-66506997D01*
X108092857Y-66506997D02*
X108392857Y-67406997D01*
X109121429Y-67406997D02*
X108692857Y-67406997D01*
X108692857Y-67406997D02*
X108692857Y-66506997D01*
X109378571Y-67149854D02*
X109807143Y-67149854D01*
X109292857Y-67406997D02*
X109592857Y-66506997D01*
X109592857Y-66506997D02*
X109892857Y-67406997D01*
X110707143Y-67406997D02*
X110407143Y-66978425D01*
X110192857Y-67406997D02*
X110192857Y-66506997D01*
X110192857Y-66506997D02*
X110535714Y-66506997D01*
X110535714Y-66506997D02*
X110621429Y-66549854D01*
X110621429Y-66549854D02*
X110664286Y-66592711D01*
X110664286Y-66592711D02*
X110707143Y-66678425D01*
X110707143Y-66678425D02*
X110707143Y-66806997D01*
X110707143Y-66806997D02*
X110664286Y-66892711D01*
X110664286Y-66892711D02*
X110621429Y-66935568D01*
X110621429Y-66935568D02*
X110535714Y-66978425D01*
X110535714Y-66978425D02*
X110192857Y-66978425D01*
X111092857Y-67406997D02*
X111092857Y-66506997D01*
X111092857Y-66506997D02*
X111392857Y-67149854D01*
X111392857Y-67149854D02*
X111692857Y-66506997D01*
X111692857Y-66506997D02*
X111692857Y-67406997D01*
X112807142Y-66806997D02*
X113492857Y-67064140D01*
X113492857Y-67064140D02*
X112807142Y-67321282D01*
X113921428Y-66935568D02*
X114607143Y-66935568D01*
X114607143Y-67192711D02*
X113921428Y-67192711D01*
X115507143Y-67406997D02*
X114992857Y-67406997D01*
X115250000Y-67406997D02*
X115250000Y-66506997D01*
X115250000Y-66506997D02*
X115164286Y-66635568D01*
X115164286Y-66635568D02*
X115078571Y-66721282D01*
X115078571Y-66721282D02*
X114992857Y-66764140D01*
X116064286Y-66506997D02*
X116150000Y-66506997D01*
X116150000Y-66506997D02*
X116235714Y-66549854D01*
X116235714Y-66549854D02*
X116278572Y-66592711D01*
X116278572Y-66592711D02*
X116321429Y-66678425D01*
X116321429Y-66678425D02*
X116364286Y-66849854D01*
X116364286Y-66849854D02*
X116364286Y-67064140D01*
X116364286Y-67064140D02*
X116321429Y-67235568D01*
X116321429Y-67235568D02*
X116278572Y-67321282D01*
X116278572Y-67321282D02*
X116235714Y-67364140D01*
X116235714Y-67364140D02*
X116150000Y-67406997D01*
X116150000Y-67406997D02*
X116064286Y-67406997D01*
X116064286Y-67406997D02*
X115978572Y-67364140D01*
X115978572Y-67364140D02*
X115935714Y-67321282D01*
X115935714Y-67321282D02*
X115892857Y-67235568D01*
X115892857Y-67235568D02*
X115850000Y-67064140D01*
X115850000Y-67064140D02*
X115850000Y-66849854D01*
X115850000Y-66849854D02*
X115892857Y-66678425D01*
X115892857Y-66678425D02*
X115935714Y-66592711D01*
X115935714Y-66592711D02*
X115978572Y-66549854D01*
X115978572Y-66549854D02*
X116064286Y-66506997D01*
X116921429Y-66506997D02*
X117007143Y-66506997D01*
X117007143Y-66506997D02*
X117092857Y-66549854D01*
X117092857Y-66549854D02*
X117135715Y-66592711D01*
X117135715Y-66592711D02*
X117178572Y-66678425D01*
X117178572Y-66678425D02*
X117221429Y-66849854D01*
X117221429Y-66849854D02*
X117221429Y-67064140D01*
X117221429Y-67064140D02*
X117178572Y-67235568D01*
X117178572Y-67235568D02*
X117135715Y-67321282D01*
X117135715Y-67321282D02*
X117092857Y-67364140D01*
X117092857Y-67364140D02*
X117007143Y-67406997D01*
X117007143Y-67406997D02*
X116921429Y-67406997D01*
X116921429Y-67406997D02*
X116835715Y-67364140D01*
X116835715Y-67364140D02*
X116792857Y-67321282D01*
X116792857Y-67321282D02*
X116750000Y-67235568D01*
X116750000Y-67235568D02*
X116707143Y-67064140D01*
X116707143Y-67064140D02*
X116707143Y-66849854D01*
X116707143Y-66849854D02*
X116750000Y-66678425D01*
X116750000Y-66678425D02*
X116792857Y-66592711D01*
X116792857Y-66592711D02*
X116835715Y-66549854D01*
X116835715Y-66549854D02*
X116921429Y-66506997D01*
X118121429Y-67321282D02*
X118078572Y-67364140D01*
X118078572Y-67364140D02*
X117950000Y-67406997D01*
X117950000Y-67406997D02*
X117864286Y-67406997D01*
X117864286Y-67406997D02*
X117735715Y-67364140D01*
X117735715Y-67364140D02*
X117650000Y-67278425D01*
X117650000Y-67278425D02*
X117607143Y-67192711D01*
X117607143Y-67192711D02*
X117564286Y-67021282D01*
X117564286Y-67021282D02*
X117564286Y-66892711D01*
X117564286Y-66892711D02*
X117607143Y-66721282D01*
X117607143Y-66721282D02*
X117650000Y-66635568D01*
X117650000Y-66635568D02*
X117735715Y-66549854D01*
X117735715Y-66549854D02*
X117864286Y-66506997D01*
X117864286Y-66506997D02*
X117950000Y-66506997D01*
X117950000Y-66506997D02*
X118078572Y-66549854D01*
X118078572Y-66549854D02*
X118121429Y-66592711D01*
X64057142Y-66545782D02*
X64057142Y-65345782D01*
X64742856Y-66545782D02*
X64228570Y-65860068D01*
X64742856Y-65345782D02*
X64057142Y-66031497D01*
X65257142Y-66088640D02*
X66171428Y-66088640D01*
X66571427Y-65345782D02*
X67257142Y-65345782D01*
X66914284Y-66545782D02*
X66914284Y-65345782D01*
X67885713Y-65974354D02*
X67885713Y-66545782D01*
X67485713Y-65345782D02*
X67885713Y-65974354D01*
X67885713Y-65974354D02*
X68285713Y-65345782D01*
X68685713Y-66545782D02*
X68685713Y-65345782D01*
X68685713Y-65345782D02*
X69142856Y-65345782D01*
X69142856Y-65345782D02*
X69257141Y-65402925D01*
X69257141Y-65402925D02*
X69314284Y-65460068D01*
X69314284Y-65460068D02*
X69371427Y-65574354D01*
X69371427Y-65574354D02*
X69371427Y-65745782D01*
X69371427Y-65745782D02*
X69314284Y-65860068D01*
X69314284Y-65860068D02*
X69257141Y-65917211D01*
X69257141Y-65917211D02*
X69142856Y-65974354D01*
X69142856Y-65974354D02*
X68685713Y-65974354D01*
X69885713Y-65917211D02*
X70285713Y-65917211D01*
X70457141Y-66545782D02*
X69885713Y-66545782D01*
X69885713Y-66545782D02*
X69885713Y-65345782D01*
X69885713Y-65345782D02*
X70457141Y-65345782D01*
X71714284Y-65345782D02*
X72399999Y-65345782D01*
X72057141Y-66545782D02*
X72057141Y-65345782D01*
X72799999Y-66545782D02*
X72799999Y-65345782D01*
X72799999Y-65917211D02*
X73485713Y-65917211D01*
X73485713Y-66545782D02*
X73485713Y-65345782D01*
X74057142Y-65917211D02*
X74457142Y-65917211D01*
X74628570Y-66545782D02*
X74057142Y-66545782D01*
X74057142Y-66545782D02*
X74057142Y-65345782D01*
X74057142Y-65345782D02*
X74628570Y-65345782D01*
X75828570Y-66545782D02*
X75428570Y-65974354D01*
X75142856Y-66545782D02*
X75142856Y-65345782D01*
X75142856Y-65345782D02*
X75599999Y-65345782D01*
X75599999Y-65345782D02*
X75714284Y-65402925D01*
X75714284Y-65402925D02*
X75771427Y-65460068D01*
X75771427Y-65460068D02*
X75828570Y-65574354D01*
X75828570Y-65574354D02*
X75828570Y-65745782D01*
X75828570Y-65745782D02*
X75771427Y-65860068D01*
X75771427Y-65860068D02*
X75714284Y-65917211D01*
X75714284Y-65917211D02*
X75599999Y-65974354D01*
X75599999Y-65974354D02*
X75142856Y-65974354D01*
X76342856Y-66545782D02*
X76342856Y-65345782D01*
X76342856Y-65345782D02*
X76742856Y-66202925D01*
X76742856Y-66202925D02*
X77142856Y-65345782D01*
X77142856Y-65345782D02*
X77142856Y-66545782D01*
X77942856Y-65345782D02*
X78171428Y-65345782D01*
X78171428Y-65345782D02*
X78285713Y-65402925D01*
X78285713Y-65402925D02*
X78399999Y-65517211D01*
X78399999Y-65517211D02*
X78457142Y-65745782D01*
X78457142Y-65745782D02*
X78457142Y-66145782D01*
X78457142Y-66145782D02*
X78399999Y-66374354D01*
X78399999Y-66374354D02*
X78285713Y-66488640D01*
X78285713Y-66488640D02*
X78171428Y-66545782D01*
X78171428Y-66545782D02*
X77942856Y-66545782D01*
X77942856Y-66545782D02*
X77828571Y-66488640D01*
X77828571Y-66488640D02*
X77714285Y-66374354D01*
X77714285Y-66374354D02*
X77657142Y-66145782D01*
X77657142Y-66145782D02*
X77657142Y-65745782D01*
X77657142Y-65745782D02*
X77714285Y-65517211D01*
X77714285Y-65517211D02*
X77828571Y-65402925D01*
X77828571Y-65402925D02*
X77942856Y-65345782D01*
X79657142Y-66431497D02*
X79599999Y-66488640D01*
X79599999Y-66488640D02*
X79428571Y-66545782D01*
X79428571Y-66545782D02*
X79314285Y-66545782D01*
X79314285Y-66545782D02*
X79142856Y-66488640D01*
X79142856Y-66488640D02*
X79028571Y-66374354D01*
X79028571Y-66374354D02*
X78971428Y-66260068D01*
X78971428Y-66260068D02*
X78914285Y-66031497D01*
X78914285Y-66031497D02*
X78914285Y-65860068D01*
X78914285Y-65860068D02*
X78971428Y-65631497D01*
X78971428Y-65631497D02*
X79028571Y-65517211D01*
X79028571Y-65517211D02*
X79142856Y-65402925D01*
X79142856Y-65402925D02*
X79314285Y-65345782D01*
X79314285Y-65345782D02*
X79428571Y-65345782D01*
X79428571Y-65345782D02*
X79599999Y-65402925D01*
X79599999Y-65402925D02*
X79657142Y-65460068D01*
X80399999Y-65345782D02*
X80628571Y-65345782D01*
X80628571Y-65345782D02*
X80742856Y-65402925D01*
X80742856Y-65402925D02*
X80857142Y-65517211D01*
X80857142Y-65517211D02*
X80914285Y-65745782D01*
X80914285Y-65745782D02*
X80914285Y-66145782D01*
X80914285Y-66145782D02*
X80857142Y-66374354D01*
X80857142Y-66374354D02*
X80742856Y-66488640D01*
X80742856Y-66488640D02*
X80628571Y-66545782D01*
X80628571Y-66545782D02*
X80399999Y-66545782D01*
X80399999Y-66545782D02*
X80285714Y-66488640D01*
X80285714Y-66488640D02*
X80171428Y-66374354D01*
X80171428Y-66374354D02*
X80114285Y-66145782D01*
X80114285Y-66145782D02*
X80114285Y-65745782D01*
X80114285Y-65745782D02*
X80171428Y-65517211D01*
X80171428Y-65517211D02*
X80285714Y-65402925D01*
X80285714Y-65402925D02*
X80399999Y-65345782D01*
X81428571Y-65345782D02*
X81428571Y-66317211D01*
X81428571Y-66317211D02*
X81485714Y-66431497D01*
X81485714Y-66431497D02*
X81542857Y-66488640D01*
X81542857Y-66488640D02*
X81657142Y-66545782D01*
X81657142Y-66545782D02*
X81885714Y-66545782D01*
X81885714Y-66545782D02*
X81999999Y-66488640D01*
X81999999Y-66488640D02*
X82057142Y-66431497D01*
X82057142Y-66431497D02*
X82114285Y-66317211D01*
X82114285Y-66317211D02*
X82114285Y-65345782D01*
X82685714Y-66545782D02*
X82685714Y-65345782D01*
X82685714Y-65345782D02*
X83142857Y-65345782D01*
X83142857Y-65345782D02*
X83257142Y-65402925D01*
X83257142Y-65402925D02*
X83314285Y-65460068D01*
X83314285Y-65460068D02*
X83371428Y-65574354D01*
X83371428Y-65574354D02*
X83371428Y-65745782D01*
X83371428Y-65745782D02*
X83314285Y-65860068D01*
X83314285Y-65860068D02*
X83257142Y-65917211D01*
X83257142Y-65917211D02*
X83142857Y-65974354D01*
X83142857Y-65974354D02*
X82685714Y-65974354D01*
X84457142Y-66545782D02*
X83885714Y-66545782D01*
X83885714Y-66545782D02*
X83885714Y-65345782D01*
X84857143Y-65917211D02*
X85257143Y-65917211D01*
X85428571Y-66545782D02*
X84857143Y-66545782D01*
X84857143Y-66545782D02*
X84857143Y-65345782D01*
X84857143Y-65345782D02*
X85428571Y-65345782D01*
X86857143Y-66545782D02*
X86857143Y-65345782D01*
X86857143Y-65345782D02*
X87257143Y-66202925D01*
X87257143Y-66202925D02*
X87657143Y-65345782D01*
X87657143Y-65345782D02*
X87657143Y-66545782D01*
X88228572Y-65917211D02*
X88628572Y-65917211D01*
X88800000Y-66545782D02*
X88228572Y-66545782D01*
X88228572Y-66545782D02*
X88228572Y-65345782D01*
X88228572Y-65345782D02*
X88800000Y-65345782D01*
X89142857Y-65345782D02*
X89828572Y-65345782D01*
X89485714Y-66545782D02*
X89485714Y-65345782D01*
X90228572Y-65917211D02*
X90628572Y-65917211D01*
X90800000Y-66545782D02*
X90228572Y-66545782D01*
X90228572Y-66545782D02*
X90228572Y-65345782D01*
X90228572Y-65345782D02*
X90800000Y-65345782D01*
X92000000Y-66545782D02*
X91600000Y-65974354D01*
X91314286Y-66545782D02*
X91314286Y-65345782D01*
X91314286Y-65345782D02*
X91771429Y-65345782D01*
X91771429Y-65345782D02*
X91885714Y-65402925D01*
X91885714Y-65402925D02*
X91942857Y-65460068D01*
X91942857Y-65460068D02*
X92000000Y-65574354D01*
X92000000Y-65574354D02*
X92000000Y-65745782D01*
X92000000Y-65745782D02*
X91942857Y-65860068D01*
X91942857Y-65860068D02*
X91885714Y-65917211D01*
X91885714Y-65917211D02*
X91771429Y-65974354D01*
X91771429Y-65974354D02*
X91314286Y-65974354D01*
D11*
X108738095Y-47354819D02*
X108738095Y-46354819D01*
X109309523Y-47354819D02*
X108880952Y-46783390D01*
X109309523Y-46354819D02*
X108738095Y-46926247D01*
%TO.C,C2*%
D12*
X32288748Y-54640000D02*
X33711252Y-54640000D01*
X32288748Y-57360000D02*
X33711252Y-57360000D01*
%TO.C,J5*%
X136680000Y-25380000D02*
X146720000Y-25380000D01*
X136680000Y-40620000D02*
X136680000Y-25380000D01*
X139700000Y-40620000D02*
X139700000Y-25380000D01*
X144600000Y-40620000D02*
X144600000Y-25380000D01*
X146100000Y-40620000D02*
X146100000Y-25380000D01*
X146720000Y-25380000D02*
X146720000Y-37700000D01*
X146720000Y-38300000D02*
X146720000Y-40620000D01*
X146720000Y-40620000D02*
X136680000Y-40620000D01*
X146720000Y-38000000D02*
X147330000Y-37560000D01*
X147330000Y-38440000D01*
X146720000Y-38000000D01*
G36*
X147330000Y-38440000D02*
G01*
X146720000Y-38000000D01*
X147330000Y-37560000D01*
X147330000Y-38440000D01*
G37*
%TO.C,R5*%
X98772936Y-59265000D02*
X99227064Y-59265000D01*
X98772936Y-60735000D02*
X99227064Y-60735000D01*
%TO.C,K1*%
X110600000Y-30200000D02*
X110600000Y-36800000D01*
X110600000Y-30200000D02*
X130400000Y-30200000D01*
X110600000Y-39200000D02*
X110600000Y-45800000D01*
X114650000Y-38050000D02*
X113850000Y-38050000D01*
X114650000Y-38050000D02*
X114650000Y-41650000D01*
X115550000Y-44050000D02*
X118050000Y-44050000D01*
X116050000Y-36250000D02*
X120050000Y-36250000D01*
X116050000Y-39850000D02*
X116050000Y-36250000D01*
X118050000Y-32050000D02*
X115550000Y-32050000D01*
X118050000Y-32050000D02*
X118050000Y-36250000D01*
X118050000Y-39850000D02*
X118050000Y-44050000D01*
X120050000Y-36250000D02*
X120050000Y-39850000D01*
X120050000Y-39850000D02*
X116050000Y-36250000D01*
X120050000Y-39850000D02*
X116050000Y-39850000D01*
X121450000Y-38050000D02*
X121450000Y-41650000D01*
X121450000Y-38050000D02*
X122950000Y-38050000D01*
X121450000Y-41650000D02*
X114650000Y-41650000D01*
X122950000Y-38050000D02*
X127550000Y-35550000D01*
X126150000Y-33800000D02*
X126150000Y-36300000D01*
X126150000Y-42200000D02*
X126150000Y-39750000D01*
X130400000Y-30200000D02*
X130400000Y-45800000D01*
X130400000Y-45800000D02*
X110600000Y-45800000D01*
%TO.C,D2*%
X114710000Y-60455000D02*
X114710000Y-63545000D01*
X114710000Y-60455170D02*
G75*
G02*
X120260000Y-62000000I2560000J-1544830D01*
G01*
X120260000Y-62000000D02*
G75*
G02*
X114710000Y-63544830I-2990000J0D01*
G01*
X119770000Y-62000000D02*
G75*
G02*
X114770000Y-62000000I-2500000J0D01*
G01*
X114770000Y-62000000D02*
G75*
G02*
X119770000Y-62000000I2500000J0D01*
G01*
%TO.C,R3*%
X64772936Y-49265000D02*
X65227064Y-49265000D01*
X64772936Y-50735000D02*
X65227064Y-50735000D01*
%TO.C,J2*%
X33620000Y-8380000D02*
X33620000Y-7000000D01*
X35000000Y-8380000D02*
X33620000Y-8380000D01*
X36270000Y-5620000D02*
X74480000Y-5620000D01*
X36270000Y-8380000D02*
X36270000Y-5620000D01*
X36270000Y-8380000D02*
X74480000Y-8380000D01*
X74480000Y-8380000D02*
X74480000Y-5620000D01*
%TO.C,D1*%
X110090000Y-47530000D02*
X115530000Y-47530000D01*
X110090000Y-47660000D02*
X110090000Y-47530000D01*
X110090000Y-50340000D02*
X110090000Y-50470000D01*
X110090000Y-50470000D02*
X115530000Y-50470000D01*
X110870000Y-47530000D02*
X110870000Y-50470000D01*
X110990000Y-47530000D02*
X110990000Y-50470000D01*
X111110000Y-47530000D02*
X111110000Y-50470000D01*
X115530000Y-47530000D02*
X115530000Y-47660000D01*
X115530000Y-50470000D02*
X115530000Y-50340000D01*
%TO.C,U1*%
X43670000Y-30920000D02*
X43670000Y-36380000D01*
X43670000Y-38380000D02*
X43670000Y-43840000D01*
X43670000Y-43840000D02*
X94590000Y-43840000D01*
X94590000Y-30920000D02*
X43670000Y-30920000D01*
X94590000Y-43840000D02*
X94590000Y-30920000D01*
X43670000Y-36380000D02*
G75*
G02*
X43670000Y-38380000I0J-1000000D01*
G01*
%TO.C,C3*%
X75738748Y-49265000D02*
X76261252Y-49265000D01*
X75738748Y-50735000D02*
X76261252Y-50735000D01*
%TO.C,U3*%
X22150000Y-53590000D02*
X25910000Y-53590000D01*
X22150000Y-60410000D02*
X25910000Y-60410000D01*
X25910000Y-53590000D02*
X25910000Y-54850000D01*
X25910000Y-60410000D02*
X25910000Y-59150000D01*
X20870000Y-53690000D02*
X20630000Y-53360000D01*
X21110000Y-53360000D01*
X20870000Y-53690000D01*
G36*
X20870000Y-53690000D02*
G01*
X20630000Y-53360000D01*
X21110000Y-53360000D01*
X20870000Y-53690000D01*
G37*
%TO.C,J1*%
X680000Y-50380000D02*
X10720000Y-50380000D01*
X680000Y-60620000D02*
X680000Y-50380000D01*
X3700000Y-60620000D02*
X3700000Y-50380000D01*
X8600000Y-60620000D02*
X8600000Y-50380000D01*
X10100000Y-60620000D02*
X10100000Y-50380000D01*
X10720000Y-50380000D02*
X10720000Y-57700000D01*
X10720000Y-58300000D02*
X10720000Y-60620000D01*
X10720000Y-60620000D02*
X680000Y-60620000D01*
X10720000Y-58000000D02*
X11330000Y-57560000D01*
X11330000Y-58440000D01*
X10720000Y-58000000D01*
G36*
X11330000Y-58440000D02*
G01*
X10720000Y-58000000D01*
X11330000Y-57560000D01*
X11330000Y-58440000D01*
G37*
%TO.C,C6*%
X26238748Y-32265000D02*
X26761252Y-32265000D01*
X26238748Y-33735000D02*
X26761252Y-33735000D01*
%TO.C,R1*%
X13272936Y-22765000D02*
X13727064Y-22765000D01*
X13272936Y-24235000D02*
X13727064Y-24235000D01*
%TO.C,Q1*%
X101470000Y-55850000D02*
X105070000Y-55850000D01*
X101431522Y-55838478D02*
G75*
G02*
X103270000Y-51399999I1838478J1838478D01*
G01*
X103270000Y-51400000D02*
G75*
G02*
X105108478Y-55838478I0J-2600000D01*
G01*
%TO.C,TP1*%
X32200000Y-20000000D02*
G75*
G02*
X29800000Y-20000000I-1200000J0D01*
G01*
X29800000Y-20000000D02*
G75*
G02*
X32200000Y-20000000I1200000J0D01*
G01*
%TO.C,U2*%
X19690000Y-23390000D02*
X24310000Y-23390000D01*
X19690000Y-23590000D02*
X19690000Y-23390000D01*
X19690000Y-28610000D02*
X19690000Y-28410000D01*
X24310000Y-23390000D02*
X24310000Y-23590000D01*
X24310000Y-28410000D02*
X24310000Y-28610000D01*
X24310000Y-28610000D02*
X19690000Y-28610000D01*
X19050000Y-23590000D02*
X18710000Y-23120000D01*
X19390000Y-23120000D01*
X19050000Y-23590000D01*
G36*
X19050000Y-23590000D02*
G01*
X18710000Y-23120000D01*
X19390000Y-23120000D01*
X19050000Y-23590000D01*
G37*
%TO.C,J3*%
X680000Y-17380000D02*
X10720000Y-17380000D01*
X680000Y-27620000D02*
X680000Y-17380000D01*
X3700000Y-27620000D02*
X3700000Y-17380000D01*
X8600000Y-27620000D02*
X8600000Y-17380000D01*
X10100000Y-27620000D02*
X10100000Y-17380000D01*
X10720000Y-17380000D02*
X10720000Y-24700000D01*
X10720000Y-25300000D02*
X10720000Y-27620000D01*
X10720000Y-27620000D02*
X680000Y-27620000D01*
X10720000Y-25000000D02*
X11330000Y-24560000D01*
X11330000Y-25440000D01*
X10720000Y-25000000D01*
G36*
X11330000Y-25440000D02*
G01*
X10720000Y-25000000D01*
X11330000Y-24560000D01*
X11330000Y-25440000D01*
G37*
%TO.C,C1*%
X14288748Y-54640000D02*
X15711252Y-54640000D01*
X14288748Y-57360000D02*
X15711252Y-57360000D01*
%TO.C,RV1*%
X95480000Y-13665000D02*
X100530000Y-13665000D01*
X95480000Y-23415000D02*
X95480000Y-13665000D01*
X100530000Y-13665000D02*
X100530000Y-23415000D01*
X100530000Y-23415000D02*
X95480000Y-23415000D01*
%TO.C,R2*%
X13272936Y-26765000D02*
X13727064Y-26765000D01*
X13272936Y-28235000D02*
X13727064Y-28235000D01*
%TO.C,R6*%
X107772936Y-61265000D02*
X108227064Y-61265000D01*
X107772936Y-62735000D02*
X108227064Y-62735000D01*
%TO.C,C4*%
X70738748Y-23265000D02*
X71261252Y-23265000D01*
X70738748Y-24735000D02*
X71261252Y-24735000D01*
%TO.C,J4*%
X126620000Y-54620000D02*
X128000000Y-54620000D01*
X126620000Y-56000000D02*
X126620000Y-54620000D01*
X126620000Y-57270000D02*
X126620000Y-62460000D01*
X126620000Y-57270000D02*
X129270000Y-57270000D01*
X126620000Y-62460000D02*
X131920000Y-62460000D01*
X129270000Y-54620000D02*
X131920000Y-54620000D01*
X129270000Y-57270000D02*
X129270000Y-54620000D01*
X131920000Y-54620000D02*
X131920000Y-62460000D01*
%TO.C,TP2*%
X32200000Y-23000000D02*
G75*
G02*
X29800000Y-23000000I-1200000J0D01*
G01*
X29800000Y-23000000D02*
G75*
G02*
X32200000Y-23000000I1200000J0D01*
G01*
%TO.C,C5*%
X17238748Y-32265000D02*
X17761252Y-32265000D01*
X17238748Y-33735000D02*
X17761252Y-33735000D01*
%TO.C,C10*%
X64738748Y-23265000D02*
X65261252Y-23265000D01*
X64738748Y-24735000D02*
X65261252Y-24735000D01*
%TO.C,C8*%
X10738748Y-34265000D02*
X11261252Y-34265000D01*
X10738748Y-35735000D02*
X11261252Y-35735000D01*
%TO.C,R4*%
X95772936Y-53265000D02*
X96227064Y-53265000D01*
X95772936Y-54735000D02*
X96227064Y-54735000D01*
%TO.C,C9*%
X19738748Y-35265000D02*
X20261252Y-35265000D01*
X19738748Y-36735000D02*
X20261252Y-36735000D01*
%TO.C,R7*%
X79772936Y-8265000D02*
X80227064Y-8265000D01*
X79772936Y-9735000D02*
X80227064Y-9735000D01*
%TO.C,C7*%
X15238748Y-30265000D02*
X15761252Y-30265000D01*
X15238748Y-31735000D02*
X15761252Y-31735000D01*
%TD*%
%LPC*%
D13*
%TO.C,C2*%
X31525000Y-56000000D03*
X34475000Y-56000000D03*
%TD*%
D14*
%TO.C,H1*%
X4000000Y-4000000D03*
%TD*%
D15*
%TO.C,J5*%
X142000000Y-38000000D03*
D16*
X142000000Y-33000000D03*
X142000000Y-28000000D03*
%TD*%
D17*
%TO.C,R5*%
X98087500Y-60000000D03*
X99912500Y-60000000D03*
%TD*%
D18*
%TO.C,FID3*%
X140000000Y-62000000D03*
%TD*%
D19*
%TO.C,K1*%
X112000000Y-38000000D03*
D20*
X113950000Y-44050000D03*
D19*
X126150000Y-44050000D03*
X126200000Y-32000000D03*
D20*
X113950000Y-32050000D03*
%TD*%
D21*
%TO.C,D2*%
X116000000Y-62000000D03*
D22*
X118540000Y-62000000D03*
%TD*%
D18*
%TO.C,FID2*%
X140000000Y-8000000D03*
%TD*%
D14*
%TO.C,H4*%
X146000000Y-66000000D03*
%TD*%
D17*
%TO.C,R3*%
X64087500Y-50000000D03*
X65912500Y-50000000D03*
%TD*%
D23*
%TO.C,J2*%
X35000000Y-7000000D03*
D24*
X37540000Y-7000000D03*
X40080000Y-7000000D03*
X42620000Y-7000000D03*
X45160000Y-7000000D03*
X47700000Y-7000000D03*
X50240000Y-7000000D03*
X52780000Y-7000000D03*
X55320000Y-7000000D03*
X57860000Y-7000000D03*
X60400000Y-7000000D03*
X62940000Y-7000000D03*
X65480000Y-7000000D03*
X68020000Y-7000000D03*
X70560000Y-7000000D03*
X73100000Y-7000000D03*
%TD*%
D25*
%TO.C,D1*%
X109000000Y-49000000D03*
D26*
X116620000Y-49000000D03*
%TD*%
D27*
%TO.C,U1*%
X45000000Y-45000000D03*
D28*
X47540000Y-45000000D03*
X50080000Y-45000000D03*
X52620000Y-45000000D03*
X55160000Y-45000000D03*
X57700000Y-45000000D03*
X60240000Y-45000000D03*
X62780000Y-45000000D03*
X65320000Y-45000000D03*
X67860000Y-45000000D03*
X70400000Y-45000000D03*
X72940000Y-45000000D03*
X75480000Y-45000000D03*
X78020000Y-45000000D03*
X80560000Y-45000000D03*
X83100000Y-45000000D03*
X85640000Y-45000000D03*
X88180000Y-45000000D03*
X90720000Y-45000000D03*
X93260000Y-45000000D03*
X93260000Y-29760000D03*
X90720000Y-29760000D03*
X88180000Y-29760000D03*
X85640000Y-29760000D03*
X83100000Y-29760000D03*
X80560000Y-29760000D03*
X78020000Y-29760000D03*
X75480000Y-29760000D03*
X72940000Y-29760000D03*
X70400000Y-29760000D03*
X67860000Y-29760000D03*
X65320000Y-29760000D03*
X62780000Y-29760000D03*
X60240000Y-29760000D03*
X57700000Y-29760000D03*
X55160000Y-29760000D03*
X52620000Y-29760000D03*
X50080000Y-29760000D03*
X47540000Y-29760000D03*
X45000000Y-29760000D03*
%TD*%
D29*
%TO.C,C3*%
X75050000Y-50000000D03*
X76950000Y-50000000D03*
%TD*%
D30*
%TO.C,U3*%
X20850000Y-54700000D03*
X20850000Y-57000000D03*
D31*
X27150000Y-57000000D03*
D30*
X20850000Y-59300000D03*
%TD*%
D15*
%TO.C,J1*%
X6000000Y-58000000D03*
D16*
X6000000Y-53000000D03*
%TD*%
D29*
%TO.C,C6*%
X25550000Y-33000000D03*
X27450000Y-33000000D03*
%TD*%
D17*
%TO.C,R1*%
X12587500Y-23500000D03*
X14412500Y-23500000D03*
%TD*%
D32*
%TO.C,Q1*%
X102000000Y-54000000D03*
D33*
X103270000Y-54000000D03*
X104540000Y-54000000D03*
%TD*%
D18*
%TO.C,TP1*%
X31000000Y-20000000D03*
%TD*%
D34*
%TO.C,U2*%
X19137500Y-24050000D03*
X19137500Y-24700000D03*
X19137500Y-25350000D03*
X19137500Y-26000000D03*
X19137500Y-26650000D03*
X19137500Y-27300000D03*
X19137500Y-27950000D03*
X24862500Y-27950000D03*
X24862500Y-27300000D03*
X24862500Y-26650000D03*
X24862500Y-26000000D03*
X24862500Y-25350000D03*
X24862500Y-24700000D03*
X24862500Y-24050000D03*
%TD*%
D14*
%TO.C,H3*%
X4000000Y-66000000D03*
%TD*%
D15*
%TO.C,J3*%
X6000000Y-25000000D03*
D16*
X6000000Y-20000000D03*
%TD*%
D13*
%TO.C,C1*%
X13525000Y-56000000D03*
X16475000Y-56000000D03*
%TD*%
D35*
%TO.C,RV1*%
X98000000Y-16000000D03*
X98000000Y-18540000D03*
X98000000Y-21080000D03*
%TD*%
D17*
%TO.C,R2*%
X12587500Y-27500000D03*
X14412500Y-27500000D03*
%TD*%
%TO.C,R6*%
X107087500Y-62000000D03*
X108912500Y-62000000D03*
%TD*%
D29*
%TO.C,C4*%
X70050000Y-24000000D03*
X71950000Y-24000000D03*
%TD*%
D18*
%TO.C,FID1*%
X10000000Y-8000000D03*
%TD*%
D23*
%TO.C,J4*%
X128000000Y-56000000D03*
D24*
X130540000Y-56000000D03*
X128000000Y-58540000D03*
X130540000Y-58540000D03*
X128000000Y-61080000D03*
X130540000Y-61080000D03*
%TD*%
D18*
%TO.C,TP2*%
X31000000Y-23000000D03*
%TD*%
D29*
%TO.C,C5*%
X16550000Y-33000000D03*
X18450000Y-33000000D03*
%TD*%
%TO.C,C10*%
X64050000Y-24000000D03*
X65950000Y-24000000D03*
%TD*%
%TO.C,C8*%
X10050000Y-35000000D03*
X11950000Y-35000000D03*
%TD*%
D14*
%TO.C,H2*%
X146000000Y-4000000D03*
%TD*%
D17*
%TO.C,R4*%
X95087500Y-54000000D03*
X96912500Y-54000000D03*
%TD*%
D29*
%TO.C,C9*%
X19050000Y-36000000D03*
X20950000Y-36000000D03*
%TD*%
D17*
%TO.C,R7*%
X79087500Y-9000000D03*
X80912500Y-9000000D03*
%TD*%
D29*
%TO.C,C7*%
X14550000Y-31000000D03*
X16450000Y-31000000D03*
%TD*%
%LPD*%
M02*
