%TF.GenerationSoftware,KiCad,Pcbnew,10.0.3*%
%TF.CreationDate,2026-09-01T20:46:57+03:00*%
%TF.ProjectId,thermocouple_meter,74686572-6d6f-4636-9f75-706c655f6d65,rev?*%
%TF.SameCoordinates,Original*%
%TF.FileFunction,Soldermask,Top*%
%TF.FilePolarity,Negative*%
%FSLAX46Y46*%
G04 Gerber Fmt 4.6, Leading zero omitted, Abs format (unit mm)*
G04 Created by KiCad (PCBNEW 10.0.3) date 2026-09-01 20:46:57*
%MOMM*%
%LPD*%
G01*
G04 APERTURE LIST*
G04 Aperture macros list*
%AMRoundRect*
0 Rectangle with rounded corners*
0 $1 Rounding radius*
0 $2 $3 $4 $5 $6 $7 $8 $9 X,Y pos of 4 corners*
0 Add a 4 corners polygon primitive as box body*
4,1,4,$2,$3,$4,$5,$6,$7,$8,$9,$2,$3,0*
0 Add four circle primitives for the rounded corners*
1,1,$1+$1,$2,$3*
1,1,$1+$1,$4,$5*
1,1,$1+$1,$6,$7*
1,1,$1+$1,$8,$9*
0 Add four rect primitives between the rounded corners*
20,1,$1+$1,$2,$3,$4,$5,0*
20,1,$1+$1,$4,$5,$6,$7,0*
20,1,$1+$1,$6,$7,$8,$9,0*
20,1,$1+$1,$8,$9,$2,$3,0*%
G04 Aperture macros list end*
%ADD10RoundRect,0.250000X-0.325000X-1.100000X0.325000X-1.100000X0.325000X1.100000X-0.325000X1.100000X0*%
%ADD11C,3.200000*%
%ADD12RoundRect,0.250000X1.050000X-1.050000X1.050000X1.050000X-1.050000X1.050000X-1.050000X-1.050000X0*%
%ADD13C,2.600000*%
%ADD14RoundRect,0.250000X-0.262500X-0.450000X0.262500X-0.450000X0.262500X0.450000X-0.262500X0.450000X0*%
%ADD15C,2.000000*%
%ADD16C,3.000000*%
%ADD17C,2.500000*%
%ADD18R,1.800000X1.800000*%
%ADD19C,1.800000*%
%ADD20R,1.700000X1.700000*%
%ADD21C,1.700000*%
%ADD22RoundRect,0.249999X-0.850001X-0.850001X0.850001X-0.850001X0.850001X0.850001X-0.850001X0.850001X0*%
%ADD23C,2.200000*%
%ADD24RoundRect,0.250000X0.550000X-0.550000X0.550000X0.550000X-0.550000X0.550000X-0.550000X-0.550000X0*%
%ADD25C,1.600000*%
%ADD26RoundRect,0.250000X-0.250000X-0.475000X0.250000X-0.475000X0.250000X0.475000X-0.250000X0.475000X0*%
%ADD27RoundRect,0.375000X-0.625000X-0.375000X0.625000X-0.375000X0.625000X0.375000X-0.625000X0.375000X0*%
%ADD28RoundRect,0.500000X-0.500000X-1.400000X0.500000X-1.400000X0.500000X1.400000X-0.500000X1.400000X0*%
%ADD29R,1.050000X1.500000*%
%ADD30O,1.050000X1.500000*%
%ADD31RoundRect,0.100000X-0.637500X-0.100000X0.637500X-0.100000X0.637500X0.100000X-0.637500X0.100000X0*%
%ADD32C,1.440000*%
G04 APERTURE END LIST*
D10*
%TO.C,C2*%
X31525000Y-56000000D03*
X34475000Y-56000000D03*
%TD*%
D11*
%TO.C,H1*%
X4000000Y-4000000D03*
%TD*%
D12*
%TO.C,J5*%
X142000000Y-38000000D03*
D13*
X142000000Y-33000000D03*
X142000000Y-28000000D03*
%TD*%
D14*
%TO.C,R5*%
X98087500Y-60000000D03*
X99912500Y-60000000D03*
%TD*%
D15*
%TO.C,FID3*%
X140000000Y-62000000D03*
%TD*%
D16*
%TO.C,K1*%
X112000000Y-38000000D03*
D17*
X113950000Y-44050000D03*
D16*
X126150000Y-44050000D03*
X126200000Y-32000000D03*
D17*
X113950000Y-32050000D03*
%TD*%
D18*
%TO.C,D2*%
X116000000Y-62000000D03*
D19*
X118540000Y-62000000D03*
%TD*%
D15*
%TO.C,FID2*%
X140000000Y-8000000D03*
%TD*%
D11*
%TO.C,H4*%
X146000000Y-66000000D03*
%TD*%
D14*
%TO.C,R3*%
X64087500Y-50000000D03*
X65912500Y-50000000D03*
%TD*%
D20*
%TO.C,J2*%
X35000000Y-7000000D03*
D21*
X37540000Y-7000000D03*
X40080000Y-7000000D03*
X42620000Y-7000000D03*
X45160000Y-7000000D03*
X47700000Y-7000000D03*
X50240000Y-7000000D03*
X52780000Y-7000000D03*
X55320000Y-7000000D03*
X57860000Y-7000000D03*
X60400000Y-7000000D03*
X62940000Y-7000000D03*
X65480000Y-7000000D03*
X68020000Y-7000000D03*
X70560000Y-7000000D03*
X73100000Y-7000000D03*
%TD*%
D22*
%TO.C,D1*%
X109000000Y-49000000D03*
D23*
X116620000Y-49000000D03*
%TD*%
D24*
%TO.C,U1*%
X45000000Y-45000000D03*
D25*
X47540000Y-45000000D03*
X50080000Y-45000000D03*
X52620000Y-45000000D03*
X55160000Y-45000000D03*
X57700000Y-45000000D03*
X60240000Y-45000000D03*
X62780000Y-45000000D03*
X65320000Y-45000000D03*
X67860000Y-45000000D03*
X70400000Y-45000000D03*
X72940000Y-45000000D03*
X75480000Y-45000000D03*
X78020000Y-45000000D03*
X80560000Y-45000000D03*
X83100000Y-45000000D03*
X85640000Y-45000000D03*
X88180000Y-45000000D03*
X90720000Y-45000000D03*
X93260000Y-45000000D03*
X93260000Y-29760000D03*
X90720000Y-29760000D03*
X88180000Y-29760000D03*
X85640000Y-29760000D03*
X83100000Y-29760000D03*
X80560000Y-29760000D03*
X78020000Y-29760000D03*
X75480000Y-29760000D03*
X72940000Y-29760000D03*
X70400000Y-29760000D03*
X67860000Y-29760000D03*
X65320000Y-29760000D03*
X62780000Y-29760000D03*
X60240000Y-29760000D03*
X57700000Y-29760000D03*
X55160000Y-29760000D03*
X52620000Y-29760000D03*
X50080000Y-29760000D03*
X47540000Y-29760000D03*
X45000000Y-29760000D03*
%TD*%
D26*
%TO.C,C3*%
X75050000Y-50000000D03*
X76950000Y-50000000D03*
%TD*%
D27*
%TO.C,U3*%
X20850000Y-54700000D03*
X20850000Y-57000000D03*
D28*
X27150000Y-57000000D03*
D27*
X20850000Y-59300000D03*
%TD*%
D12*
%TO.C,J1*%
X6000000Y-58000000D03*
D13*
X6000000Y-53000000D03*
%TD*%
D26*
%TO.C,C6*%
X25550000Y-33000000D03*
X27450000Y-33000000D03*
%TD*%
D14*
%TO.C,R1*%
X12587500Y-23500000D03*
X14412500Y-23500000D03*
%TD*%
D29*
%TO.C,Q1*%
X102000000Y-54000000D03*
D30*
X103270000Y-54000000D03*
X104540000Y-54000000D03*
%TD*%
D15*
%TO.C,TP1*%
X31000000Y-20000000D03*
%TD*%
D31*
%TO.C,U2*%
X19137500Y-24050000D03*
X19137500Y-24700000D03*
X19137500Y-25350000D03*
X19137500Y-26000000D03*
X19137500Y-26650000D03*
X19137500Y-27300000D03*
X19137500Y-27950000D03*
X24862500Y-27950000D03*
X24862500Y-27300000D03*
X24862500Y-26650000D03*
X24862500Y-26000000D03*
X24862500Y-25350000D03*
X24862500Y-24700000D03*
X24862500Y-24050000D03*
%TD*%
D11*
%TO.C,H3*%
X4000000Y-66000000D03*
%TD*%
D12*
%TO.C,J3*%
X6000000Y-25000000D03*
D13*
X6000000Y-20000000D03*
%TD*%
D10*
%TO.C,C1*%
X13525000Y-56000000D03*
X16475000Y-56000000D03*
%TD*%
D32*
%TO.C,RV1*%
X98000000Y-16000000D03*
X98000000Y-18540000D03*
X98000000Y-21080000D03*
%TD*%
D14*
%TO.C,R2*%
X12587500Y-27500000D03*
X14412500Y-27500000D03*
%TD*%
%TO.C,R6*%
X107087500Y-62000000D03*
X108912500Y-62000000D03*
%TD*%
D26*
%TO.C,C4*%
X70050000Y-24000000D03*
X71950000Y-24000000D03*
%TD*%
D15*
%TO.C,FID1*%
X10000000Y-8000000D03*
%TD*%
D20*
%TO.C,J4*%
X128000000Y-56000000D03*
D21*
X130540000Y-56000000D03*
X128000000Y-58540000D03*
X130540000Y-58540000D03*
X128000000Y-61080000D03*
X130540000Y-61080000D03*
%TD*%
D15*
%TO.C,TP2*%
X31000000Y-23000000D03*
%TD*%
D26*
%TO.C,C5*%
X16550000Y-33000000D03*
X18450000Y-33000000D03*
%TD*%
%TO.C,C10*%
X64050000Y-24000000D03*
X65950000Y-24000000D03*
%TD*%
%TO.C,C8*%
X10050000Y-35000000D03*
X11950000Y-35000000D03*
%TD*%
D11*
%TO.C,H2*%
X146000000Y-4000000D03*
%TD*%
D14*
%TO.C,R4*%
X95087500Y-54000000D03*
X96912500Y-54000000D03*
%TD*%
D26*
%TO.C,C9*%
X19050000Y-36000000D03*
X20950000Y-36000000D03*
%TD*%
D14*
%TO.C,R7*%
X79087500Y-9000000D03*
X80912500Y-9000000D03*
%TD*%
D26*
%TO.C,C7*%
X14550000Y-31000000D03*
X16450000Y-31000000D03*
%TD*%
M02*
