%TF.GenerationSoftware,KiCad,Pcbnew,10.0.3*%
%TF.CreationDate,2026-09-01T20:46:57+03:00*%
%TF.ProjectId,thermocouple_meter,74686572-6d6f-4636-9f75-706c655f6d65,rev?*%
%TF.SameCoordinates,Original*%
%TF.FileFunction,Copper,L1,Top*%
%TF.FilePolarity,Positive*%
%FSLAX46Y46*%
G04 Gerber Fmt 4.6, Leading zero omitted, Abs format (unit mm)*
G04 Created by KiCad (PCBNEW 10.0.3) date 2026-09-01 20:46:57*
%MOMM*%
%LPD*%
G01*
G04 APERTURE LIST*
G04 Aperture macros list*
%AMRoundRect*
0 Rectangle with rounded corners*
0 $1 Rounding radius*
0 $2 $3 $4 $5 $6 $7 $8 $9 X,Y pos of 4 corners*
0 Add a 4 corners polygon primitive as box body*
4,1,4,$2,$3,$4,$5,$6,$7,$8,$9,$2,$3,0*
0 Add four circle primitives for the rounded corners*
1,1,$1+$1,$2,$3*
1,1,$1+$1,$4,$5*
1,1,$1+$1,$6,$7*
1,1,$1+$1,$8,$9*
0 Add four rect primitives between the rounded corners*
20,1,$1+$1,$2,$3,$4,$5,0*
20,1,$1+$1,$4,$5,$6,$7,0*
20,1,$1+$1,$6,$7,$8,$9,0*
20,1,$1+$1,$8,$9,$2,$3,0*%
G04 Aperture macros list end*
%TA.AperFunction,SMDPad,CuDef*%
%ADD10RoundRect,0.250000X-0.325000X-1.100000X0.325000X-1.100000X0.325000X1.100000X-0.325000X1.100000X0*%
%TD*%
%TA.AperFunction,ComponentPad*%
%ADD11RoundRect,0.250000X1.050000X-1.050000X1.050000X1.050000X-1.050000X1.050000X-1.050000X-1.050000X0*%
%TD*%
%TA.AperFunction,ComponentPad*%
%ADD12C,2.600000*%
%TD*%
%TA.AperFunction,SMDPad,CuDef*%
%ADD13RoundRect,0.250000X-0.262500X-0.450000X0.262500X-0.450000X0.262500X0.450000X-0.262500X0.450000X0*%
%TD*%
%TA.AperFunction,SMDPad,CuDef*%
%ADD14C,1.000000*%
%TD*%
%TA.AperFunction,ComponentPad*%
%ADD15C,3.000000*%
%TD*%
%TA.AperFunction,ComponentPad*%
%ADD16C,2.500000*%
%TD*%
%TA.AperFunction,ComponentPad*%
%ADD17R,1.800000X1.800000*%
%TD*%
%TA.AperFunction,ComponentPad*%
%ADD18C,1.800000*%
%TD*%
%TA.AperFunction,ComponentPad*%
%ADD19R,1.700000X1.700000*%
%TD*%
%TA.AperFunction,ComponentPad*%
%ADD20C,1.700000*%
%TD*%
%TA.AperFunction,ComponentPad*%
%ADD21RoundRect,0.249999X-0.850001X-0.850001X0.850001X-0.850001X0.850001X0.850001X-0.850001X0.850001X0*%
%TD*%
%TA.AperFunction,ComponentPad*%
%ADD22C,2.200000*%
%TD*%
%TA.AperFunction,ComponentPad*%
%ADD23RoundRect,0.250000X0.550000X-0.550000X0.550000X0.550000X-0.550000X0.550000X-0.550000X-0.550000X0*%
%TD*%
%TA.AperFunction,ComponentPad*%
%ADD24C,1.600000*%
%TD*%
%TA.AperFunction,SMDPad,CuDef*%
%ADD25RoundRect,0.250000X-0.250000X-0.475000X0.250000X-0.475000X0.250000X0.475000X-0.250000X0.475000X0*%
%TD*%
%TA.AperFunction,SMDPad,CuDef*%
%ADD26RoundRect,0.375000X-0.625000X-0.375000X0.625000X-0.375000X0.625000X0.375000X-0.625000X0.375000X0*%
%TD*%
%TA.AperFunction,SMDPad,CuDef*%
%ADD27RoundRect,0.500000X-0.500000X-1.400000X0.500000X-1.400000X0.500000X1.400000X-0.500000X1.400000X0*%
%TD*%
%TA.AperFunction,ComponentPad*%
%ADD28R,1.050000X1.500000*%
%TD*%
%TA.AperFunction,ComponentPad*%
%ADD29O,1.050000X1.500000*%
%TD*%
%TA.AperFunction,ComponentPad*%
%ADD30C,2.000000*%
%TD*%
%TA.AperFunction,SMDPad,CuDef*%
%ADD31RoundRect,0.100000X-0.637500X-0.100000X0.637500X-0.100000X0.637500X0.100000X-0.637500X0.100000X0*%
%TD*%
%TA.AperFunction,ComponentPad*%
%ADD32C,1.440000*%
%TD*%
%TA.AperFunction,ViaPad*%
%ADD33C,0.600000*%
%TD*%
%TA.AperFunction,Conductor*%
%ADD34C,0.250000*%
%TD*%
%TA.AperFunction,Conductor*%
%ADD35C,0.500000*%
%TD*%
%TA.AperFunction,Conductor*%
%ADD36C,1.000000*%
%TD*%
G04 APERTURE END LIST*
D10*
%TO.P,C2,1*%
%TO.N,+3V3*%
X31525000Y-56000000D03*
%TO.P,C2,2*%
%TO.N,GND*%
X34475000Y-56000000D03*
%TD*%
D11*
%TO.P,J5,1*%
%TO.N,RELAY_COM*%
X142000000Y-38000000D03*
D12*
%TO.P,J5,2*%
%TO.N,RELAY_NO*%
X142000000Y-33000000D03*
%TO.P,J5,3*%
%TO.N,RELAY_NC*%
X142000000Y-28000000D03*
%TD*%
D13*
%TO.P,R5,1*%
%TO.N,ALARM_BASE*%
X98087500Y-60000000D03*
%TO.P,R5,2*%
%TO.N,GND*%
X99912500Y-60000000D03*
%TD*%
D14*
%TO.P,FID3,*%
%TO.N,*%
X140000000Y-62000000D03*
%TD*%
D15*
%TO.P,K1,1*%
%TO.N,RELAY_COM*%
X112000000Y-38000000D03*
D16*
%TO.P,K1,2*%
%TO.N,+5V*%
X113950000Y-44050000D03*
D15*
%TO.P,K1,3*%
%TO.N,RELAY_NO*%
X126150000Y-44050000D03*
%TO.P,K1,4*%
%TO.N,RELAY_NC*%
X126200000Y-32000000D03*
D16*
%TO.P,K1,5*%
%TO.N,RELAY_LOW*%
X113950000Y-32050000D03*
%TD*%
D17*
%TO.P,D2,1*%
%TO.N,GND*%
X116000000Y-62000000D03*
D18*
%TO.P,D2,2*%
%TO.N,ALARM_LED_A*%
X118540000Y-62000000D03*
%TD*%
D14*
%TO.P,FID2,*%
%TO.N,*%
X140000000Y-8000000D03*
%TD*%
D13*
%TO.P,R3,1*%
%TO.N,+3V3*%
X64087500Y-50000000D03*
%TO.P,R3,2*%
%TO.N,RESET*%
X65912500Y-50000000D03*
%TD*%
D19*
%TO.P,J2,1*%
%TO.N,GND*%
X35000000Y-7000000D03*
D20*
%TO.P,J2,2*%
%TO.N,+5V*%
X37540000Y-7000000D03*
%TO.P,J2,3*%
%TO.N,LCD_VO*%
X40080000Y-7000000D03*
%TO.P,J2,4*%
%TO.N,LCD_RS*%
X42620000Y-7000000D03*
%TO.P,J2,5*%
%TO.N,GND*%
X45160000Y-7000000D03*
%TO.P,J2,6*%
%TO.N,LCD_E*%
X47700000Y-7000000D03*
%TO.P,J2,7*%
%TO.N,N/C*%
X50240000Y-7000000D03*
%TO.P,J2,8*%
X52780000Y-7000000D03*
%TO.P,J2,9*%
X55320000Y-7000000D03*
%TO.P,J2,10*%
X57860000Y-7000000D03*
%TO.P,J2,11*%
%TO.N,LCD_D4*%
X60400000Y-7000000D03*
%TO.P,J2,12*%
%TO.N,LCD_D5*%
X62940000Y-7000000D03*
%TO.P,J2,13*%
%TO.N,LCD_D6*%
X65480000Y-7000000D03*
%TO.P,J2,14*%
%TO.N,LCD_D7*%
X68020000Y-7000000D03*
%TO.P,J2,15*%
%TO.N,LCD_LED_A*%
X70560000Y-7000000D03*
%TO.P,J2,16*%
%TO.N,GND*%
X73100000Y-7000000D03*
%TD*%
D21*
%TO.P,D1,1*%
%TO.N,+5V*%
X109000000Y-49000000D03*
D22*
%TO.P,D1,2*%
%TO.N,RELAY_LOW*%
X116620000Y-49000000D03*
%TD*%
D23*
%TO.P,U1,1*%
%TO.N,N/C*%
X45000000Y-45000000D03*
D24*
%TO.P,U1,2*%
X47540000Y-45000000D03*
%TO.P,U1,3*%
X50080000Y-45000000D03*
%TO.P,U1,4*%
%TO.N,ALARM_GPIO*%
X52620000Y-45000000D03*
%TO.P,U1,5*%
%TO.N,SPI_CS*%
X55160000Y-45000000D03*
%TO.P,U1,6*%
%TO.N,SPI_MOSI*%
X57700000Y-45000000D03*
%TO.P,U1,7*%
%TO.N,SPI_MISO*%
X60240000Y-45000000D03*
%TO.P,U1,8*%
%TO.N,SPI_SCK*%
X62780000Y-45000000D03*
%TO.P,U1,9*%
%TO.N,RESET*%
X65320000Y-45000000D03*
%TO.P,U1,10*%
%TO.N,+3V3*%
X67860000Y-45000000D03*
%TO.P,U1,11*%
%TO.N,GND*%
X70400000Y-45000000D03*
%TO.P,U1,12*%
%TO.N,N/C*%
X72940000Y-45000000D03*
%TO.P,U1,13*%
X75480000Y-45000000D03*
%TO.P,U1,14*%
X78020000Y-45000000D03*
%TO.P,U1,15*%
X80560000Y-45000000D03*
%TO.P,U1,16*%
X83100000Y-45000000D03*
%TO.P,U1,17*%
X85640000Y-45000000D03*
%TO.P,U1,18*%
X88180000Y-45000000D03*
%TO.P,U1,19*%
X90720000Y-45000000D03*
%TO.P,U1,20*%
X93260000Y-45000000D03*
%TO.P,U1,21*%
X93260000Y-29760000D03*
%TO.P,U1,22*%
X90720000Y-29760000D03*
%TO.P,U1,23*%
X88180000Y-29760000D03*
%TO.P,U1,24*%
X85640000Y-29760000D03*
%TO.P,U1,25*%
X83100000Y-29760000D03*
%TO.P,U1,26*%
X80560000Y-29760000D03*
%TO.P,U1,27*%
X78020000Y-29760000D03*
%TO.P,U1,28*%
X75480000Y-29760000D03*
%TO.P,U1,29*%
X72940000Y-29760000D03*
%TO.P,U1,30*%
%TO.N,+3V3*%
X70400000Y-29760000D03*
%TO.P,U1,31*%
%TO.N,GND*%
X67860000Y-29760000D03*
%TO.P,U1,32*%
%TO.N,AREF*%
X65320000Y-29760000D03*
%TO.P,U1,33*%
%TO.N,LCD_D7*%
X62780000Y-29760000D03*
%TO.P,U1,34*%
%TO.N,LCD_D6*%
X60240000Y-29760000D03*
%TO.P,U1,35*%
%TO.N,LCD_D5*%
X57700000Y-29760000D03*
%TO.P,U1,36*%
%TO.N,LCD_D4*%
X55160000Y-29760000D03*
%TO.P,U1,37*%
%TO.N,N/C*%
X52620000Y-29760000D03*
%TO.P,U1,38*%
X50080000Y-29760000D03*
%TO.P,U1,39*%
%TO.N,LCD_E*%
X47540000Y-29760000D03*
%TO.P,U1,40*%
%TO.N,LCD_RS*%
X45000000Y-29760000D03*
%TD*%
D25*
%TO.P,C3,1*%
%TO.N,+3V3*%
X75050000Y-50000000D03*
%TO.P,C3,2*%
%TO.N,GND*%
X76950000Y-50000000D03*
%TD*%
D26*
%TO.P,U3,1*%
%TO.N,GND*%
X20850000Y-54700000D03*
%TO.P,U3,2*%
%TO.N,+3V3*%
X20850000Y-57000000D03*
D27*
%TO.N,N/C*%
X27150000Y-57000000D03*
D26*
%TO.P,U3,3*%
%TO.N,+5V*%
X20850000Y-59300000D03*
%TD*%
D11*
%TO.P,J1,1*%
%TO.N,+5V*%
X6000000Y-58000000D03*
D12*
%TO.P,J1,2*%
%TO.N,GND*%
X6000000Y-53000000D03*
%TD*%
D25*
%TO.P,C6,1*%
%TO.N,+3V3*%
X25550000Y-33000000D03*
%TO.P,C6,2*%
%TO.N,GND*%
X27450000Y-33000000D03*
%TD*%
D13*
%TO.P,R1,1*%
%TO.N,TC_RAW_PLUS*%
X12587500Y-23500000D03*
%TO.P,R1,2*%
%TO.N,TC_PLUS*%
X14412500Y-23500000D03*
%TD*%
D28*
%TO.P,Q1,1*%
%TO.N,GND*%
X102000000Y-54000000D03*
D29*
%TO.P,Q1,2*%
%TO.N,ALARM_BASE*%
X103270000Y-54000000D03*
%TO.P,Q1,3*%
%TO.N,RELAY_LOW*%
X104540000Y-54000000D03*
%TD*%
D30*
%TO.P,TP1,1*%
%TO.N,MAX_DRDY*%
X31000000Y-20000000D03*
%TD*%
D31*
%TO.P,U2,1*%
%TO.N,GND*%
X19137500Y-24050000D03*
%TO.P,U2,2*%
%TO.N,TC_MINUS*%
X19137500Y-24700000D03*
%TO.P,U2,3*%
X19137500Y-25350000D03*
%TO.P,U2,4*%
%TO.N,TC_PLUS*%
X19137500Y-26000000D03*
%TO.P,U2,5*%
%TO.N,+3V3*%
X19137500Y-26650000D03*
%TO.P,U2,6*%
%TO.N,N/C*%
X19137500Y-27300000D03*
%TO.P,U2,7*%
%TO.N,MAX_DRDY*%
X19137500Y-27950000D03*
%TO.P,U2,8*%
%TO.N,+3V3*%
X24862500Y-27950000D03*
%TO.P,U2,9*%
%TO.N,SPI_CS*%
X24862500Y-27300000D03*
%TO.P,U2,10*%
%TO.N,SPI_SCK*%
X24862500Y-26650000D03*
%TO.P,U2,11*%
%TO.N,SPI_MISO*%
X24862500Y-26000000D03*
%TO.P,U2,12*%
%TO.N,SPI_MOSI*%
X24862500Y-25350000D03*
%TO.P,U2,13*%
%TO.N,MAX_FAULT*%
X24862500Y-24700000D03*
%TO.P,U2,14*%
%TO.N,GND*%
X24862500Y-24050000D03*
%TD*%
D11*
%TO.P,J3,1*%
%TO.N,TC_RAW_PLUS*%
X6000000Y-25000000D03*
D12*
%TO.P,J3,2*%
%TO.N,TC_RAW_MINUS*%
X6000000Y-20000000D03*
%TD*%
D10*
%TO.P,C1,1*%
%TO.N,+5V*%
X13525000Y-56000000D03*
%TO.P,C1,2*%
%TO.N,GND*%
X16475000Y-56000000D03*
%TD*%
D32*
%TO.P,RV1,1*%
%TO.N,GND*%
X98000000Y-16000000D03*
%TO.P,RV1,2*%
%TO.N,LCD_VO*%
X98000000Y-18540000D03*
%TO.P,RV1,3*%
%TO.N,+5V*%
X98000000Y-21080000D03*
%TD*%
D13*
%TO.P,R2,1*%
%TO.N,TC_RAW_MINUS*%
X12587500Y-27500000D03*
%TO.P,R2,2*%
%TO.N,TC_MINUS*%
X14412500Y-27500000D03*
%TD*%
%TO.P,R6,1*%
%TO.N,ALARM_GPIO*%
X107087500Y-62000000D03*
%TO.P,R6,2*%
%TO.N,ALARM_LED_A*%
X108912500Y-62000000D03*
%TD*%
D25*
%TO.P,C4,1*%
%TO.N,+3V3*%
X70050000Y-24000000D03*
%TO.P,C4,2*%
%TO.N,GND*%
X71950000Y-24000000D03*
%TD*%
D14*
%TO.P,FID1,*%
%TO.N,*%
X10000000Y-8000000D03*
%TD*%
D19*
%TO.P,J4,1*%
%TO.N,SPI_MISO*%
X128000000Y-56000000D03*
D20*
%TO.P,J4,2*%
%TO.N,+3V3*%
X130540000Y-56000000D03*
%TO.P,J4,3*%
%TO.N,SPI_SCK*%
X128000000Y-58540000D03*
%TO.P,J4,4*%
%TO.N,SPI_MOSI*%
X130540000Y-58540000D03*
%TO.P,J4,5*%
%TO.N,RESET*%
X128000000Y-61080000D03*
%TO.P,J4,6*%
%TO.N,GND*%
X130540000Y-61080000D03*
%TD*%
D30*
%TO.P,TP2,1*%
%TO.N,MAX_FAULT*%
X31000000Y-23000000D03*
%TD*%
D25*
%TO.P,C5,1*%
%TO.N,+3V3*%
X16550000Y-33000000D03*
%TO.P,C5,2*%
%TO.N,GND*%
X18450000Y-33000000D03*
%TD*%
%TO.P,C10,1*%
%TO.N,AREF*%
X64050000Y-24000000D03*
%TO.P,C10,2*%
%TO.N,GND*%
X65950000Y-24000000D03*
%TD*%
%TO.P,C8,1*%
%TO.N,TC_PLUS*%
X10050000Y-35000000D03*
%TO.P,C8,2*%
%TO.N,GND*%
X11950000Y-35000000D03*
%TD*%
D13*
%TO.P,R4,1*%
%TO.N,ALARM_GPIO*%
X95087500Y-54000000D03*
%TO.P,R4,2*%
%TO.N,ALARM_BASE*%
X96912500Y-54000000D03*
%TD*%
D25*
%TO.P,C9,1*%
%TO.N,TC_MINUS*%
X19050000Y-36000000D03*
%TO.P,C9,2*%
%TO.N,GND*%
X20950000Y-36000000D03*
%TD*%
D13*
%TO.P,R7,1*%
%TO.N,+5V*%
X79087500Y-9000000D03*
%TO.P,R7,2*%
%TO.N,LCD_LED_A*%
X80912500Y-9000000D03*
%TD*%
D25*
%TO.P,C7,1*%
%TO.N,TC_PLUS*%
X14550000Y-31000000D03*
%TO.P,C7,2*%
%TO.N,TC_MINUS*%
X16450000Y-31000000D03*
%TD*%
D33*
%TO.N,GND*%
X116000000Y-64500000D03*
X20500000Y-30500000D03*
X26500000Y-23500000D03*
X65000000Y-57500000D03*
X35000000Y-33000000D03*
X71500000Y-43500000D03*
X67000000Y-27500000D03*
X102000000Y-57500000D03*
X14000000Y-34500000D03*
X72000000Y-27500000D03*
X78500000Y-47500000D03*
X69000000Y-27500000D03*
X35000000Y-58000000D03*
X19000000Y-53000000D03*
X64000000Y-45500000D03*
X19500000Y-23500000D03*
%TO.N,+5V*%
X19000000Y-59500000D03*
X77500000Y-21000000D03*
%TO.N,+3V3*%
X68000000Y-47500000D03*
X60000000Y-43500000D03*
X70500000Y-28500000D03*
%TO.N,RESET*%
X120000000Y-57000000D03*
X67000000Y-50000000D03*
%TO.N,SPI_MOSI*%
X56500000Y-25000000D03*
X61000000Y-46500000D03*
%TO.N,SPI_MISO*%
X59000000Y-25500000D03*
%TO.N,TC_RAW_MINUS*%
X11000000Y-24500000D03*
%TO.N,TC_MINUS*%
X17500000Y-25000000D03*
X16000000Y-27500000D03*
%TO.N,LCD_RS*%
X42500000Y-24500000D03*
%TO.N,LCD_E*%
X47500000Y-24500000D03*
%TO.N,LCD_D4*%
X55000000Y-24500000D03*
%TO.N,LCD_D5*%
X63000000Y-23000000D03*
%TO.N,LCD_D6*%
X65000000Y-23000000D03*
%TO.N,ALARM_GPIO*%
X61000000Y-54000000D03*
X93500000Y-57000000D03*
X93500000Y-54000000D03*
%TO.N,ALARM_BASE*%
X98500000Y-54000000D03*
X96500000Y-57000000D03*
%TO.N,RELAY_LOW*%
X121000000Y-54000000D03*
%TD*%
%TO.N,GND*%
D34*
X44500000Y-64000000D02*
X44000000Y-64000000D01*
X18000000Y-55500000D02*
X18000000Y-55000000D01*
X67500000Y-26000000D02*
X67500000Y-26500000D01*
X126500000Y-64000000D02*
X126000000Y-64000000D01*
X73500000Y-24500000D02*
X73500000Y-25000000D01*
X39000000Y-64000000D02*
X38500000Y-64000000D01*
X72500000Y-64000000D02*
X72000000Y-64000000D01*
X59000000Y-64000000D02*
X58500000Y-64000000D01*
X106000000Y-60500000D02*
X106500000Y-60500000D01*
X105500000Y-64000000D02*
X105000000Y-64000000D01*
X101500000Y-64000000D02*
X101000000Y-64000000D01*
X80000000Y-16000000D02*
X79500000Y-16000000D01*
X65000000Y-62000000D02*
X65000000Y-62500000D01*
X36500000Y-64000000D02*
X36000000Y-64000000D01*
X102500000Y-64000000D02*
X102000000Y-64000000D01*
X68000000Y-30000000D02*
X68000000Y-30500000D01*
X82000000Y-16000000D02*
X81500000Y-16000000D01*
X42500000Y-64000000D02*
X42000000Y-64000000D01*
X73500000Y-27000000D02*
X73500000Y-27500000D01*
X67500000Y-24000000D02*
X67500000Y-24500000D01*
X130000000Y-64000000D02*
X129500000Y-64000000D01*
X96500000Y-64000000D02*
X96000000Y-64000000D01*
X68000000Y-32500000D02*
X68000000Y-33000000D01*
X102000000Y-59500000D02*
X102000000Y-60000000D01*
X89000000Y-64000000D02*
X88500000Y-64000000D01*
X125000000Y-64000000D02*
X124500000Y-64000000D01*
X68000000Y-31500000D02*
X68000000Y-32000000D01*
X68000000Y-41500000D02*
X68000000Y-42000000D01*
X81500000Y-64000000D02*
X81000000Y-64000000D01*
X79500000Y-64000000D02*
X79000000Y-64000000D01*
X20500000Y-32000000D02*
X20500000Y-31500000D01*
X35000000Y-57500000D02*
X35000000Y-58000000D01*
X85500000Y-16000000D02*
X85000000Y-16000000D01*
X75000000Y-24000000D02*
X74500000Y-24000000D01*
X35500000Y-56000000D02*
X35000000Y-56000000D01*
X27450000Y-33000000D02*
X29000000Y-33000000D01*
X106000000Y-64000000D02*
X105500000Y-64000000D01*
X49500000Y-64000000D02*
X49000000Y-64000000D01*
X108000000Y-64000000D02*
X107500000Y-64000000D01*
X68000000Y-37500000D02*
X68000000Y-38000000D01*
X68000000Y-35500000D02*
X68000000Y-36000000D01*
X90000000Y-64000000D02*
X89500000Y-64000000D01*
X20500000Y-35500000D02*
X20500000Y-35000000D01*
X130500000Y-63500000D02*
X130500000Y-64000000D01*
X112000000Y-64000000D02*
X111500000Y-64000000D01*
X40500000Y-64000000D02*
X40000000Y-64000000D01*
X36000000Y-56000000D02*
X35500000Y-56000000D01*
X18000000Y-55000000D02*
X18000000Y-54500000D01*
X108000000Y-62500000D02*
X108000000Y-63000000D01*
X68000000Y-34500000D02*
X68000000Y-35000000D01*
X35000000Y-56500000D02*
X35000000Y-57000000D01*
X94000000Y-64000000D02*
X93500000Y-64000000D01*
X92000000Y-16000000D02*
X91500000Y-16000000D01*
X65000000Y-58000000D02*
X65000000Y-58500000D01*
X51000000Y-64000000D02*
X50500000Y-64000000D01*
X35000000Y-61500000D02*
X35000000Y-61000000D01*
X61000000Y-64000000D02*
X60500000Y-64000000D01*
X95500000Y-64000000D02*
X95000000Y-64000000D01*
X37000000Y-64000000D02*
X36500000Y-64000000D01*
X68500000Y-28000000D02*
X68500000Y-28500000D01*
X62500000Y-64000000D02*
X62000000Y-64000000D01*
X35000000Y-59500000D02*
X35000000Y-59000000D01*
X89000000Y-16000000D02*
X88500000Y-16000000D01*
X95000000Y-64000000D02*
X94500000Y-64000000D01*
X107500000Y-64000000D02*
X107000000Y-64000000D01*
X19000000Y-54500000D02*
X19000000Y-54000000D01*
X89500000Y-64000000D02*
X89000000Y-64000000D01*
X73500000Y-25500000D02*
X73500000Y-26000000D01*
X60500000Y-64000000D02*
X60000000Y-64000000D01*
X68000000Y-64000000D02*
X67500000Y-64000000D01*
X41000000Y-64000000D02*
X40500000Y-64000000D01*
X65000000Y-61000000D02*
X65000000Y-61500000D01*
X21000000Y-36000000D02*
X20500000Y-36000000D01*
X70000000Y-64000000D02*
X69500000Y-64000000D01*
X102000000Y-60500000D02*
X102500000Y-60500000D01*
X107000000Y-64000000D02*
X106500000Y-64000000D01*
X51500000Y-64000000D02*
X51000000Y-64000000D01*
X64000000Y-64000000D02*
X63500000Y-64000000D01*
X74000000Y-24000000D02*
X73500000Y-24000000D01*
X35000000Y-62000000D02*
X35000000Y-61500000D01*
X78500000Y-48000000D02*
X78500000Y-47500000D01*
X78500000Y-16500000D02*
X78500000Y-17000000D01*
X97000000Y-16000000D02*
X96500000Y-16000000D01*
X49000000Y-64000000D02*
X48500000Y-64000000D01*
X57000000Y-64000000D02*
X56500000Y-64000000D01*
X78500000Y-23500000D02*
X78500000Y-24000000D01*
X128500000Y-64000000D02*
X128000000Y-64000000D01*
X105500000Y-60500000D02*
X106000000Y-60500000D01*
X82500000Y-16000000D02*
X82000000Y-16000000D01*
X73000000Y-64000000D02*
X72500000Y-64000000D01*
X73500000Y-26000000D02*
X73500000Y-26500000D01*
X75500000Y-24000000D02*
X75000000Y-24000000D01*
X68000000Y-39000000D02*
X68000000Y-39500000D01*
X20500000Y-34500000D02*
X20500000Y-34000000D01*
X111000000Y-64000000D02*
X110500000Y-64000000D01*
X78000000Y-64000000D02*
X77500000Y-64000000D01*
X119500000Y-64000000D02*
X119000000Y-64000000D01*
X40000000Y-64000000D02*
X39500000Y-64000000D01*
X35000000Y-64000000D02*
X35000000Y-63500000D01*
X109000000Y-64000000D02*
X108500000Y-64000000D01*
X104000000Y-64000000D02*
X103500000Y-64000000D01*
X98000000Y-64000000D02*
X97500000Y-64000000D01*
X34500000Y-33000000D02*
X35000000Y-33000000D01*
X64500000Y-43500000D02*
X64000000Y-43500000D01*
X99912500Y-60000000D02*
X101500000Y-60000000D01*
X37500000Y-64000000D02*
X37000000Y-64000000D01*
X64000000Y-45000000D02*
X64000000Y-45500000D01*
X20950000Y-36000000D02*
X22500000Y-36000000D01*
X120500000Y-64000000D02*
X120000000Y-64000000D01*
X65000000Y-63000000D02*
X65000000Y-63500000D01*
X122500000Y-64000000D02*
X122000000Y-64000000D01*
X21500000Y-36000000D02*
X21000000Y-36000000D01*
X68000000Y-36000000D02*
X68000000Y-36500000D01*
X64000000Y-44500000D02*
X64000000Y-45000000D01*
X67500000Y-24500000D02*
X67500000Y-25000000D01*
X50000000Y-64000000D02*
X49500000Y-64000000D01*
X53500000Y-64000000D02*
X53000000Y-64000000D01*
X65000000Y-61500000D02*
X65000000Y-62000000D01*
X13500000Y-34500000D02*
X14000000Y-34500000D01*
X107500000Y-60500000D02*
X108000000Y-60500000D01*
X22500000Y-36000000D02*
X22000000Y-36000000D01*
X70500000Y-43500000D02*
X70000000Y-43500000D01*
X123500000Y-64000000D02*
X123000000Y-64000000D01*
X89500000Y-16000000D02*
X89000000Y-16000000D01*
X77000000Y-24000000D02*
X76500000Y-24000000D01*
X76950000Y-50000000D02*
X78500000Y-50000000D01*
X76000000Y-64000000D02*
X75500000Y-64000000D01*
X20000000Y-33000000D02*
X20500000Y-33000000D01*
X80500000Y-16000000D02*
X80000000Y-16000000D01*
X65000000Y-58500000D02*
X65000000Y-59000000D01*
X68000000Y-42500000D02*
X68000000Y-43000000D01*
X70500000Y-45000000D02*
X70500000Y-44500000D01*
X68500000Y-64000000D02*
X68000000Y-64000000D01*
X67500000Y-25000000D02*
X67500000Y-25500000D01*
X35000000Y-61000000D02*
X35000000Y-60500000D01*
X101500000Y-60000000D02*
X102000000Y-60000000D01*
X20500000Y-33500000D02*
X20500000Y-33000000D01*
X78500000Y-20000000D02*
X78500000Y-20500000D01*
X80000000Y-64000000D02*
X79500000Y-64000000D01*
X17500000Y-24000000D02*
X17500000Y-23500000D01*
X68000000Y-42000000D02*
X68000000Y-42500000D01*
X102000000Y-58000000D02*
X102000000Y-58500000D01*
X88000000Y-64000000D02*
X87500000Y-64000000D01*
X70000000Y-43500000D02*
X69500000Y-43500000D01*
X65500000Y-43500000D02*
X65000000Y-43500000D01*
X78500000Y-64000000D02*
X78000000Y-64000000D01*
X57500000Y-64000000D02*
X57000000Y-64000000D01*
X78500000Y-19000000D02*
X78500000Y-19500000D01*
X111500000Y-64000000D02*
X111000000Y-64000000D01*
X58000000Y-64000000D02*
X57500000Y-64000000D01*
X105000000Y-60500000D02*
X105500000Y-60500000D01*
X19137500Y-24050000D02*
X17500000Y-24000000D01*
X54500000Y-64000000D02*
X54000000Y-64000000D01*
X43500000Y-64000000D02*
X43000000Y-64000000D01*
X74500000Y-64000000D02*
X74000000Y-64000000D01*
X71500000Y-43500000D02*
X71000000Y-43500000D01*
X35000000Y-59000000D02*
X35000000Y-58500000D01*
X124500000Y-64000000D02*
X124000000Y-64000000D01*
X119000000Y-64000000D02*
X118500000Y-64000000D01*
X46500000Y-64000000D02*
X46000000Y-64000000D01*
X115500000Y-64000000D02*
X115000000Y-64000000D01*
X62000000Y-64000000D02*
X61500000Y-64000000D01*
X24862500Y-24050000D02*
X26500000Y-24000000D01*
X72500000Y-27500000D02*
X72000000Y-27500000D01*
X43000000Y-64000000D02*
X42500000Y-64000000D01*
X124000000Y-64000000D02*
X123500000Y-64000000D01*
X113000000Y-64000000D02*
X112500000Y-64000000D01*
X78500000Y-49500000D02*
X78500000Y-49000000D01*
X82500000Y-64000000D02*
X82000000Y-64000000D01*
X117500000Y-64000000D02*
X117000000Y-64000000D01*
X67500000Y-25500000D02*
X67500000Y-26000000D01*
X68000000Y-31000000D02*
X68000000Y-31500000D01*
X45500000Y-64000000D02*
X45000000Y-64000000D01*
X50500000Y-64000000D02*
X50000000Y-64000000D01*
X113500000Y-64000000D02*
X113000000Y-64000000D01*
X103500000Y-60500000D02*
X104000000Y-60500000D01*
X76000000Y-24000000D02*
X75500000Y-24000000D01*
X127500000Y-64000000D02*
X127000000Y-64000000D01*
X108500000Y-64000000D02*
X108000000Y-64000000D01*
X20850000Y-54700000D02*
X19000000Y-54500000D01*
X22000000Y-36000000D02*
X21500000Y-36000000D01*
X66500000Y-43500000D02*
X66000000Y-43500000D01*
X78500000Y-49000000D02*
X78500000Y-48500000D01*
X116000000Y-64000000D02*
X115500000Y-64000000D01*
X123000000Y-64000000D02*
X122500000Y-64000000D01*
X76500000Y-24000000D02*
X76000000Y-24000000D01*
X88500000Y-64000000D02*
X88000000Y-64000000D01*
X78500000Y-18000000D02*
X78500000Y-18500000D01*
X108000000Y-63500000D02*
X108000000Y-64000000D01*
X68500000Y-29000000D02*
X68500000Y-29500000D01*
X93500000Y-16000000D02*
X93000000Y-16000000D01*
X78500000Y-18500000D02*
X78500000Y-19000000D01*
X80500000Y-64000000D02*
X80000000Y-64000000D01*
X18500000Y-23500000D02*
X19000000Y-23500000D01*
X108000000Y-61000000D02*
X108000000Y-61500000D01*
X82000000Y-64000000D02*
X81500000Y-64000000D01*
X88500000Y-16000000D02*
X88000000Y-16000000D01*
X65000000Y-63500000D02*
X65000000Y-64000000D01*
X66000000Y-64000000D02*
X65500000Y-64000000D01*
X102000000Y-59000000D02*
X102000000Y-59500000D01*
X69000000Y-64000000D02*
X68500000Y-64000000D01*
X110000000Y-64000000D02*
X109500000Y-64000000D01*
X68000000Y-40500000D02*
X68000000Y-41000000D01*
X39500000Y-64000000D02*
X39000000Y-64000000D01*
X92500000Y-16000000D02*
X92000000Y-16000000D01*
X99000000Y-64000000D02*
X98500000Y-64000000D01*
X68500000Y-29500000D02*
X68500000Y-30000000D01*
X87500000Y-16000000D02*
X87000000Y-16000000D01*
X126000000Y-64000000D02*
X125500000Y-64000000D01*
X68000000Y-41000000D02*
X68000000Y-41500000D01*
X58500000Y-64000000D02*
X58000000Y-64000000D01*
X65500000Y-64000000D02*
X65000000Y-64000000D01*
X65000000Y-57500000D02*
X65000000Y-58000000D01*
X35000000Y-57000000D02*
X35000000Y-57500000D01*
X90500000Y-16000000D02*
X90000000Y-16000000D01*
X81500000Y-16000000D02*
X81000000Y-16000000D01*
X97500000Y-16000000D02*
X97000000Y-16000000D01*
X97000000Y-64000000D02*
X96500000Y-64000000D01*
X30500000Y-33000000D02*
X31000000Y-33000000D01*
X103000000Y-64000000D02*
X102500000Y-64000000D01*
X61500000Y-64000000D02*
X61000000Y-64000000D01*
X20500000Y-34000000D02*
X20500000Y-33500000D01*
X127000000Y-64000000D02*
X126500000Y-64000000D01*
X129000000Y-64000000D02*
X128500000Y-64000000D01*
X73000000Y-27500000D02*
X72500000Y-27500000D01*
X78500000Y-22500000D02*
X78500000Y-23000000D01*
X17500000Y-23500000D02*
X18000000Y-23500000D01*
X87500000Y-64000000D02*
X87000000Y-64000000D01*
X71950000Y-24000000D02*
X73500000Y-24000000D01*
X92000000Y-64000000D02*
X91500000Y-64000000D01*
X102000000Y-58500000D02*
X102000000Y-59000000D01*
X104500000Y-64000000D02*
X104000000Y-64000000D01*
X108000000Y-61500000D02*
X108000000Y-62000000D01*
X71500000Y-64000000D02*
X71000000Y-64000000D01*
X130500000Y-61500000D02*
X130500000Y-62000000D01*
X95500000Y-16000000D02*
X95000000Y-16000000D01*
X33000000Y-33000000D02*
X33500000Y-33000000D01*
X91000000Y-64000000D02*
X90500000Y-64000000D01*
X69000000Y-27500000D02*
X68500000Y-27500000D01*
X67500000Y-26500000D02*
X67500000Y-27000000D01*
X18000000Y-23500000D02*
X18500000Y-23500000D01*
X42000000Y-64000000D02*
X41500000Y-64000000D01*
X121500000Y-64000000D02*
X121000000Y-64000000D01*
X68000000Y-33500000D02*
X68000000Y-34000000D01*
X94500000Y-16000000D02*
X94000000Y-16000000D01*
X44000000Y-64000000D02*
X43500000Y-64000000D01*
X35000000Y-62500000D02*
X35000000Y-62000000D01*
X78500000Y-19500000D02*
X78500000Y-20000000D01*
X74500000Y-24000000D02*
X74000000Y-24000000D01*
X59500000Y-64000000D02*
X59000000Y-64000000D01*
X20500000Y-33000000D02*
X20500000Y-32500000D01*
X117000000Y-64000000D02*
X116500000Y-64000000D01*
X85500000Y-64000000D02*
X85000000Y-64000000D01*
X52500000Y-64000000D02*
X52000000Y-64000000D01*
X94000000Y-16000000D02*
X93500000Y-16000000D01*
X64500000Y-64000000D02*
X64000000Y-64000000D01*
X79000000Y-16000000D02*
X78500000Y-16000000D01*
X106500000Y-64000000D02*
X106000000Y-64000000D01*
X74000000Y-64000000D02*
X73500000Y-64000000D01*
X102000000Y-60000000D02*
X102000000Y-60500000D01*
X94500000Y-64000000D02*
X94000000Y-64000000D01*
X83000000Y-16000000D02*
X82500000Y-16000000D01*
X98500000Y-64000000D02*
X98000000Y-64000000D01*
X68000000Y-30500000D02*
X68000000Y-31000000D01*
X100500000Y-64000000D02*
X100000000Y-64000000D01*
X70500000Y-44000000D02*
X70500000Y-43500000D01*
X128000000Y-64000000D02*
X127500000Y-64000000D01*
X86000000Y-16000000D02*
X85500000Y-16000000D01*
X65000000Y-59000000D02*
X65000000Y-59500000D01*
X90500000Y-64000000D02*
X90000000Y-64000000D01*
X78500000Y-20500000D02*
X78500000Y-21000000D01*
X63000000Y-64000000D02*
X62500000Y-64000000D01*
X102000000Y-57500000D02*
X102000000Y-58000000D01*
X47500000Y-64000000D02*
X47000000Y-64000000D01*
X68000000Y-39500000D02*
X68000000Y-40000000D01*
X78000000Y-24000000D02*
X77500000Y-24000000D01*
X33500000Y-33000000D02*
X34000000Y-33000000D01*
X83500000Y-16000000D02*
X83000000Y-16000000D01*
X11950000Y-35000000D02*
X13500000Y-35000000D01*
X65000000Y-64000000D02*
X64500000Y-64000000D01*
X79500000Y-16000000D02*
X79000000Y-16000000D01*
X96000000Y-16000000D02*
X95500000Y-16000000D01*
X56500000Y-64000000D02*
X56000000Y-64000000D01*
X73500000Y-27500000D02*
X73000000Y-27500000D01*
X67000000Y-43500000D02*
X66500000Y-43500000D01*
X78500000Y-17500000D02*
X78500000Y-18000000D01*
X55500000Y-64000000D02*
X55000000Y-64000000D01*
X66500000Y-64000000D02*
X66000000Y-64000000D01*
X90000000Y-16000000D02*
X89500000Y-16000000D01*
X35500000Y-64000000D02*
X35000000Y-64000000D01*
X99500000Y-64000000D02*
X99000000Y-64000000D01*
X52000000Y-64000000D02*
X51500000Y-64000000D01*
X73500000Y-25000000D02*
X73500000Y-25500000D01*
X20500000Y-36000000D02*
X20500000Y-35500000D01*
X69500000Y-64000000D02*
X69000000Y-64000000D01*
X101000000Y-64000000D02*
X100500000Y-64000000D01*
X13500000Y-35000000D02*
X13500000Y-34500000D01*
X121000000Y-64000000D02*
X120500000Y-64000000D01*
X130500000Y-62500000D02*
X130500000Y-63000000D01*
X96000000Y-64000000D02*
X95500000Y-64000000D01*
X103000000Y-60500000D02*
X103500000Y-60500000D01*
X35000000Y-58500000D02*
X35000000Y-58000000D01*
X47000000Y-64000000D02*
X46500000Y-64000000D01*
X64000000Y-43500000D02*
X64000000Y-44000000D01*
X19000000Y-23500000D02*
X19500000Y-23500000D01*
X92500000Y-64000000D02*
X92000000Y-64000000D01*
X34475000Y-56000000D02*
X36000000Y-56000000D01*
X108000000Y-63000000D02*
X108000000Y-63500000D01*
X91500000Y-64000000D02*
X91000000Y-64000000D01*
X56000000Y-64000000D02*
X55500000Y-64000000D01*
X78500000Y-23000000D02*
X78500000Y-23500000D01*
X97500000Y-64000000D02*
X97000000Y-64000000D01*
X102000000Y-64000000D02*
X101500000Y-64000000D01*
X93500000Y-64000000D02*
X93000000Y-64000000D01*
X68000000Y-37000000D02*
X68000000Y-37500000D01*
X19000000Y-53500000D02*
X19000000Y-53000000D01*
X129500000Y-64000000D02*
X129000000Y-64000000D01*
X68000000Y-43000000D02*
X68000000Y-43500000D01*
X73500000Y-24000000D02*
X73500000Y-24500000D01*
X71000000Y-64000000D02*
X70500000Y-64000000D01*
X48000000Y-64000000D02*
X47500000Y-64000000D01*
X78500000Y-50000000D02*
X78500000Y-49500000D01*
X65000000Y-62500000D02*
X65000000Y-63000000D01*
X102500000Y-60500000D02*
X103000000Y-60500000D01*
X60000000Y-64000000D02*
X59500000Y-64000000D01*
X68000000Y-32000000D02*
X68000000Y-32500000D01*
X31000000Y-33000000D02*
X31500000Y-33000000D01*
X73500000Y-64000000D02*
X73000000Y-64000000D01*
X72000000Y-64000000D02*
X71500000Y-64000000D01*
X65000000Y-60500000D02*
X65000000Y-61000000D01*
X83000000Y-64000000D02*
X82500000Y-64000000D01*
X65000000Y-43500000D02*
X64500000Y-43500000D01*
X98000000Y-16000000D02*
X97500000Y-16000000D01*
X65950000Y-24000000D02*
X67500000Y-24000000D01*
X68500000Y-27500000D02*
X68500000Y-28000000D01*
X68500000Y-28500000D02*
X68500000Y-29000000D01*
X79000000Y-64000000D02*
X78500000Y-64000000D01*
X86500000Y-64000000D02*
X86000000Y-64000000D01*
X29000000Y-33000000D02*
X29500000Y-33000000D01*
X78500000Y-21000000D02*
X78500000Y-21500000D01*
X88000000Y-16000000D02*
X87500000Y-16000000D01*
X112500000Y-64000000D02*
X112000000Y-64000000D01*
X114000000Y-64000000D02*
X113500000Y-64000000D01*
X78500000Y-16000000D02*
X78500000Y-16500000D01*
X130500000Y-64000000D02*
X130000000Y-64000000D01*
X76500000Y-64000000D02*
X76000000Y-64000000D01*
X68000000Y-38500000D02*
X68000000Y-39000000D01*
X20500000Y-32500000D02*
X20500000Y-32000000D01*
X85000000Y-16000000D02*
X84500000Y-16000000D01*
X85000000Y-64000000D02*
X84500000Y-64000000D01*
X84000000Y-64000000D02*
X83500000Y-64000000D01*
X68000000Y-34000000D02*
X68000000Y-34500000D01*
X96500000Y-16000000D02*
X96000000Y-16000000D01*
X70500000Y-44500000D02*
X70500000Y-44000000D01*
X68000000Y-40000000D02*
X68000000Y-40500000D01*
X46000000Y-64000000D02*
X45500000Y-64000000D01*
X67500000Y-43500000D02*
X67000000Y-43500000D01*
X104000000Y-60500000D02*
X104500000Y-60500000D01*
X65000000Y-59500000D02*
X65000000Y-60000000D01*
X38500000Y-64000000D02*
X38000000Y-64000000D01*
X20500000Y-35000000D02*
X20500000Y-34500000D01*
X84500000Y-64000000D02*
X84000000Y-64000000D01*
X86500000Y-16000000D02*
X86000000Y-16000000D01*
X68000000Y-35000000D02*
X68000000Y-35500000D01*
X16475000Y-56000000D02*
X18000000Y-56000000D01*
X77500000Y-64000000D02*
X77000000Y-64000000D01*
X18000000Y-54500000D02*
X18500000Y-54500000D01*
X78500000Y-21500000D02*
X78500000Y-22000000D01*
X130500000Y-61000000D02*
X130500000Y-61500000D01*
X29500000Y-33000000D02*
X30000000Y-33000000D01*
X53000000Y-64000000D02*
X52500000Y-64000000D01*
X87000000Y-64000000D02*
X86500000Y-64000000D01*
X78500000Y-24000000D02*
X78000000Y-24000000D01*
X81000000Y-16000000D02*
X80500000Y-16000000D01*
X35000000Y-63000000D02*
X35000000Y-62500000D01*
X104500000Y-60500000D02*
X105000000Y-60500000D01*
X130500000Y-62000000D02*
X130500000Y-62500000D01*
X91000000Y-16000000D02*
X90500000Y-16000000D01*
X100000000Y-64000000D02*
X99500000Y-64000000D01*
X116000000Y-64500000D02*
X116000000Y-64000000D01*
X118000000Y-64000000D02*
X117500000Y-64000000D01*
X19000000Y-54000000D02*
X19000000Y-53500000D01*
X110500000Y-64000000D02*
X110000000Y-64000000D01*
X115000000Y-64000000D02*
X114500000Y-64000000D01*
X71000000Y-43500000D02*
X70500000Y-43500000D01*
X35000000Y-63500000D02*
X35000000Y-63000000D01*
X83500000Y-64000000D02*
X83000000Y-64000000D01*
X35000000Y-60500000D02*
X35000000Y-60000000D01*
X106500000Y-60500000D02*
X107000000Y-60500000D01*
X68000000Y-36500000D02*
X68000000Y-37000000D01*
X18500000Y-54500000D02*
X19000000Y-54500000D01*
X120000000Y-64000000D02*
X119500000Y-64000000D01*
X103500000Y-64000000D02*
X103000000Y-64000000D01*
X69000000Y-43500000D02*
X68500000Y-43500000D01*
X108000000Y-62000000D02*
X108000000Y-62500000D01*
X86000000Y-64000000D02*
X85500000Y-64000000D01*
X77000000Y-64000000D02*
X76500000Y-64000000D01*
X108000000Y-60500000D02*
X108000000Y-61000000D01*
X64000000Y-44000000D02*
X64000000Y-44500000D01*
X30000000Y-33000000D02*
X30500000Y-33000000D01*
X114500000Y-64000000D02*
X114000000Y-64000000D01*
X84000000Y-16000000D02*
X83500000Y-16000000D01*
X67500000Y-27500000D02*
X67000000Y-27500000D01*
X84500000Y-16000000D02*
X84000000Y-16000000D01*
X36000000Y-64000000D02*
X35500000Y-64000000D01*
X18000000Y-56000000D02*
X18000000Y-55500000D01*
X93000000Y-64000000D02*
X92500000Y-64000000D01*
X68000000Y-33000000D02*
X68000000Y-33500000D01*
X69500000Y-43500000D02*
X69000000Y-43500000D01*
X81000000Y-64000000D02*
X80500000Y-64000000D01*
X77500000Y-24000000D02*
X77000000Y-24000000D01*
X75500000Y-64000000D02*
X75000000Y-64000000D01*
X67500000Y-64000000D02*
X67000000Y-64000000D01*
X68000000Y-38000000D02*
X68000000Y-38500000D01*
X125500000Y-64000000D02*
X125000000Y-64000000D01*
X32500000Y-33000000D02*
X33000000Y-33000000D01*
X122000000Y-64000000D02*
X121500000Y-64000000D01*
X118500000Y-64000000D02*
X118000000Y-64000000D01*
X73500000Y-26500000D02*
X73500000Y-27000000D01*
X87000000Y-16000000D02*
X86500000Y-16000000D01*
X67000000Y-64000000D02*
X66500000Y-64000000D01*
X68500000Y-30000000D02*
X68000000Y-30000000D01*
X93000000Y-16000000D02*
X92500000Y-16000000D01*
X54000000Y-64000000D02*
X53500000Y-64000000D01*
X70500000Y-64000000D02*
X70000000Y-64000000D01*
X35000000Y-60000000D02*
X35000000Y-59500000D01*
X68000000Y-43500000D02*
X67500000Y-43500000D01*
X38000000Y-64000000D02*
X37500000Y-64000000D01*
X18450000Y-33000000D02*
X20000000Y-33000000D01*
X130500000Y-63000000D02*
X130500000Y-63500000D01*
X105000000Y-64000000D02*
X104500000Y-64000000D01*
X91500000Y-16000000D02*
X91000000Y-16000000D01*
X20500000Y-31000000D02*
X20500000Y-30500000D01*
X65000000Y-60000000D02*
X65000000Y-60500000D01*
X41500000Y-64000000D02*
X41000000Y-64000000D01*
X34000000Y-33000000D02*
X34500000Y-33000000D01*
X63500000Y-64000000D02*
X63000000Y-64000000D01*
X32000000Y-33000000D02*
X32500000Y-33000000D01*
X68500000Y-43500000D02*
X68000000Y-43500000D01*
X95000000Y-16000000D02*
X94500000Y-16000000D01*
X35000000Y-56000000D02*
X35000000Y-56500000D01*
X78500000Y-17000000D02*
X78500000Y-17500000D01*
X116500000Y-64000000D02*
X116000000Y-64000000D01*
X45000000Y-64000000D02*
X44500000Y-64000000D01*
X107000000Y-60500000D02*
X107500000Y-60500000D01*
X48500000Y-64000000D02*
X48000000Y-64000000D01*
X20500000Y-31500000D02*
X20500000Y-31000000D01*
X66000000Y-43500000D02*
X65500000Y-43500000D01*
X31500000Y-33000000D02*
X32000000Y-33000000D01*
X78500000Y-48500000D02*
X78500000Y-48000000D01*
X26500000Y-24000000D02*
X26500000Y-23500000D01*
X109500000Y-64000000D02*
X109000000Y-64000000D01*
X55000000Y-64000000D02*
X54500000Y-64000000D01*
X78500000Y-22000000D02*
X78500000Y-22500000D01*
X75000000Y-64000000D02*
X74500000Y-64000000D01*
X67500000Y-27000000D02*
X67500000Y-27500000D01*
%TO.N,+5V*%
X12000000Y-57500000D02*
X12000000Y-58000000D01*
X6500000Y-59500000D02*
X6000000Y-59500000D01*
X77500000Y-17500000D02*
X77500000Y-18000000D01*
X77500000Y-20500000D02*
X77500000Y-21000000D01*
X77500000Y-16000000D02*
X77500000Y-16500000D01*
X77500000Y-12000000D02*
X77500000Y-12500000D01*
X14000000Y-59500000D02*
X13500000Y-59500000D01*
X77500000Y-10500000D02*
X77500000Y-11000000D01*
X77500000Y-12500000D02*
X77500000Y-13000000D01*
X10000000Y-59500000D02*
X9500000Y-59500000D01*
X10500000Y-59500000D02*
X10000000Y-59500000D01*
X12500000Y-59500000D02*
X12000000Y-59500000D01*
X12000000Y-58000000D02*
X12000000Y-58500000D01*
X6000000Y-59500000D02*
X6000000Y-59000000D01*
X9500000Y-59500000D02*
X9000000Y-59500000D01*
X77500000Y-15500000D02*
X77500000Y-16000000D01*
X15000000Y-59500000D02*
X14500000Y-59500000D01*
X77500000Y-14500000D02*
X77500000Y-15000000D01*
X9000000Y-59500000D02*
X8500000Y-59500000D01*
X7000000Y-59500000D02*
X6500000Y-59500000D01*
X77500000Y-15000000D02*
X77500000Y-15500000D01*
X77500000Y-19000000D02*
X77500000Y-19500000D01*
X13525000Y-56000000D02*
X12000000Y-56000000D01*
X15500000Y-59500000D02*
X15000000Y-59500000D01*
X6000000Y-59000000D02*
X6000000Y-58500000D01*
X20850000Y-59300000D02*
X19000000Y-59500000D01*
X77500000Y-20000000D02*
X77500000Y-20500000D01*
X12000000Y-57000000D02*
X12000000Y-57500000D01*
X77500000Y-19500000D02*
X77500000Y-20000000D01*
X12000000Y-59500000D02*
X11500000Y-59500000D01*
X11000000Y-59500000D02*
X10500000Y-59500000D01*
X77500000Y-17000000D02*
X77500000Y-17500000D01*
X77500000Y-11000000D02*
X77500000Y-11500000D01*
X12000000Y-56000000D02*
X12000000Y-56500000D01*
X17500000Y-59500000D02*
X17000000Y-59500000D01*
X77500000Y-11500000D02*
X77500000Y-12000000D01*
X77500000Y-18000000D02*
X77500000Y-18500000D01*
X12000000Y-58500000D02*
X12000000Y-59000000D01*
X8500000Y-59500000D02*
X8000000Y-59500000D01*
X77500000Y-10000000D02*
X77500000Y-10500000D01*
X12000000Y-56500000D02*
X12000000Y-57000000D01*
X19000000Y-59500000D02*
X18500000Y-59500000D01*
X11500000Y-59500000D02*
X11000000Y-59500000D01*
X77500000Y-16500000D02*
X77500000Y-17000000D01*
X8000000Y-59500000D02*
X7500000Y-59500000D01*
X77500000Y-9000000D02*
X77500000Y-9500000D01*
X13500000Y-59500000D02*
X13000000Y-59500000D01*
X77500000Y-13500000D02*
X77500000Y-14000000D01*
X12000000Y-59000000D02*
X12000000Y-59500000D01*
X77500000Y-18500000D02*
X77500000Y-19000000D01*
X17000000Y-59500000D02*
X16500000Y-59500000D01*
X77500000Y-13000000D02*
X77500000Y-13500000D01*
X77500000Y-14000000D02*
X77500000Y-14500000D01*
X6000000Y-58500000D02*
X6000000Y-58000000D01*
X18000000Y-59500000D02*
X17500000Y-59500000D01*
X79087500Y-9000000D02*
X77500000Y-9000000D01*
X14500000Y-59500000D02*
X14000000Y-59500000D01*
X77500000Y-9500000D02*
X77500000Y-10000000D01*
X13000000Y-59500000D02*
X12500000Y-59500000D01*
X16500000Y-59500000D02*
X16000000Y-59500000D01*
X7500000Y-59500000D02*
X7000000Y-59500000D01*
X16000000Y-59500000D02*
X15500000Y-59500000D01*
X18500000Y-59500000D02*
X18000000Y-59500000D01*
%TO.N,+3V3*%
X23000000Y-51000000D02*
X23000000Y-51500000D01*
X70500000Y-50000000D02*
X70000000Y-50000000D01*
X22500000Y-57000000D02*
X22000000Y-57000000D01*
X23000000Y-33000000D02*
X23000000Y-33500000D01*
X130500000Y-53000000D02*
X130500000Y-52500000D01*
X70500000Y-24000000D02*
X70500000Y-24500000D01*
X92000000Y-51500000D02*
X91500000Y-51500000D01*
X118000000Y-51500000D02*
X117500000Y-51500000D01*
X23000000Y-47500000D02*
X23000000Y-48000000D01*
X50000000Y-54000000D02*
X49500000Y-54000000D01*
X69000000Y-50000000D02*
X68500000Y-50000000D01*
X47000000Y-54000000D02*
X46500000Y-54000000D01*
X22500000Y-55000000D02*
X22500000Y-55500000D01*
X68000000Y-50000000D02*
X68000000Y-49500000D01*
X19000000Y-29500000D02*
X19500000Y-29500000D01*
X85500000Y-51500000D02*
X85000000Y-51500000D01*
X35000000Y-54000000D02*
X34500000Y-54000000D01*
X51000000Y-54000000D02*
X50500000Y-54000000D01*
X57500000Y-43500000D02*
X57000000Y-43500000D01*
X39000000Y-54000000D02*
X38500000Y-54000000D01*
X113000000Y-51500000D02*
X112500000Y-51500000D01*
X23000000Y-38000000D02*
X23000000Y-38500000D01*
X76000000Y-51500000D02*
X75500000Y-51500000D01*
X15000000Y-37000000D02*
X15000000Y-37500000D01*
X71500000Y-50000000D02*
X71000000Y-50000000D01*
X23000000Y-36500000D02*
X23000000Y-37000000D01*
X47500000Y-54000000D02*
X47000000Y-54000000D01*
X24000000Y-54500000D02*
X23500000Y-54500000D01*
X17500000Y-29500000D02*
X18000000Y-29500000D01*
X16550000Y-33000000D02*
X15000000Y-33000000D01*
X29000000Y-54500000D02*
X28500000Y-54500000D01*
X23000000Y-35000000D02*
X23000000Y-35500000D01*
X86000000Y-51500000D02*
X85500000Y-51500000D01*
X27500000Y-54500000D02*
X27000000Y-54500000D01*
X70500000Y-26500000D02*
X70500000Y-27000000D01*
X71000000Y-50000000D02*
X70500000Y-50000000D01*
X23000000Y-32500000D02*
X23000000Y-33000000D01*
X70000000Y-50000000D02*
X69500000Y-50000000D01*
X23000000Y-37000000D02*
X23000000Y-37500000D01*
X23000000Y-48000000D02*
X23000000Y-48500000D01*
X52500000Y-54000000D02*
X52000000Y-54000000D01*
X58000000Y-43500000D02*
X57500000Y-43500000D01*
X23000000Y-42500000D02*
X23000000Y-43000000D01*
X64500000Y-48500000D02*
X65000000Y-48500000D01*
X94000000Y-51500000D02*
X93500000Y-51500000D01*
X44500000Y-54000000D02*
X44000000Y-54000000D01*
X21000000Y-57000000D02*
X20500000Y-57000000D01*
X22500000Y-55500000D02*
X22500000Y-56000000D01*
X93000000Y-51500000D02*
X92500000Y-51500000D01*
X73000000Y-50000000D02*
X72500000Y-50000000D01*
X15000000Y-35000000D02*
X15000000Y-35500000D01*
X126000000Y-51500000D02*
X125500000Y-51500000D01*
X120000000Y-51500000D02*
X119500000Y-51500000D01*
X17000000Y-29500000D02*
X17500000Y-29500000D01*
X17000000Y-29000000D02*
X17000000Y-29500000D01*
X79000000Y-51500000D02*
X78500000Y-51500000D01*
X23000000Y-44000000D02*
X23000000Y-44500000D01*
X52000000Y-54000000D02*
X51500000Y-54000000D01*
X40000000Y-54000000D02*
X39500000Y-54000000D01*
X69500000Y-24000000D02*
X70000000Y-24000000D01*
X82500000Y-51500000D02*
X82000000Y-51500000D01*
X68500000Y-50000000D02*
X68000000Y-50000000D01*
X116500000Y-51500000D02*
X116000000Y-51500000D01*
X63000000Y-48500000D02*
X63500000Y-48500000D01*
X54000000Y-54000000D02*
X53500000Y-54000000D01*
X45500000Y-54000000D02*
X45000000Y-54000000D01*
X30500000Y-54000000D02*
X30000000Y-54000000D01*
X117500000Y-51500000D02*
X117000000Y-51500000D01*
X55000000Y-54000000D02*
X54500000Y-54000000D01*
X39500000Y-54000000D02*
X39000000Y-54000000D01*
X97000000Y-51500000D02*
X96500000Y-51500000D01*
X58500000Y-43500000D02*
X58000000Y-43500000D01*
X78000000Y-51500000D02*
X77500000Y-51500000D01*
X24500000Y-28000000D02*
X24000000Y-28000000D01*
X54500000Y-54000000D02*
X54000000Y-54000000D01*
X21500000Y-37500000D02*
X22000000Y-37500000D01*
X23000000Y-54000000D02*
X23000000Y-54500000D01*
X16500000Y-37500000D02*
X17000000Y-37500000D01*
X101500000Y-51500000D02*
X101000000Y-51500000D01*
X130500000Y-56000000D02*
X130500000Y-55500000D01*
X28000000Y-54500000D02*
X27500000Y-54500000D01*
X56500000Y-53000000D02*
X56500000Y-53500000D01*
X83000000Y-51500000D02*
X82500000Y-51500000D01*
X23000000Y-53000000D02*
X23000000Y-53500000D01*
X88500000Y-51500000D02*
X88000000Y-51500000D01*
X23000000Y-53500000D02*
X23000000Y-54000000D01*
X80000000Y-51500000D02*
X79500000Y-51500000D01*
X73500000Y-50000000D02*
X73000000Y-50000000D01*
X130500000Y-55500000D02*
X130500000Y-55000000D01*
X25550000Y-33000000D02*
X24000000Y-33000000D01*
X21000000Y-29500000D02*
X21500000Y-29500000D01*
X124000000Y-51500000D02*
X123500000Y-51500000D01*
X59500000Y-43500000D02*
X59000000Y-43500000D01*
X56500000Y-52500000D02*
X56500000Y-53000000D01*
X15000000Y-34000000D02*
X15000000Y-34500000D01*
X56500000Y-44500000D02*
X56500000Y-45000000D01*
X114500000Y-51500000D02*
X114000000Y-51500000D01*
X56500000Y-43500000D02*
X56500000Y-44000000D01*
X70050000Y-24000000D02*
X68500000Y-24000000D01*
X35500000Y-54000000D02*
X35000000Y-54000000D01*
X23000000Y-31000000D02*
X23000000Y-31500000D01*
X15000000Y-33500000D02*
X15000000Y-34000000D01*
X127500000Y-51500000D02*
X127000000Y-51500000D01*
X20500000Y-29500000D02*
X21000000Y-29500000D01*
X27000000Y-54500000D02*
X26500000Y-54500000D01*
X56500000Y-49000000D02*
X56500000Y-49500000D01*
X20850000Y-57000000D02*
X19000000Y-57000000D01*
X57000000Y-43500000D02*
X56500000Y-43500000D01*
X23000000Y-40000000D02*
X23000000Y-40500000D01*
X72000000Y-50000000D02*
X71500000Y-50000000D01*
X30000000Y-55500000D02*
X30000000Y-55000000D01*
X82000000Y-51500000D02*
X81500000Y-51500000D01*
X15500000Y-37500000D02*
X16000000Y-37500000D01*
X111500000Y-51500000D02*
X111000000Y-51500000D01*
X90500000Y-51500000D02*
X90000000Y-51500000D01*
X115500000Y-51500000D02*
X115000000Y-51500000D01*
X73500000Y-50500000D02*
X73500000Y-50000000D01*
X123500000Y-51500000D02*
X123000000Y-51500000D01*
X23000000Y-28500000D02*
X23000000Y-29000000D01*
X23000000Y-49000000D02*
X23000000Y-49500000D01*
X41500000Y-54000000D02*
X41000000Y-54000000D01*
X56500000Y-54000000D02*
X56000000Y-54000000D01*
X42000000Y-54000000D02*
X41500000Y-54000000D01*
X53500000Y-54000000D02*
X53000000Y-54000000D01*
X99000000Y-51500000D02*
X98500000Y-51500000D01*
X41000000Y-54000000D02*
X40500000Y-54000000D01*
X70500000Y-25500000D02*
X70500000Y-26000000D01*
X112000000Y-51500000D02*
X111500000Y-51500000D01*
X106000000Y-51500000D02*
X105500000Y-51500000D01*
X55500000Y-54000000D02*
X55000000Y-54000000D01*
X75050000Y-50000000D02*
X73500000Y-50000000D01*
X22000000Y-37500000D02*
X22500000Y-37500000D01*
X56500000Y-52000000D02*
X56500000Y-52500000D01*
X105000000Y-51500000D02*
X104500000Y-51500000D01*
X51500000Y-54000000D02*
X51000000Y-54000000D01*
X68000000Y-49000000D02*
X68000000Y-48500000D01*
X33500000Y-54000000D02*
X33000000Y-54000000D01*
X19500000Y-37500000D02*
X20000000Y-37500000D01*
X23000000Y-48500000D02*
X23000000Y-49000000D01*
X38500000Y-54000000D02*
X38000000Y-54000000D01*
X107500000Y-51500000D02*
X107000000Y-51500000D01*
X75000000Y-51500000D02*
X74500000Y-51500000D01*
X34000000Y-54000000D02*
X33500000Y-54000000D01*
X130500000Y-55000000D02*
X130500000Y-54500000D01*
X24000000Y-33000000D02*
X23500000Y-33000000D01*
X23000000Y-30500000D02*
X23000000Y-31000000D01*
X92500000Y-51500000D02*
X92000000Y-51500000D01*
X24000000Y-28000000D02*
X23500000Y-28000000D01*
X45000000Y-54000000D02*
X44500000Y-54000000D01*
X23000000Y-40500000D02*
X23000000Y-41000000D01*
X56500000Y-47000000D02*
X56500000Y-47500000D01*
X65000000Y-48500000D02*
X65500000Y-48500000D01*
X68500000Y-24000000D02*
X69000000Y-24000000D01*
X36500000Y-54000000D02*
X36000000Y-54000000D01*
X26000000Y-28000000D02*
X25500000Y-28000000D01*
X62500000Y-49500000D02*
X62500000Y-49000000D01*
X23000000Y-47000000D02*
X23000000Y-47500000D01*
X122000000Y-51500000D02*
X121500000Y-51500000D01*
X25000000Y-28000000D02*
X24500000Y-28000000D01*
X23000000Y-39000000D02*
X23000000Y-39500000D01*
X97500000Y-51500000D02*
X97000000Y-51500000D01*
X70500000Y-25000000D02*
X70500000Y-25500000D01*
X17000000Y-28000000D02*
X17000000Y-28500000D01*
X101000000Y-51500000D02*
X100500000Y-51500000D01*
X23000000Y-30000000D02*
X23000000Y-30500000D01*
X34500000Y-54000000D02*
X34000000Y-54000000D01*
X23000000Y-42000000D02*
X23000000Y-42500000D01*
X130000000Y-51500000D02*
X129500000Y-51500000D01*
X112500000Y-51500000D02*
X112000000Y-51500000D01*
X125500000Y-51500000D02*
X125000000Y-51500000D01*
X70500000Y-27500000D02*
X70500000Y-28000000D01*
X17000000Y-27000000D02*
X17000000Y-27500000D01*
X69000000Y-24000000D02*
X69500000Y-24000000D01*
X31500000Y-54000000D02*
X31000000Y-54000000D01*
X30000000Y-55000000D02*
X30000000Y-54500000D01*
X77500000Y-51500000D02*
X77000000Y-51500000D01*
X105500000Y-51500000D02*
X105000000Y-51500000D01*
X62500000Y-50000000D02*
X62500000Y-49500000D01*
X108500000Y-51500000D02*
X108000000Y-51500000D01*
X73500000Y-51000000D02*
X73500000Y-50500000D01*
X20000000Y-37500000D02*
X20500000Y-37500000D01*
X25500000Y-54500000D02*
X25000000Y-54500000D01*
X85000000Y-51500000D02*
X84500000Y-51500000D01*
X128000000Y-51500000D02*
X127500000Y-51500000D01*
X106500000Y-51500000D02*
X106000000Y-51500000D01*
X50500000Y-54000000D02*
X50000000Y-54000000D01*
X80500000Y-51500000D02*
X80000000Y-51500000D01*
X25000000Y-54500000D02*
X24500000Y-54500000D01*
X43000000Y-54000000D02*
X42500000Y-54000000D01*
X21500000Y-29500000D02*
X22000000Y-29500000D01*
X114000000Y-51500000D02*
X113500000Y-51500000D01*
X109000000Y-51500000D02*
X108500000Y-51500000D01*
X125000000Y-51500000D02*
X124500000Y-51500000D01*
X20000000Y-29500000D02*
X20500000Y-29500000D01*
X22000000Y-29500000D02*
X22500000Y-29500000D01*
X19000000Y-37500000D02*
X19500000Y-37500000D01*
X100500000Y-51500000D02*
X100000000Y-51500000D01*
X109500000Y-51500000D02*
X109000000Y-51500000D01*
X15000000Y-37500000D02*
X15500000Y-37500000D01*
X56500000Y-48000000D02*
X56500000Y-48500000D01*
X23000000Y-43000000D02*
X23000000Y-43500000D01*
X16000000Y-37500000D02*
X16500000Y-37500000D01*
X20000000Y-57000000D02*
X19500000Y-57000000D01*
X119500000Y-51500000D02*
X119000000Y-51500000D01*
X62500000Y-48500000D02*
X63000000Y-48500000D01*
X49000000Y-54000000D02*
X48500000Y-54000000D01*
X121500000Y-51500000D02*
X121000000Y-51500000D01*
X29500000Y-54500000D02*
X29000000Y-54500000D01*
X68000000Y-48500000D02*
X68000000Y-48000000D01*
X26500000Y-28000000D02*
X26000000Y-28000000D01*
X89500000Y-51500000D02*
X89000000Y-51500000D01*
X76500000Y-51500000D02*
X76000000Y-51500000D01*
X23000000Y-45000000D02*
X23000000Y-45500000D01*
X79500000Y-51500000D02*
X79000000Y-51500000D01*
X102000000Y-51500000D02*
X101500000Y-51500000D01*
X37500000Y-54000000D02*
X37000000Y-54000000D01*
X113500000Y-51500000D02*
X113000000Y-51500000D01*
X19500000Y-29500000D02*
X20000000Y-29500000D01*
X130500000Y-53500000D02*
X130500000Y-53000000D01*
X89000000Y-51500000D02*
X88500000Y-51500000D01*
X21000000Y-37500000D02*
X21500000Y-37500000D01*
X23000000Y-49500000D02*
X23000000Y-50000000D01*
X87000000Y-51500000D02*
X86500000Y-51500000D01*
X130500000Y-54500000D02*
X130500000Y-54000000D01*
X46500000Y-54000000D02*
X46000000Y-54000000D01*
X25500000Y-28000000D02*
X25000000Y-28000000D01*
X23000000Y-44500000D02*
X23000000Y-45000000D01*
X56500000Y-53500000D02*
X56500000Y-54000000D01*
X70500000Y-24500000D02*
X70500000Y-25000000D01*
X23000000Y-46000000D02*
X23000000Y-46500000D01*
X108000000Y-51500000D02*
X107500000Y-51500000D01*
X60000000Y-43500000D02*
X59500000Y-43500000D01*
X18000000Y-29500000D02*
X18500000Y-29500000D01*
X117000000Y-51500000D02*
X116500000Y-51500000D01*
X130500000Y-54000000D02*
X130500000Y-53500000D01*
X19500000Y-57000000D02*
X19000000Y-57000000D01*
X56000000Y-54000000D02*
X55500000Y-54000000D01*
X56500000Y-46000000D02*
X56500000Y-46500000D01*
X23000000Y-32000000D02*
X23000000Y-32500000D01*
X17000000Y-27500000D02*
X17000000Y-28000000D01*
X95000000Y-51500000D02*
X94500000Y-51500000D01*
X23500000Y-33000000D02*
X23000000Y-33000000D01*
X70500000Y-26000000D02*
X70500000Y-26500000D01*
X24862500Y-27950000D02*
X26500000Y-28000000D01*
X68000000Y-48000000D02*
X68000000Y-47500000D01*
X64000000Y-48500000D02*
X64500000Y-48500000D01*
X23000000Y-28000000D02*
X23000000Y-28500000D01*
X59000000Y-43500000D02*
X58500000Y-43500000D01*
X126500000Y-51500000D02*
X126000000Y-51500000D01*
X75500000Y-51500000D02*
X75000000Y-51500000D01*
X23000000Y-29500000D02*
X23000000Y-30000000D01*
X17500000Y-26500000D02*
X17000000Y-26500000D01*
X70000000Y-24000000D02*
X70500000Y-24000000D01*
X23000000Y-41500000D02*
X23000000Y-42000000D01*
X84500000Y-51500000D02*
X84000000Y-51500000D01*
X129000000Y-51500000D02*
X128500000Y-51500000D01*
X23000000Y-34000000D02*
X23000000Y-34500000D01*
X56500000Y-45500000D02*
X56500000Y-46000000D01*
X18000000Y-37500000D02*
X18500000Y-37500000D01*
X23000000Y-41000000D02*
X23000000Y-41500000D01*
X30000000Y-54000000D02*
X30000000Y-54500000D01*
X96500000Y-51500000D02*
X96000000Y-51500000D01*
X17500000Y-37500000D02*
X18000000Y-37500000D01*
X119000000Y-51500000D02*
X118500000Y-51500000D01*
X73500000Y-51500000D02*
X73500000Y-51000000D01*
X22500000Y-29500000D02*
X23000000Y-29500000D01*
X78500000Y-51500000D02*
X78000000Y-51500000D01*
X128500000Y-51500000D02*
X128000000Y-51500000D01*
X31000000Y-54000000D02*
X30500000Y-54000000D01*
X98500000Y-51500000D02*
X98000000Y-51500000D01*
X23000000Y-52500000D02*
X23000000Y-53000000D01*
X23000000Y-54500000D02*
X22500000Y-54500000D01*
X100000000Y-51500000D02*
X99500000Y-51500000D01*
X49500000Y-54000000D02*
X49000000Y-54000000D01*
X56500000Y-44000000D02*
X56500000Y-44500000D01*
X15000000Y-36000000D02*
X15000000Y-36500000D01*
X123000000Y-51500000D02*
X122500000Y-51500000D01*
X23000000Y-38500000D02*
X23000000Y-39000000D01*
X22000000Y-57000000D02*
X21500000Y-57000000D01*
X20500000Y-57000000D02*
X20000000Y-57000000D01*
X56500000Y-48500000D02*
X56500000Y-49000000D01*
X130500000Y-52500000D02*
X130500000Y-52000000D01*
X23000000Y-37500000D02*
X23000000Y-38000000D01*
X56500000Y-51500000D02*
X56500000Y-52000000D01*
X20500000Y-37500000D02*
X21000000Y-37500000D01*
X23000000Y-46500000D02*
X23000000Y-47000000D01*
X32500000Y-54000000D02*
X32000000Y-54000000D01*
X43500000Y-54000000D02*
X43000000Y-54000000D01*
X77000000Y-51500000D02*
X76500000Y-51500000D01*
X104500000Y-51500000D02*
X104000000Y-51500000D01*
X88000000Y-51500000D02*
X87500000Y-51500000D01*
X46000000Y-54000000D02*
X45500000Y-54000000D01*
X23000000Y-51500000D02*
X23000000Y-52000000D01*
X22500000Y-54500000D02*
X22500000Y-55000000D01*
X23000000Y-34500000D02*
X23000000Y-35000000D01*
X30000000Y-54500000D02*
X29500000Y-54500000D01*
X22500000Y-37500000D02*
X23000000Y-37500000D01*
X110500000Y-51500000D02*
X110000000Y-51500000D01*
X23000000Y-39500000D02*
X23000000Y-40000000D01*
X23000000Y-36000000D02*
X23000000Y-36500000D01*
X74000000Y-51500000D02*
X73500000Y-51500000D01*
X19137500Y-26650000D02*
X17500000Y-26500000D01*
X107000000Y-51500000D02*
X106500000Y-51500000D01*
X15000000Y-33000000D02*
X15000000Y-33500000D01*
X48000000Y-54000000D02*
X47500000Y-54000000D01*
X83500000Y-51500000D02*
X83000000Y-51500000D01*
X15000000Y-36500000D02*
X15000000Y-37000000D01*
X102500000Y-51500000D02*
X102000000Y-51500000D01*
X23000000Y-43500000D02*
X23000000Y-44000000D01*
X23000000Y-33500000D02*
X23000000Y-34000000D01*
X64087500Y-50000000D02*
X62500000Y-50000000D01*
X120500000Y-51500000D02*
X120000000Y-51500000D01*
X130500000Y-51500000D02*
X130000000Y-51500000D01*
X23500000Y-28000000D02*
X23000000Y-28000000D01*
X90000000Y-51500000D02*
X89500000Y-51500000D01*
X31525000Y-56000000D02*
X30000000Y-56000000D01*
X26500000Y-54500000D02*
X26000000Y-54500000D01*
X17000000Y-37500000D02*
X17500000Y-37500000D01*
X127000000Y-51500000D02*
X126500000Y-51500000D01*
X56500000Y-45000000D02*
X56500000Y-45500000D01*
X70500000Y-27000000D02*
X70500000Y-27500000D01*
X36000000Y-54000000D02*
X35500000Y-54000000D01*
X67000000Y-48500000D02*
X67500000Y-48500000D01*
X48500000Y-54000000D02*
X48000000Y-54000000D01*
X69500000Y-50000000D02*
X69000000Y-50000000D01*
X42500000Y-54000000D02*
X42000000Y-54000000D01*
X56500000Y-51000000D02*
X56500000Y-51500000D01*
X23000000Y-29000000D02*
X23000000Y-29500000D01*
X23000000Y-50500000D02*
X23000000Y-51000000D01*
X56500000Y-50000000D02*
X56500000Y-50500000D01*
X15000000Y-35500000D02*
X15000000Y-36000000D01*
X124500000Y-51500000D02*
X124000000Y-51500000D01*
X26000000Y-54500000D02*
X25500000Y-54500000D01*
X95500000Y-51500000D02*
X95000000Y-51500000D01*
X98000000Y-51500000D02*
X97500000Y-51500000D01*
X99500000Y-51500000D02*
X99000000Y-51500000D01*
X56500000Y-49500000D02*
X56500000Y-50000000D01*
X115000000Y-51500000D02*
X114500000Y-51500000D01*
X129500000Y-51500000D02*
X129000000Y-51500000D01*
X23000000Y-31500000D02*
X23000000Y-32000000D01*
X104000000Y-51500000D02*
X103500000Y-51500000D01*
X18500000Y-37500000D02*
X19000000Y-37500000D01*
X33000000Y-54000000D02*
X32500000Y-54000000D01*
X15000000Y-34500000D02*
X15000000Y-35000000D01*
X18500000Y-29500000D02*
X19000000Y-29500000D01*
X56500000Y-47500000D02*
X56500000Y-48000000D01*
X74500000Y-51500000D02*
X74000000Y-51500000D01*
X81500000Y-51500000D02*
X81000000Y-51500000D01*
X23500000Y-54500000D02*
X23000000Y-54500000D01*
X23000000Y-45500000D02*
X23000000Y-46000000D01*
X28500000Y-54500000D02*
X28000000Y-54500000D01*
X87500000Y-51500000D02*
X87000000Y-51500000D01*
X86500000Y-51500000D02*
X86000000Y-51500000D01*
X103500000Y-51500000D02*
X103000000Y-51500000D01*
X21500000Y-57000000D02*
X21000000Y-57000000D01*
X111000000Y-51500000D02*
X110500000Y-51500000D01*
X94500000Y-51500000D02*
X94000000Y-51500000D01*
X122500000Y-51500000D02*
X122000000Y-51500000D01*
X24500000Y-54500000D02*
X24000000Y-54500000D01*
X22500000Y-56500000D02*
X22500000Y-57000000D01*
X37000000Y-54000000D02*
X36500000Y-54000000D01*
X65500000Y-48500000D02*
X66000000Y-48500000D01*
X116000000Y-51500000D02*
X115500000Y-51500000D01*
X110000000Y-51500000D02*
X109500000Y-51500000D01*
X91000000Y-51500000D02*
X90500000Y-51500000D01*
X93500000Y-51500000D02*
X93000000Y-51500000D01*
X118500000Y-51500000D02*
X118000000Y-51500000D01*
X23000000Y-50000000D02*
X23000000Y-50500000D01*
X67500000Y-48500000D02*
X68000000Y-48500000D01*
X68000000Y-49500000D02*
X68000000Y-49000000D01*
X38000000Y-54000000D02*
X37500000Y-54000000D01*
X91500000Y-51500000D02*
X91000000Y-51500000D01*
X22500000Y-56000000D02*
X22500000Y-56500000D01*
X84000000Y-51500000D02*
X83500000Y-51500000D01*
X23000000Y-52000000D02*
X23000000Y-52500000D01*
X56500000Y-46500000D02*
X56500000Y-47000000D01*
X53000000Y-54000000D02*
X52500000Y-54000000D01*
X81000000Y-51500000D02*
X80500000Y-51500000D01*
X96000000Y-51500000D02*
X95500000Y-51500000D01*
X66500000Y-48500000D02*
X67000000Y-48500000D01*
X103000000Y-51500000D02*
X102500000Y-51500000D01*
X72500000Y-50000000D02*
X72000000Y-50000000D01*
X121000000Y-51500000D02*
X120500000Y-51500000D01*
X66000000Y-48500000D02*
X66500000Y-48500000D01*
X17000000Y-28500000D02*
X17000000Y-29000000D01*
X40500000Y-54000000D02*
X40000000Y-54000000D01*
X70500000Y-28000000D02*
X70500000Y-28500000D01*
X32000000Y-54000000D02*
X31500000Y-54000000D01*
X30000000Y-56000000D02*
X30000000Y-55500000D01*
X17000000Y-26500000D02*
X17000000Y-27000000D01*
X63500000Y-48500000D02*
X64000000Y-48500000D01*
X56500000Y-50500000D02*
X56500000Y-51000000D01*
X44000000Y-54000000D02*
X43500000Y-54000000D01*
X130500000Y-52000000D02*
X130500000Y-51500000D01*
X23000000Y-35500000D02*
X23000000Y-36000000D01*
X62500000Y-49000000D02*
X62500000Y-48500000D01*
%TO.N,RESET*%
X120000000Y-59000000D02*
X120000000Y-58500000D01*
X120000000Y-61000000D02*
X120000000Y-60500000D01*
X121500000Y-61000000D02*
X121000000Y-61000000D01*
X127500000Y-61000000D02*
X127000000Y-61000000D01*
X123000000Y-61000000D02*
X122500000Y-61000000D01*
X120500000Y-61000000D02*
X120000000Y-61000000D01*
X120000000Y-59500000D02*
X120000000Y-59000000D01*
X126000000Y-61000000D02*
X125500000Y-61000000D01*
X120000000Y-60000000D02*
X120000000Y-59500000D01*
X123500000Y-61000000D02*
X123000000Y-61000000D01*
X122000000Y-61000000D02*
X121500000Y-61000000D01*
X122500000Y-61000000D02*
X122000000Y-61000000D01*
X126500000Y-61000000D02*
X126000000Y-61000000D01*
X125000000Y-61000000D02*
X124500000Y-61000000D01*
X124500000Y-61000000D02*
X124000000Y-61000000D01*
X127000000Y-61000000D02*
X126500000Y-61000000D01*
X121000000Y-61000000D02*
X120500000Y-61000000D01*
X120000000Y-58000000D02*
X120000000Y-57500000D01*
X65912500Y-50000000D02*
X67500000Y-50000000D01*
X67500000Y-50000000D02*
X67000000Y-50000000D01*
X120000000Y-58500000D02*
X120000000Y-58000000D01*
X120000000Y-60500000D02*
X120000000Y-60000000D01*
X128000000Y-61000000D02*
X127500000Y-61000000D01*
X120000000Y-57500000D02*
X120000000Y-57000000D01*
X125500000Y-61000000D02*
X125000000Y-61000000D01*
X124000000Y-61000000D02*
X123500000Y-61000000D01*
%TO.N,SPI_CS*%
X54000000Y-39500000D02*
X54000000Y-40000000D01*
X54000000Y-32000000D02*
X54000000Y-32500000D01*
X54000000Y-38500000D02*
X54000000Y-39000000D01*
X54000000Y-43500000D02*
X54000000Y-44000000D01*
X39500000Y-27500000D02*
X40000000Y-27500000D01*
X44500000Y-27500000D02*
X45000000Y-27500000D01*
X50500000Y-27500000D02*
X51000000Y-27500000D01*
X54000000Y-42500000D02*
X54000000Y-43000000D01*
X54000000Y-33000000D02*
X54000000Y-33500000D01*
X40000000Y-27500000D02*
X40500000Y-27500000D01*
X48500000Y-27500000D02*
X49000000Y-27500000D01*
X47500000Y-27500000D02*
X48000000Y-27500000D01*
X33000000Y-27500000D02*
X33500000Y-27500000D01*
X37500000Y-27500000D02*
X38000000Y-27500000D01*
X54000000Y-42000000D02*
X54000000Y-42500000D01*
X43000000Y-27500000D02*
X43500000Y-27500000D01*
X50000000Y-27500000D02*
X50500000Y-27500000D01*
X30000000Y-27500000D02*
X30500000Y-27500000D01*
X38000000Y-27500000D02*
X38500000Y-27500000D01*
X40500000Y-27500000D02*
X41000000Y-27500000D01*
X42500000Y-27500000D02*
X43000000Y-27500000D01*
X54000000Y-32500000D02*
X54000000Y-33000000D01*
X38500000Y-27500000D02*
X39000000Y-27500000D01*
X34500000Y-27500000D02*
X35000000Y-27500000D01*
X46000000Y-27500000D02*
X46500000Y-27500000D01*
X41000000Y-27500000D02*
X41500000Y-27500000D01*
X47000000Y-27500000D02*
X47500000Y-27500000D01*
X48000000Y-27500000D02*
X48500000Y-27500000D01*
X35500000Y-27500000D02*
X36000000Y-27500000D01*
X54000000Y-28500000D02*
X54000000Y-29000000D01*
X54000000Y-37000000D02*
X54000000Y-37500000D01*
X54000000Y-40000000D02*
X54000000Y-40500000D01*
X51000000Y-27500000D02*
X51500000Y-27500000D01*
X54000000Y-34000000D02*
X54000000Y-34500000D01*
X39000000Y-27500000D02*
X39500000Y-27500000D01*
X49500000Y-27500000D02*
X50000000Y-27500000D01*
X54000000Y-40500000D02*
X54000000Y-41000000D01*
X24862500Y-27300000D02*
X26500000Y-27500000D01*
X54000000Y-36000000D02*
X54000000Y-36500000D01*
X54000000Y-43000000D02*
X54000000Y-43500000D01*
X54000000Y-31000000D02*
X54000000Y-31500000D01*
X54000000Y-41000000D02*
X54000000Y-41500000D01*
X54000000Y-44000000D02*
X54000000Y-44500000D01*
X54000000Y-35500000D02*
X54000000Y-36000000D01*
X37000000Y-27500000D02*
X37500000Y-27500000D01*
X54000000Y-38000000D02*
X54000000Y-38500000D01*
X54000000Y-30500000D02*
X54000000Y-31000000D01*
X52000000Y-27500000D02*
X52500000Y-27500000D01*
X54000000Y-31500000D02*
X54000000Y-32000000D01*
X52500000Y-27500000D02*
X53000000Y-27500000D01*
X28500000Y-27500000D02*
X29000000Y-27500000D01*
X36000000Y-27500000D02*
X36500000Y-27500000D01*
X26500000Y-27500000D02*
X27000000Y-27500000D01*
X54000000Y-29500000D02*
X54000000Y-30000000D01*
X54000000Y-44500000D02*
X54000000Y-45000000D01*
X54000000Y-27500000D02*
X54000000Y-28000000D01*
X33500000Y-27500000D02*
X34000000Y-27500000D01*
X53500000Y-27500000D02*
X54000000Y-27500000D01*
X54000000Y-37500000D02*
X54000000Y-38000000D01*
X54000000Y-39000000D02*
X54000000Y-39500000D01*
X43500000Y-27500000D02*
X44000000Y-27500000D01*
X54000000Y-28000000D02*
X54000000Y-28500000D01*
X45500000Y-27500000D02*
X46000000Y-27500000D01*
X49000000Y-27500000D02*
X49500000Y-27500000D01*
X35000000Y-27500000D02*
X35500000Y-27500000D01*
X29000000Y-27500000D02*
X29500000Y-27500000D01*
X54000000Y-45000000D02*
X54500000Y-45000000D01*
X34000000Y-27500000D02*
X34500000Y-27500000D01*
X29500000Y-27500000D02*
X30000000Y-27500000D01*
X31500000Y-27500000D02*
X32000000Y-27500000D01*
X54000000Y-41500000D02*
X54000000Y-42000000D01*
X54000000Y-29000000D02*
X54000000Y-29500000D01*
X41500000Y-27500000D02*
X42000000Y-27500000D01*
X28000000Y-27500000D02*
X28500000Y-27500000D01*
X44000000Y-27500000D02*
X44500000Y-27500000D01*
X31000000Y-27500000D02*
X31500000Y-27500000D01*
X30500000Y-27500000D02*
X31000000Y-27500000D01*
X36500000Y-27500000D02*
X37000000Y-27500000D01*
X54000000Y-36500000D02*
X54000000Y-37000000D01*
X54000000Y-35000000D02*
X54000000Y-35500000D01*
X45000000Y-27500000D02*
X45500000Y-27500000D01*
X54000000Y-33500000D02*
X54000000Y-34000000D01*
X32000000Y-27500000D02*
X32500000Y-27500000D01*
X46500000Y-27500000D02*
X47000000Y-27500000D01*
X42000000Y-27500000D02*
X42500000Y-27500000D01*
X54000000Y-30000000D02*
X54000000Y-30500000D01*
X27000000Y-27500000D02*
X27500000Y-27500000D01*
X27500000Y-27500000D02*
X28000000Y-27500000D01*
X54500000Y-45000000D02*
X55000000Y-45000000D01*
X51500000Y-27500000D02*
X52000000Y-27500000D01*
X32500000Y-27500000D02*
X33000000Y-27500000D01*
X53000000Y-27500000D02*
X53500000Y-27500000D01*
X54000000Y-34500000D02*
X54000000Y-35000000D01*
%TO.N,SPI_MOSI*%
X77500000Y-46500000D02*
X77000000Y-46500000D01*
X48000000Y-25500000D02*
X48500000Y-25500000D01*
X132000000Y-55000000D02*
X132000000Y-54500000D01*
X72000000Y-46500000D02*
X71500000Y-46500000D01*
X73500000Y-46500000D02*
X73000000Y-46500000D01*
X105500000Y-46500000D02*
X105000000Y-46500000D01*
X51500000Y-25500000D02*
X52000000Y-25500000D01*
X79000000Y-46500000D02*
X78500000Y-46500000D01*
X123500000Y-46500000D02*
X123000000Y-46500000D01*
X131000000Y-46500000D02*
X130500000Y-46500000D01*
X122500000Y-46500000D02*
X122000000Y-46500000D01*
X87500000Y-46500000D02*
X87000000Y-46500000D01*
X100500000Y-46500000D02*
X100000000Y-46500000D01*
X124000000Y-46500000D02*
X123500000Y-46500000D01*
X121500000Y-46500000D02*
X121000000Y-46500000D01*
X33500000Y-25500000D02*
X34000000Y-25500000D01*
X80000000Y-46500000D02*
X79500000Y-46500000D01*
X132000000Y-50000000D02*
X132000000Y-49500000D01*
X106000000Y-46500000D02*
X105500000Y-46500000D01*
X44000000Y-25500000D02*
X44500000Y-25500000D01*
X69000000Y-46500000D02*
X68500000Y-46500000D01*
X104500000Y-46500000D02*
X104000000Y-46500000D01*
X132000000Y-53000000D02*
X132000000Y-52500000D01*
X52000000Y-25500000D02*
X52500000Y-25500000D01*
X132000000Y-58000000D02*
X132000000Y-57500000D01*
X131000000Y-58500000D02*
X131500000Y-58500000D01*
X124500000Y-46500000D02*
X124000000Y-46500000D01*
X90500000Y-46500000D02*
X90000000Y-46500000D01*
X132000000Y-47500000D02*
X132000000Y-47000000D01*
X116000000Y-46500000D02*
X115500000Y-46500000D01*
X93500000Y-46500000D02*
X93000000Y-46500000D01*
X125500000Y-46500000D02*
X125000000Y-46500000D01*
X40000000Y-25500000D02*
X40500000Y-25500000D01*
X36000000Y-25500000D02*
X36500000Y-25500000D01*
X53500000Y-25500000D02*
X54000000Y-25500000D01*
X26500000Y-25500000D02*
X27000000Y-25500000D01*
X56500000Y-25500000D02*
X56500000Y-25000000D01*
X73000000Y-46500000D02*
X72500000Y-46500000D01*
X104000000Y-46500000D02*
X103500000Y-46500000D01*
X56000000Y-25500000D02*
X56500000Y-25500000D01*
X102000000Y-46500000D02*
X101500000Y-46500000D01*
X27500000Y-25500000D02*
X28000000Y-25500000D01*
X132000000Y-56500000D02*
X132000000Y-56000000D01*
X66500000Y-46500000D02*
X66000000Y-46500000D01*
X84500000Y-46500000D02*
X84000000Y-46500000D01*
X130500000Y-58500000D02*
X131000000Y-58500000D01*
X37000000Y-25500000D02*
X37500000Y-25500000D01*
X97500000Y-46500000D02*
X97000000Y-46500000D01*
X76500000Y-46500000D02*
X76000000Y-46500000D01*
X132000000Y-58500000D02*
X132000000Y-58000000D01*
X85500000Y-46500000D02*
X85000000Y-46500000D01*
X120000000Y-46500000D02*
X119500000Y-46500000D01*
X36500000Y-25500000D02*
X37000000Y-25500000D01*
X118000000Y-46500000D02*
X117500000Y-46500000D01*
X132000000Y-47000000D02*
X132000000Y-46500000D01*
X101000000Y-46500000D02*
X100500000Y-46500000D01*
X89500000Y-46500000D02*
X89000000Y-46500000D01*
X111500000Y-46500000D02*
X111000000Y-46500000D01*
X65500000Y-46500000D02*
X65000000Y-46500000D01*
X51000000Y-25500000D02*
X51500000Y-25500000D01*
X99000000Y-46500000D02*
X98500000Y-46500000D01*
X112500000Y-46500000D02*
X112000000Y-46500000D01*
X68500000Y-46500000D02*
X68000000Y-46500000D01*
X94500000Y-46500000D02*
X94000000Y-46500000D01*
X81500000Y-46500000D02*
X81000000Y-46500000D01*
X105000000Y-46500000D02*
X104500000Y-46500000D01*
X33000000Y-25500000D02*
X33500000Y-25500000D01*
X132000000Y-57500000D02*
X132000000Y-57000000D01*
X46500000Y-25500000D02*
X47000000Y-25500000D01*
X47000000Y-25500000D02*
X47500000Y-25500000D01*
X49000000Y-25500000D02*
X49500000Y-25500000D01*
X70000000Y-46500000D02*
X69500000Y-46500000D01*
X118500000Y-46500000D02*
X118000000Y-46500000D01*
X99500000Y-46500000D02*
X99000000Y-46500000D01*
X31000000Y-25500000D02*
X31500000Y-25500000D01*
X50500000Y-25500000D02*
X51000000Y-25500000D01*
X82000000Y-46500000D02*
X81500000Y-46500000D01*
X103500000Y-46500000D02*
X103000000Y-46500000D01*
X82500000Y-46500000D02*
X82000000Y-46500000D01*
X76000000Y-46500000D02*
X75500000Y-46500000D01*
X71000000Y-46500000D02*
X70500000Y-46500000D01*
X34000000Y-25500000D02*
X34500000Y-25500000D01*
X129000000Y-46500000D02*
X128500000Y-46500000D01*
X107000000Y-46500000D02*
X106500000Y-46500000D01*
X80500000Y-46500000D02*
X80000000Y-46500000D01*
X78000000Y-46500000D02*
X77500000Y-46500000D01*
X32500000Y-25500000D02*
X33000000Y-25500000D01*
X67500000Y-46500000D02*
X67000000Y-46500000D01*
X30500000Y-25500000D02*
X31000000Y-25500000D01*
X41000000Y-25500000D02*
X41500000Y-25500000D01*
X69500000Y-46500000D02*
X69000000Y-46500000D01*
X95500000Y-46500000D02*
X95000000Y-46500000D01*
X54500000Y-25500000D02*
X55000000Y-25500000D01*
X64500000Y-46500000D02*
X64000000Y-46500000D01*
X39500000Y-25500000D02*
X40000000Y-25500000D01*
X110500000Y-46500000D02*
X110000000Y-46500000D01*
X119500000Y-46500000D02*
X119000000Y-46500000D01*
X86000000Y-46500000D02*
X85500000Y-46500000D01*
X89000000Y-46500000D02*
X88500000Y-46500000D01*
X83000000Y-46500000D02*
X82500000Y-46500000D01*
X68000000Y-46500000D02*
X67500000Y-46500000D01*
X38000000Y-25500000D02*
X38500000Y-25500000D01*
X79500000Y-46500000D02*
X79000000Y-46500000D01*
X132000000Y-46500000D02*
X131500000Y-46500000D01*
X131500000Y-46500000D02*
X131000000Y-46500000D01*
X112000000Y-46500000D02*
X111500000Y-46500000D01*
X94000000Y-46500000D02*
X93500000Y-46500000D01*
X95000000Y-46500000D02*
X94500000Y-46500000D01*
X30000000Y-25500000D02*
X30500000Y-25500000D01*
X81000000Y-46500000D02*
X80500000Y-46500000D01*
X44500000Y-25500000D02*
X45000000Y-25500000D01*
X67000000Y-46500000D02*
X66500000Y-46500000D01*
X87000000Y-46500000D02*
X86500000Y-46500000D01*
X66000000Y-46500000D02*
X65500000Y-46500000D01*
X29500000Y-25500000D02*
X30000000Y-25500000D01*
X86500000Y-46500000D02*
X86000000Y-46500000D01*
X65000000Y-46500000D02*
X64500000Y-46500000D01*
X27000000Y-25500000D02*
X27500000Y-25500000D01*
X127500000Y-46500000D02*
X127000000Y-46500000D01*
X108500000Y-46500000D02*
X108000000Y-46500000D01*
X31500000Y-25500000D02*
X32000000Y-25500000D01*
X71500000Y-46500000D02*
X71000000Y-46500000D01*
X98000000Y-46500000D02*
X97500000Y-46500000D01*
X132000000Y-56000000D02*
X132000000Y-55500000D01*
X106500000Y-46500000D02*
X106000000Y-46500000D01*
X37500000Y-25500000D02*
X38000000Y-25500000D01*
X122000000Y-46500000D02*
X121500000Y-46500000D01*
X52500000Y-25500000D02*
X53000000Y-25500000D01*
X55500000Y-25500000D02*
X56000000Y-25500000D01*
X113000000Y-46500000D02*
X112500000Y-46500000D01*
X78500000Y-46500000D02*
X78000000Y-46500000D01*
X46000000Y-25500000D02*
X46500000Y-25500000D01*
X40500000Y-25500000D02*
X41000000Y-25500000D01*
X115000000Y-46500000D02*
X114500000Y-46500000D01*
X108000000Y-46500000D02*
X107500000Y-46500000D01*
X130500000Y-46500000D02*
X130000000Y-46500000D01*
X123000000Y-46500000D02*
X122500000Y-46500000D01*
X38500000Y-25500000D02*
X39000000Y-25500000D01*
X132000000Y-49500000D02*
X132000000Y-49000000D01*
X114000000Y-46500000D02*
X113500000Y-46500000D01*
X121000000Y-46500000D02*
X120500000Y-46500000D01*
X117500000Y-46500000D02*
X117000000Y-46500000D01*
X132000000Y-57000000D02*
X132000000Y-56500000D01*
X120500000Y-46500000D02*
X120000000Y-46500000D01*
X75000000Y-46500000D02*
X74500000Y-46500000D01*
X129500000Y-46500000D02*
X129000000Y-46500000D01*
X125000000Y-46500000D02*
X124500000Y-46500000D01*
X132000000Y-54500000D02*
X132000000Y-54000000D01*
X72500000Y-46500000D02*
X72000000Y-46500000D01*
X74000000Y-46500000D02*
X73500000Y-46500000D01*
X48500000Y-25500000D02*
X49000000Y-25500000D01*
X126500000Y-46500000D02*
X126000000Y-46500000D01*
X90000000Y-46500000D02*
X89500000Y-46500000D01*
X45000000Y-25500000D02*
X45500000Y-25500000D01*
X114500000Y-46500000D02*
X114000000Y-46500000D01*
X101500000Y-46500000D02*
X101000000Y-46500000D01*
X54000000Y-25500000D02*
X54500000Y-25500000D01*
X110000000Y-46500000D02*
X109500000Y-46500000D01*
X96000000Y-46500000D02*
X95500000Y-46500000D01*
X77000000Y-46500000D02*
X76500000Y-46500000D01*
X42000000Y-25500000D02*
X42500000Y-25500000D01*
X39000000Y-25500000D02*
X39500000Y-25500000D01*
X109000000Y-46500000D02*
X108500000Y-46500000D01*
X63500000Y-46500000D02*
X63000000Y-46500000D01*
X132000000Y-53500000D02*
X132000000Y-53000000D01*
X130000000Y-46500000D02*
X129500000Y-46500000D01*
X109500000Y-46500000D02*
X109000000Y-46500000D01*
X62000000Y-46500000D02*
X61500000Y-46500000D01*
X132000000Y-49000000D02*
X132000000Y-48500000D01*
X91000000Y-46500000D02*
X90500000Y-46500000D01*
X102500000Y-46500000D02*
X102000000Y-46500000D01*
X32000000Y-25500000D02*
X32500000Y-25500000D01*
X84000000Y-46500000D02*
X83500000Y-46500000D01*
X49500000Y-25500000D02*
X50000000Y-25500000D01*
X43500000Y-25500000D02*
X44000000Y-25500000D01*
X100000000Y-46500000D02*
X99500000Y-46500000D01*
X45500000Y-25500000D02*
X46000000Y-25500000D01*
X103000000Y-46500000D02*
X102500000Y-46500000D01*
X91500000Y-46500000D02*
X91000000Y-46500000D01*
X28000000Y-25500000D02*
X28500000Y-25500000D01*
X132000000Y-55500000D02*
X132000000Y-55000000D01*
X111000000Y-46500000D02*
X110500000Y-46500000D01*
X131500000Y-58500000D02*
X132000000Y-58500000D01*
X128500000Y-46500000D02*
X128000000Y-46500000D01*
X88500000Y-46500000D02*
X88000000Y-46500000D01*
X62500000Y-46500000D02*
X62000000Y-46500000D01*
X29000000Y-25500000D02*
X29500000Y-25500000D01*
X132000000Y-54000000D02*
X132000000Y-53500000D01*
X24862500Y-25350000D02*
X26500000Y-25500000D01*
X132000000Y-48500000D02*
X132000000Y-48000000D01*
X35500000Y-25500000D02*
X36000000Y-25500000D01*
X107500000Y-46500000D02*
X107000000Y-46500000D01*
X132000000Y-51500000D02*
X132000000Y-51000000D01*
X35000000Y-25500000D02*
X35500000Y-25500000D01*
X47500000Y-25500000D02*
X48000000Y-25500000D01*
X132000000Y-52000000D02*
X132000000Y-51500000D01*
X132000000Y-50500000D02*
X132000000Y-50000000D01*
X34500000Y-25500000D02*
X35000000Y-25500000D01*
X132000000Y-52500000D02*
X132000000Y-52000000D01*
X74500000Y-46500000D02*
X74000000Y-46500000D01*
X132000000Y-51000000D02*
X132000000Y-50500000D01*
X63000000Y-46500000D02*
X62500000Y-46500000D01*
X126000000Y-46500000D02*
X125500000Y-46500000D01*
X61500000Y-46500000D02*
X61000000Y-46500000D01*
X43000000Y-25500000D02*
X43500000Y-25500000D01*
X96500000Y-46500000D02*
X96000000Y-46500000D01*
X83500000Y-46500000D02*
X83000000Y-46500000D01*
X28500000Y-25500000D02*
X29000000Y-25500000D01*
X41500000Y-25500000D02*
X42000000Y-25500000D01*
X117000000Y-46500000D02*
X116500000Y-46500000D01*
X88000000Y-46500000D02*
X87500000Y-46500000D01*
X113500000Y-46500000D02*
X113000000Y-46500000D01*
X64000000Y-46500000D02*
X63500000Y-46500000D01*
X97000000Y-46500000D02*
X96500000Y-46500000D01*
X93000000Y-46500000D02*
X92500000Y-46500000D01*
X70500000Y-46500000D02*
X70000000Y-46500000D01*
X115500000Y-46500000D02*
X115000000Y-46500000D01*
X92500000Y-46500000D02*
X92000000Y-46500000D01*
X128000000Y-46500000D02*
X127500000Y-46500000D01*
X127000000Y-46500000D02*
X126500000Y-46500000D01*
X75500000Y-46500000D02*
X75000000Y-46500000D01*
X55000000Y-25500000D02*
X55500000Y-25500000D01*
X92000000Y-46500000D02*
X91500000Y-46500000D01*
X85000000Y-46500000D02*
X84500000Y-46500000D01*
X50000000Y-25500000D02*
X50500000Y-25500000D01*
X53000000Y-25500000D02*
X53500000Y-25500000D01*
X116500000Y-46500000D02*
X116000000Y-46500000D01*
X132000000Y-48000000D02*
X132000000Y-47500000D01*
X119000000Y-46500000D02*
X118500000Y-46500000D01*
X42500000Y-25500000D02*
X43000000Y-25500000D01*
X98500000Y-46500000D02*
X98000000Y-46500000D01*
%TO.N,SPI_MISO*%
X61500000Y-56000000D02*
X61000000Y-56000000D01*
X30000000Y-26000000D02*
X30500000Y-26000000D01*
X40500000Y-26000000D02*
X41000000Y-26000000D01*
X80500000Y-56000000D02*
X80000000Y-56000000D01*
X105500000Y-56000000D02*
X105000000Y-56000000D01*
X34000000Y-26000000D02*
X34500000Y-26000000D01*
X125500000Y-56000000D02*
X125000000Y-56000000D01*
X84500000Y-56000000D02*
X84000000Y-56000000D01*
X50500000Y-26000000D02*
X51000000Y-26000000D01*
X53500000Y-26000000D02*
X54000000Y-26000000D01*
X103000000Y-56000000D02*
X102500000Y-56000000D01*
X78500000Y-56000000D02*
X78000000Y-56000000D01*
X110000000Y-56000000D02*
X109500000Y-56000000D01*
X86500000Y-56000000D02*
X86000000Y-56000000D01*
X118000000Y-56000000D02*
X117500000Y-56000000D01*
X68500000Y-56000000D02*
X68000000Y-56000000D01*
X109500000Y-56000000D02*
X109000000Y-56000000D01*
X60000000Y-45500000D02*
X60000000Y-45000000D01*
X37500000Y-26000000D02*
X38000000Y-26000000D01*
X78000000Y-56000000D02*
X77500000Y-56000000D01*
X74500000Y-56000000D02*
X74000000Y-56000000D01*
X67500000Y-56000000D02*
X67000000Y-56000000D01*
X39500000Y-26000000D02*
X40000000Y-26000000D01*
X76500000Y-56000000D02*
X76000000Y-56000000D01*
X85000000Y-56000000D02*
X84500000Y-56000000D01*
X84000000Y-56000000D02*
X83500000Y-56000000D01*
X54500000Y-26000000D02*
X55000000Y-26000000D01*
X126000000Y-56000000D02*
X125500000Y-56000000D01*
X31500000Y-26000000D02*
X32000000Y-26000000D01*
X60000000Y-48000000D02*
X60000000Y-47500000D01*
X111000000Y-56000000D02*
X110500000Y-56000000D01*
X57000000Y-26000000D02*
X57500000Y-26000000D01*
X33500000Y-26000000D02*
X34000000Y-26000000D01*
X118500000Y-56000000D02*
X118000000Y-56000000D01*
X48000000Y-26000000D02*
X48500000Y-26000000D01*
X60000000Y-50000000D02*
X60000000Y-49500000D01*
X60000000Y-52000000D02*
X60000000Y-51500000D01*
X73000000Y-56000000D02*
X72500000Y-56000000D01*
X125000000Y-56000000D02*
X124500000Y-56000000D01*
X69500000Y-56000000D02*
X69000000Y-56000000D01*
X56500000Y-26000000D02*
X57000000Y-26000000D01*
X99500000Y-56000000D02*
X99000000Y-56000000D01*
X28500000Y-26000000D02*
X29000000Y-26000000D01*
X75000000Y-56000000D02*
X74500000Y-56000000D01*
X122000000Y-56000000D02*
X121500000Y-56000000D01*
X41500000Y-26000000D02*
X42000000Y-26000000D01*
X52000000Y-26000000D02*
X52500000Y-26000000D01*
X28000000Y-26000000D02*
X28500000Y-26000000D01*
X29000000Y-26000000D02*
X29500000Y-26000000D01*
X92500000Y-56000000D02*
X92000000Y-56000000D01*
X119000000Y-56000000D02*
X118500000Y-56000000D01*
X106500000Y-56000000D02*
X106000000Y-56000000D01*
X32500000Y-26000000D02*
X33000000Y-26000000D01*
X35000000Y-26000000D02*
X35500000Y-26000000D01*
X82500000Y-56000000D02*
X82000000Y-56000000D01*
X85500000Y-56000000D02*
X85000000Y-56000000D01*
X100000000Y-56000000D02*
X99500000Y-56000000D01*
X43000000Y-26000000D02*
X43500000Y-26000000D01*
X102000000Y-56000000D02*
X101500000Y-56000000D01*
X77500000Y-56000000D02*
X77000000Y-56000000D01*
X60000000Y-47500000D02*
X60000000Y-47000000D01*
X60000000Y-49000000D02*
X60000000Y-48500000D01*
X45000000Y-26000000D02*
X45500000Y-26000000D01*
X117000000Y-56000000D02*
X116500000Y-56000000D01*
X60000000Y-51500000D02*
X60000000Y-51000000D01*
X127000000Y-56000000D02*
X126500000Y-56000000D01*
X53000000Y-26000000D02*
X53500000Y-26000000D01*
X113000000Y-56000000D02*
X112500000Y-56000000D01*
X88500000Y-56000000D02*
X88000000Y-56000000D01*
X81000000Y-56000000D02*
X80500000Y-56000000D01*
X90000000Y-56000000D02*
X89500000Y-56000000D01*
X60000000Y-50500000D02*
X60000000Y-50000000D01*
X72000000Y-56000000D02*
X71500000Y-56000000D01*
X126500000Y-56000000D02*
X126000000Y-56000000D01*
X60000000Y-55500000D02*
X60000000Y-55000000D01*
X89500000Y-56000000D02*
X89000000Y-56000000D01*
X70500000Y-56000000D02*
X70000000Y-56000000D01*
X38000000Y-26000000D02*
X38500000Y-26000000D01*
X92000000Y-56000000D02*
X91500000Y-56000000D01*
X60000000Y-54000000D02*
X60000000Y-53500000D01*
X65500000Y-56000000D02*
X65000000Y-56000000D01*
X51500000Y-26000000D02*
X52000000Y-26000000D01*
X96000000Y-56000000D02*
X95500000Y-56000000D01*
X61000000Y-56000000D02*
X60500000Y-56000000D01*
X127500000Y-56000000D02*
X127000000Y-56000000D01*
X40000000Y-26000000D02*
X40500000Y-26000000D01*
X46500000Y-26000000D02*
X47000000Y-26000000D01*
X58000000Y-26000000D02*
X58500000Y-26000000D01*
X88000000Y-56000000D02*
X87500000Y-56000000D01*
X107000000Y-56000000D02*
X106500000Y-56000000D01*
X36500000Y-26000000D02*
X37000000Y-26000000D01*
X27500000Y-26000000D02*
X28000000Y-26000000D01*
X60000000Y-54500000D02*
X60000000Y-54000000D01*
X60000000Y-53000000D02*
X60000000Y-52500000D01*
X116000000Y-56000000D02*
X115500000Y-56000000D01*
X121500000Y-56000000D02*
X121000000Y-56000000D01*
X44500000Y-26000000D02*
X45000000Y-26000000D01*
X94000000Y-56000000D02*
X93500000Y-56000000D01*
X63000000Y-56000000D02*
X62500000Y-56000000D01*
X91000000Y-56000000D02*
X90500000Y-56000000D01*
X101000000Y-56000000D02*
X100500000Y-56000000D01*
X114500000Y-56000000D02*
X114000000Y-56000000D01*
X57500000Y-26000000D02*
X58000000Y-26000000D01*
X56000000Y-26000000D02*
X56500000Y-26000000D01*
X30500000Y-26000000D02*
X31000000Y-26000000D01*
X124000000Y-56000000D02*
X123500000Y-56000000D01*
X41000000Y-26000000D02*
X41500000Y-26000000D01*
X96500000Y-56000000D02*
X96000000Y-56000000D01*
X69000000Y-56000000D02*
X68500000Y-56000000D01*
X104500000Y-56000000D02*
X104000000Y-56000000D01*
X97500000Y-56000000D02*
X97000000Y-56000000D01*
X45500000Y-26000000D02*
X46000000Y-26000000D01*
X128000000Y-56000000D02*
X127500000Y-56000000D01*
X75500000Y-56000000D02*
X75000000Y-56000000D01*
X120500000Y-56000000D02*
X120000000Y-56000000D01*
X58500000Y-26000000D02*
X59000000Y-26000000D01*
X60000000Y-51000000D02*
X60000000Y-50500000D01*
X120000000Y-56000000D02*
X119500000Y-56000000D01*
X35500000Y-26000000D02*
X36000000Y-26000000D01*
X60000000Y-56000000D02*
X60000000Y-55500000D01*
X60500000Y-56000000D02*
X60000000Y-56000000D01*
X112000000Y-56000000D02*
X111500000Y-56000000D01*
X64500000Y-56000000D02*
X64000000Y-56000000D01*
X60000000Y-49500000D02*
X60000000Y-49000000D01*
X80000000Y-56000000D02*
X79500000Y-56000000D01*
X111500000Y-56000000D02*
X111000000Y-56000000D01*
X42000000Y-26000000D02*
X42500000Y-26000000D01*
X93500000Y-56000000D02*
X93000000Y-56000000D01*
X43500000Y-26000000D02*
X44000000Y-26000000D01*
X105000000Y-56000000D02*
X104500000Y-56000000D01*
X115000000Y-56000000D02*
X114500000Y-56000000D01*
X107500000Y-56000000D02*
X107000000Y-56000000D01*
X93000000Y-56000000D02*
X92500000Y-56000000D01*
X114000000Y-56000000D02*
X113500000Y-56000000D01*
X49000000Y-26000000D02*
X49500000Y-26000000D01*
X89000000Y-56000000D02*
X88500000Y-56000000D01*
X62500000Y-56000000D02*
X62000000Y-56000000D01*
X48500000Y-26000000D02*
X49000000Y-26000000D01*
X124500000Y-56000000D02*
X124000000Y-56000000D01*
X33000000Y-26000000D02*
X33500000Y-26000000D01*
X119500000Y-56000000D02*
X119000000Y-56000000D01*
X39000000Y-26000000D02*
X39500000Y-26000000D01*
X49500000Y-26000000D02*
X50000000Y-26000000D01*
X90500000Y-56000000D02*
X90000000Y-56000000D01*
X97000000Y-56000000D02*
X96500000Y-56000000D01*
X36000000Y-26000000D02*
X36500000Y-26000000D01*
X66500000Y-56000000D02*
X66000000Y-56000000D01*
X108000000Y-56000000D02*
X107500000Y-56000000D01*
X31000000Y-26000000D02*
X31500000Y-26000000D01*
X103500000Y-56000000D02*
X103000000Y-56000000D01*
X71500000Y-56000000D02*
X71000000Y-56000000D01*
X116500000Y-56000000D02*
X116000000Y-56000000D01*
X123000000Y-56000000D02*
X122500000Y-56000000D01*
X115500000Y-56000000D02*
X115000000Y-56000000D01*
X86000000Y-56000000D02*
X85500000Y-56000000D01*
X95500000Y-56000000D02*
X95000000Y-56000000D01*
X79500000Y-56000000D02*
X79000000Y-56000000D01*
X73500000Y-56000000D02*
X73000000Y-56000000D01*
X54000000Y-26000000D02*
X54500000Y-26000000D01*
X71000000Y-56000000D02*
X70500000Y-56000000D01*
X47000000Y-26000000D02*
X47500000Y-26000000D01*
X37000000Y-26000000D02*
X37500000Y-26000000D01*
X32000000Y-26000000D02*
X32500000Y-26000000D01*
X95000000Y-56000000D02*
X94500000Y-56000000D01*
X83500000Y-56000000D02*
X83000000Y-56000000D01*
X74000000Y-56000000D02*
X73500000Y-56000000D01*
X59000000Y-26000000D02*
X59000000Y-25500000D01*
X64000000Y-56000000D02*
X63500000Y-56000000D01*
X76000000Y-56000000D02*
X75500000Y-56000000D01*
X83000000Y-56000000D02*
X82500000Y-56000000D01*
X24862500Y-26000000D02*
X26500000Y-26000000D01*
X112500000Y-56000000D02*
X112000000Y-56000000D01*
X34500000Y-26000000D02*
X35000000Y-26000000D01*
X60000000Y-53500000D02*
X60000000Y-53000000D01*
X104000000Y-56000000D02*
X103500000Y-56000000D01*
X55500000Y-26000000D02*
X56000000Y-26000000D01*
X94500000Y-56000000D02*
X94000000Y-56000000D01*
X72500000Y-56000000D02*
X72000000Y-56000000D01*
X52500000Y-26000000D02*
X53000000Y-26000000D01*
X87500000Y-56000000D02*
X87000000Y-56000000D01*
X62000000Y-56000000D02*
X61500000Y-56000000D01*
X100500000Y-56000000D02*
X100000000Y-56000000D01*
X91500000Y-56000000D02*
X91000000Y-56000000D01*
X63500000Y-56000000D02*
X63000000Y-56000000D01*
X55000000Y-26000000D02*
X55500000Y-26000000D01*
X98000000Y-56000000D02*
X97500000Y-56000000D01*
X77000000Y-56000000D02*
X76500000Y-56000000D01*
X82000000Y-56000000D02*
X81500000Y-56000000D01*
X121000000Y-56000000D02*
X120500000Y-56000000D01*
X67000000Y-56000000D02*
X66500000Y-56000000D01*
X47500000Y-26000000D02*
X48000000Y-26000000D01*
X46000000Y-26000000D02*
X46500000Y-26000000D01*
X29500000Y-26000000D02*
X30000000Y-26000000D01*
X122500000Y-56000000D02*
X122000000Y-56000000D01*
X108500000Y-56000000D02*
X108000000Y-56000000D01*
X70000000Y-56000000D02*
X69500000Y-56000000D01*
X60000000Y-46000000D02*
X60000000Y-45500000D01*
X109000000Y-56000000D02*
X108500000Y-56000000D01*
X60000000Y-52500000D02*
X60000000Y-52000000D01*
X68000000Y-56000000D02*
X67500000Y-56000000D01*
X106000000Y-56000000D02*
X105500000Y-56000000D01*
X51000000Y-26000000D02*
X51500000Y-26000000D01*
X117500000Y-56000000D02*
X117000000Y-56000000D01*
X101500000Y-56000000D02*
X101000000Y-56000000D01*
X27000000Y-26000000D02*
X27500000Y-26000000D01*
X98500000Y-56000000D02*
X98000000Y-56000000D01*
X66000000Y-56000000D02*
X65500000Y-56000000D01*
X79000000Y-56000000D02*
X78500000Y-56000000D01*
X81500000Y-56000000D02*
X81000000Y-56000000D01*
X44000000Y-26000000D02*
X44500000Y-26000000D01*
X110500000Y-56000000D02*
X110000000Y-56000000D01*
X60000000Y-48500000D02*
X60000000Y-48000000D01*
X60000000Y-55000000D02*
X60000000Y-54500000D01*
X50000000Y-26000000D02*
X50500000Y-26000000D01*
X87000000Y-56000000D02*
X86500000Y-56000000D01*
X26500000Y-26000000D02*
X27000000Y-26000000D01*
X42500000Y-26000000D02*
X43000000Y-26000000D01*
X60000000Y-47000000D02*
X60000000Y-46500000D01*
X60000000Y-46500000D02*
X60000000Y-46000000D01*
X113500000Y-56000000D02*
X113000000Y-56000000D01*
X65000000Y-56000000D02*
X64500000Y-56000000D01*
X123500000Y-56000000D02*
X123000000Y-56000000D01*
X102500000Y-56000000D02*
X102000000Y-56000000D01*
X99000000Y-56000000D02*
X98500000Y-56000000D01*
X38500000Y-26000000D02*
X39000000Y-26000000D01*
%TO.N,SPI_SCK*%
X48500000Y-26500000D02*
X49000000Y-26500000D01*
X61500000Y-26500000D02*
X61500000Y-27000000D01*
X32500000Y-26500000D02*
X33000000Y-26500000D01*
X37000000Y-26500000D02*
X37500000Y-26500000D01*
X44500000Y-26500000D02*
X45000000Y-26500000D01*
X40000000Y-26500000D02*
X40500000Y-26500000D01*
X34000000Y-26500000D02*
X34500000Y-26500000D01*
X52000000Y-26500000D02*
X52500000Y-26500000D01*
X61500000Y-34500000D02*
X61500000Y-35000000D01*
X55500000Y-26500000D02*
X56000000Y-26500000D01*
X60500000Y-26500000D02*
X61000000Y-26500000D01*
X61500000Y-29000000D02*
X61500000Y-29500000D01*
X24862500Y-26650000D02*
X26500000Y-26500000D01*
X52500000Y-26500000D02*
X53000000Y-26500000D01*
X29000000Y-26500000D02*
X29500000Y-26500000D01*
X61500000Y-39500000D02*
X61500000Y-40000000D01*
X50000000Y-26500000D02*
X50500000Y-26500000D01*
X28000000Y-26500000D02*
X28500000Y-26500000D01*
X61500000Y-37500000D02*
X61500000Y-38000000D01*
X35500000Y-26500000D02*
X36000000Y-26500000D01*
X49500000Y-26500000D02*
X50000000Y-26500000D01*
X43000000Y-26500000D02*
X43500000Y-26500000D01*
X49000000Y-26500000D02*
X49500000Y-26500000D01*
X46500000Y-26500000D02*
X47000000Y-26500000D01*
X39500000Y-26500000D02*
X40000000Y-26500000D01*
X61500000Y-35000000D02*
X61500000Y-35500000D01*
X61500000Y-36000000D02*
X61500000Y-36500000D01*
X54000000Y-26500000D02*
X54500000Y-26500000D01*
X41000000Y-26500000D02*
X41500000Y-26500000D01*
X45000000Y-26500000D02*
X45500000Y-26500000D01*
X56000000Y-26500000D02*
X56500000Y-26500000D01*
X42500000Y-26500000D02*
X43000000Y-26500000D01*
X61500000Y-42500000D02*
X61500000Y-43000000D01*
X61500000Y-43500000D02*
X61500000Y-44000000D01*
X61500000Y-34000000D02*
X61500000Y-34500000D01*
X61500000Y-38500000D02*
X61500000Y-39000000D01*
X61500000Y-44500000D02*
X61500000Y-45000000D01*
X61500000Y-39000000D02*
X61500000Y-39500000D01*
X32000000Y-26500000D02*
X32500000Y-26500000D01*
X50500000Y-26500000D02*
X51000000Y-26500000D01*
X61500000Y-44000000D02*
X61500000Y-44500000D01*
X61500000Y-33000000D02*
X61500000Y-33500000D01*
X57000000Y-26500000D02*
X57500000Y-26500000D01*
X61500000Y-43000000D02*
X61500000Y-43500000D01*
X57500000Y-26500000D02*
X58000000Y-26500000D01*
X61500000Y-41000000D02*
X61500000Y-41500000D01*
X61500000Y-42000000D02*
X61500000Y-42500000D01*
X38000000Y-26500000D02*
X38500000Y-26500000D01*
X33500000Y-26500000D02*
X34000000Y-26500000D01*
X53500000Y-26500000D02*
X54000000Y-26500000D01*
X47500000Y-26500000D02*
X48000000Y-26500000D01*
X36000000Y-26500000D02*
X36500000Y-26500000D01*
X58500000Y-26500000D02*
X59000000Y-26500000D01*
X35000000Y-26500000D02*
X35500000Y-26500000D01*
X61500000Y-36500000D02*
X61500000Y-37000000D01*
X55000000Y-26500000D02*
X55500000Y-26500000D01*
X41500000Y-26500000D02*
X42000000Y-26500000D01*
X61000000Y-26500000D02*
X61500000Y-26500000D01*
X61500000Y-27500000D02*
X61500000Y-28000000D01*
X61500000Y-30500000D02*
X61500000Y-31000000D01*
X38500000Y-26500000D02*
X39000000Y-26500000D01*
X34500000Y-26500000D02*
X35000000Y-26500000D01*
X61500000Y-29500000D02*
X61500000Y-30000000D01*
X61500000Y-38000000D02*
X61500000Y-38500000D01*
X44000000Y-26500000D02*
X44500000Y-26500000D01*
X61500000Y-40000000D02*
X61500000Y-40500000D01*
X61500000Y-35500000D02*
X61500000Y-36000000D01*
X53000000Y-26500000D02*
X53500000Y-26500000D01*
X61500000Y-32000000D02*
X61500000Y-32500000D01*
X39000000Y-26500000D02*
X39500000Y-26500000D01*
X27000000Y-26500000D02*
X27500000Y-26500000D01*
X51000000Y-26500000D02*
X51500000Y-26500000D01*
X29500000Y-26500000D02*
X30000000Y-26500000D01*
X60000000Y-26500000D02*
X60500000Y-26500000D01*
X56500000Y-26500000D02*
X57000000Y-26500000D01*
X61500000Y-28500000D02*
X61500000Y-29000000D01*
X61500000Y-31500000D02*
X61500000Y-32000000D01*
X48000000Y-26500000D02*
X48500000Y-26500000D01*
X54500000Y-26500000D02*
X55000000Y-26500000D01*
X61500000Y-45000000D02*
X62000000Y-45000000D01*
X42000000Y-26500000D02*
X42500000Y-26500000D01*
X27500000Y-26500000D02*
X28000000Y-26500000D01*
X61500000Y-32500000D02*
X61500000Y-33000000D01*
X47000000Y-26500000D02*
X47500000Y-26500000D01*
X62000000Y-45000000D02*
X62500000Y-45000000D01*
X61500000Y-41500000D02*
X61500000Y-42000000D01*
X61500000Y-31000000D02*
X61500000Y-31500000D01*
X28500000Y-26500000D02*
X29000000Y-26500000D01*
X61500000Y-27000000D02*
X61500000Y-27500000D01*
X45500000Y-26500000D02*
X46000000Y-26500000D01*
X61500000Y-33500000D02*
X61500000Y-34000000D01*
X46000000Y-26500000D02*
X46500000Y-26500000D01*
X62500000Y-45000000D02*
X63000000Y-45000000D01*
X26500000Y-26500000D02*
X27000000Y-26500000D01*
X31000000Y-26500000D02*
X31500000Y-26500000D01*
X51500000Y-26500000D02*
X52000000Y-26500000D01*
X33000000Y-26500000D02*
X33500000Y-26500000D01*
X61500000Y-37000000D02*
X61500000Y-37500000D01*
X30500000Y-26500000D02*
X31000000Y-26500000D01*
X31500000Y-26500000D02*
X32000000Y-26500000D01*
X30000000Y-26500000D02*
X30500000Y-26500000D01*
X36500000Y-26500000D02*
X37000000Y-26500000D01*
X61500000Y-28000000D02*
X61500000Y-28500000D01*
X37500000Y-26500000D02*
X38000000Y-26500000D01*
X61500000Y-30000000D02*
X61500000Y-30500000D01*
X58000000Y-26500000D02*
X58500000Y-26500000D01*
X43500000Y-26500000D02*
X44000000Y-26500000D01*
X59000000Y-26500000D02*
X59500000Y-26500000D01*
X40500000Y-26500000D02*
X41000000Y-26500000D01*
X61500000Y-40500000D02*
X61500000Y-41000000D01*
X59500000Y-26500000D02*
X60000000Y-26500000D01*
%TO.N,MAX_DRDY*%
X30500000Y-20000000D02*
X30000000Y-20000000D01*
X21000000Y-20000000D02*
X20500000Y-20000000D01*
X27000000Y-20000000D02*
X26500000Y-20000000D01*
X19137500Y-27950000D02*
X17500000Y-28000000D01*
X20500000Y-24000000D02*
X20500000Y-24500000D01*
X19000000Y-28000000D02*
X18500000Y-28000000D01*
X20500000Y-25000000D02*
X20500000Y-25500000D01*
X24500000Y-20000000D02*
X24000000Y-20000000D01*
X20500000Y-27500000D02*
X20500000Y-28000000D01*
X19500000Y-28000000D02*
X19000000Y-28000000D01*
X28500000Y-20000000D02*
X28000000Y-20000000D01*
X30000000Y-20000000D02*
X29500000Y-20000000D01*
X18500000Y-28000000D02*
X18000000Y-28000000D01*
X25500000Y-20000000D02*
X25000000Y-20000000D01*
X23500000Y-20000000D02*
X23000000Y-20000000D01*
X20500000Y-22500000D02*
X20500000Y-23000000D01*
X20500000Y-24500000D02*
X20500000Y-25000000D01*
X26500000Y-20000000D02*
X26000000Y-20000000D01*
X20000000Y-28000000D02*
X19500000Y-28000000D01*
X20500000Y-21000000D02*
X20500000Y-21500000D01*
X26000000Y-20000000D02*
X25500000Y-20000000D01*
X29000000Y-20000000D02*
X28500000Y-20000000D01*
X18000000Y-28000000D02*
X17500000Y-28000000D01*
X20500000Y-25500000D02*
X20500000Y-26000000D01*
X21500000Y-20000000D02*
X21000000Y-20000000D01*
X20500000Y-22000000D02*
X20500000Y-22500000D01*
X27500000Y-20000000D02*
X27000000Y-20000000D01*
X23000000Y-20000000D02*
X22500000Y-20000000D01*
X24000000Y-20000000D02*
X23500000Y-20000000D01*
X20500000Y-27000000D02*
X20500000Y-27500000D01*
X29500000Y-20000000D02*
X29000000Y-20000000D01*
X20500000Y-28000000D02*
X20000000Y-28000000D01*
X20500000Y-26500000D02*
X20500000Y-27000000D01*
X20500000Y-26000000D02*
X20500000Y-26500000D01*
X28000000Y-20000000D02*
X27500000Y-20000000D01*
X25000000Y-20000000D02*
X24500000Y-20000000D01*
X22000000Y-20000000D02*
X21500000Y-20000000D01*
X31000000Y-20000000D02*
X30500000Y-20000000D01*
X20500000Y-20500000D02*
X20500000Y-21000000D01*
X20500000Y-20000000D02*
X20500000Y-20500000D01*
X20500000Y-23500000D02*
X20500000Y-24000000D01*
X20500000Y-21500000D02*
X20500000Y-22000000D01*
X22500000Y-20000000D02*
X22000000Y-20000000D01*
X20500000Y-23000000D02*
X20500000Y-23500000D01*
%TO.N,MAX_FAULT*%
X27000000Y-24500000D02*
X26500000Y-24500000D01*
X29000000Y-24500000D02*
X28500000Y-24500000D01*
X30500000Y-24500000D02*
X30000000Y-24500000D01*
X31000000Y-24500000D02*
X30500000Y-24500000D01*
X28000000Y-24500000D02*
X27500000Y-24500000D01*
X27500000Y-24500000D02*
X27000000Y-24500000D01*
X24862500Y-24700000D02*
X26500000Y-24500000D01*
X31000000Y-24000000D02*
X31000000Y-24500000D01*
X31000000Y-23000000D02*
X31000000Y-23500000D01*
X28500000Y-24500000D02*
X28000000Y-24500000D01*
X30000000Y-24500000D02*
X29500000Y-24500000D01*
X31000000Y-23500000D02*
X31000000Y-24000000D01*
X29500000Y-24500000D02*
X29000000Y-24500000D01*
%TO.N,TC_RAW_PLUS*%
X6000000Y-24000000D02*
X6000000Y-24500000D01*
X10500000Y-23500000D02*
X10000000Y-23500000D01*
X10000000Y-23500000D02*
X9500000Y-23500000D01*
X8500000Y-23500000D02*
X8000000Y-23500000D01*
X7500000Y-23500000D02*
X7000000Y-23500000D01*
X6000000Y-23500000D02*
X6000000Y-24000000D01*
X11000000Y-23500000D02*
X10500000Y-23500000D01*
X9500000Y-23500000D02*
X9000000Y-23500000D01*
X6000000Y-24500000D02*
X6000000Y-25000000D01*
X8000000Y-23500000D02*
X7500000Y-23500000D01*
X12587500Y-23500000D02*
X11000000Y-23500000D01*
X6500000Y-23500000D02*
X6000000Y-23500000D01*
X7000000Y-23500000D02*
X6500000Y-23500000D01*
X9000000Y-23500000D02*
X8500000Y-23500000D01*
%TO.N,TC_PLUS*%
X16500000Y-26000000D02*
X16000000Y-26000000D01*
X8500000Y-31000000D02*
X9000000Y-31000000D01*
X16000000Y-24000000D02*
X16000000Y-23500000D01*
X15000000Y-26000000D02*
X15500000Y-26000000D01*
X13500000Y-26000000D02*
X14000000Y-26000000D01*
X14412500Y-23500000D02*
X16000000Y-23500000D01*
X19137500Y-26000000D02*
X17500000Y-26000000D01*
X13500000Y-29000000D02*
X13500000Y-28500000D01*
X8500000Y-33500000D02*
X8500000Y-33000000D01*
X14500000Y-26000000D02*
X15000000Y-26000000D01*
X10500000Y-31000000D02*
X11000000Y-31000000D01*
X8500000Y-35000000D02*
X8500000Y-34500000D01*
X8500000Y-32500000D02*
X8500000Y-32000000D01*
X11000000Y-31000000D02*
X11500000Y-31000000D01*
X16000000Y-24500000D02*
X16000000Y-24000000D01*
X13500000Y-29500000D02*
X13500000Y-29000000D01*
X8500000Y-34000000D02*
X8500000Y-33500000D01*
X13000000Y-31000000D02*
X13500000Y-31000000D01*
X13500000Y-28000000D02*
X13500000Y-27500000D01*
X8500000Y-34500000D02*
X8500000Y-34000000D01*
X15500000Y-26000000D02*
X16000000Y-26000000D01*
X16000000Y-26000000D02*
X16000000Y-25500000D01*
X16000000Y-25000000D02*
X16000000Y-24500000D01*
X13500000Y-26500000D02*
X13500000Y-26000000D01*
X8500000Y-32000000D02*
X8500000Y-31500000D01*
X13500000Y-27000000D02*
X13500000Y-26500000D01*
X14550000Y-31000000D02*
X13000000Y-31000000D01*
X13500000Y-28500000D02*
X13500000Y-28000000D01*
X9000000Y-31000000D02*
X9500000Y-31000000D01*
X13500000Y-30500000D02*
X13500000Y-30000000D01*
X13500000Y-27500000D02*
X13500000Y-27000000D01*
X17500000Y-26000000D02*
X17000000Y-26000000D01*
X16000000Y-25500000D02*
X16000000Y-25000000D01*
X12500000Y-31000000D02*
X13000000Y-31000000D01*
X8500000Y-31500000D02*
X8500000Y-31000000D01*
X9500000Y-31000000D02*
X10000000Y-31000000D01*
X13500000Y-30000000D02*
X13500000Y-29500000D01*
X8500000Y-33000000D02*
X8500000Y-32500000D01*
X11500000Y-31000000D02*
X12000000Y-31000000D01*
X13500000Y-31000000D02*
X13500000Y-30500000D01*
X17000000Y-26000000D02*
X16500000Y-26000000D01*
X10050000Y-35000000D02*
X8500000Y-35000000D01*
X14000000Y-26000000D02*
X14500000Y-26000000D01*
X10000000Y-31000000D02*
X10500000Y-31000000D01*
X12000000Y-31000000D02*
X12500000Y-31000000D01*
%TO.N,TC_RAW_MINUS*%
X11000000Y-25000000D02*
X11000000Y-24500000D01*
X11000000Y-27000000D02*
X11000000Y-26500000D01*
X11000000Y-26000000D02*
X11000000Y-25500000D01*
X11000000Y-25500000D02*
X11000000Y-25000000D01*
X12587500Y-27500000D02*
X11000000Y-27500000D01*
X11000000Y-27500000D02*
X11000000Y-27000000D01*
X11000000Y-26500000D02*
X11000000Y-26000000D01*
%TO.N,TC_MINUS*%
X18000000Y-31000000D02*
X17500000Y-31000000D01*
X17500000Y-33000000D02*
X17500000Y-32500000D01*
X17500000Y-36000000D02*
X17500000Y-35500000D01*
X16500000Y-31000000D02*
X16000000Y-31000000D01*
X19137500Y-24700000D02*
X17500000Y-24500000D01*
X17500000Y-25500000D02*
X17500000Y-25000000D01*
X16000000Y-29000000D02*
X16000000Y-28500000D01*
X16000000Y-30000000D02*
X16000000Y-29500000D01*
X17500000Y-33500000D02*
X17500000Y-33000000D01*
X17500000Y-35000000D02*
X17500000Y-34500000D01*
X17500000Y-24500000D02*
X17500000Y-25000000D01*
X19050000Y-36000000D02*
X17500000Y-36000000D01*
X14412500Y-27500000D02*
X16000000Y-27500000D01*
X16000000Y-30500000D02*
X16000000Y-30000000D01*
X17500000Y-35500000D02*
X17500000Y-35000000D01*
X16450000Y-31000000D02*
X18000000Y-31000000D01*
X17000000Y-31000000D02*
X16500000Y-31000000D01*
X17500000Y-34500000D02*
X17500000Y-34000000D01*
X16000000Y-31000000D02*
X16000000Y-30500000D01*
X16000000Y-28000000D02*
X16000000Y-27500000D01*
X17500000Y-32000000D02*
X17500000Y-31500000D01*
X16000000Y-29500000D02*
X16000000Y-29000000D01*
X17500000Y-34000000D02*
X17500000Y-33500000D01*
X16000000Y-28500000D02*
X16000000Y-28000000D01*
X17500000Y-32500000D02*
X17500000Y-32000000D01*
X17500000Y-31500000D02*
X17500000Y-31000000D01*
X19137500Y-25350000D02*
X17500000Y-25500000D01*
X17500000Y-31000000D02*
X17000000Y-31000000D01*
%TO.N,LCD_RS*%
X42500000Y-13000000D02*
X42500000Y-13500000D01*
X42500000Y-24000000D02*
X42500000Y-24500000D01*
X42500000Y-7000000D02*
X42500000Y-7500000D01*
X42500000Y-16500000D02*
X42500000Y-17000000D01*
X42500000Y-21000000D02*
X42500000Y-21500000D01*
X42500000Y-11500000D02*
X42500000Y-12000000D01*
X42500000Y-22500000D02*
X42500000Y-23000000D01*
X42500000Y-21500000D02*
X42500000Y-22000000D01*
X42500000Y-17500000D02*
X42500000Y-18000000D01*
X42500000Y-14500000D02*
X42500000Y-15000000D01*
X42500000Y-20000000D02*
X42500000Y-20500000D01*
X42500000Y-10000000D02*
X42500000Y-10500000D01*
X42500000Y-15000000D02*
X42500000Y-15500000D01*
X42500000Y-23500000D02*
X42500000Y-24000000D01*
X42500000Y-19000000D02*
X42500000Y-19500000D01*
X42500000Y-17000000D02*
X42500000Y-17500000D01*
X42500000Y-8000000D02*
X42500000Y-8500000D01*
X42500000Y-19500000D02*
X42500000Y-20000000D01*
X42500000Y-8500000D02*
X42500000Y-9000000D01*
X42500000Y-7500000D02*
X42500000Y-8000000D01*
X42500000Y-23000000D02*
X42500000Y-23500000D01*
X42500000Y-16000000D02*
X42500000Y-16500000D01*
X42500000Y-18500000D02*
X42500000Y-19000000D01*
X42500000Y-20500000D02*
X42500000Y-21000000D01*
X42500000Y-12500000D02*
X42500000Y-13000000D01*
X42500000Y-18000000D02*
X42500000Y-18500000D01*
X42500000Y-14000000D02*
X42500000Y-14500000D01*
X42500000Y-9500000D02*
X42500000Y-10000000D01*
X42500000Y-12000000D02*
X42500000Y-12500000D01*
X42500000Y-13500000D02*
X42500000Y-14000000D01*
X42500000Y-9000000D02*
X42500000Y-9500000D01*
X42500000Y-15500000D02*
X42500000Y-16000000D01*
X42500000Y-22000000D02*
X42500000Y-22500000D01*
X42500000Y-11000000D02*
X42500000Y-11500000D01*
X42500000Y-10500000D02*
X42500000Y-11000000D01*
%TO.N,LCD_E*%
X47500000Y-20000000D02*
X47500000Y-20500000D01*
X47500000Y-13500000D02*
X47500000Y-14000000D01*
X47500000Y-18000000D02*
X47500000Y-18500000D01*
X47500000Y-17000000D02*
X47500000Y-17500000D01*
X47500000Y-16000000D02*
X47500000Y-16500000D01*
X47500000Y-22500000D02*
X47500000Y-23000000D01*
X47500000Y-19500000D02*
X47500000Y-20000000D01*
X47500000Y-9000000D02*
X47500000Y-9500000D01*
X47500000Y-8000000D02*
X47500000Y-8500000D01*
X47500000Y-17500000D02*
X47500000Y-18000000D01*
X47500000Y-22000000D02*
X47500000Y-22500000D01*
X47500000Y-9500000D02*
X47500000Y-10000000D01*
X47500000Y-8500000D02*
X47500000Y-9000000D01*
X47500000Y-12000000D02*
X47500000Y-12500000D01*
X47500000Y-7000000D02*
X47500000Y-7500000D01*
X47500000Y-21000000D02*
X47500000Y-21500000D01*
X47500000Y-23500000D02*
X47500000Y-24000000D01*
X47500000Y-11500000D02*
X47500000Y-12000000D01*
X47500000Y-23000000D02*
X47500000Y-23500000D01*
X47500000Y-18500000D02*
X47500000Y-19000000D01*
X47500000Y-16500000D02*
X47500000Y-17000000D01*
X47500000Y-10000000D02*
X47500000Y-10500000D01*
X47500000Y-11000000D02*
X47500000Y-11500000D01*
X47500000Y-15000000D02*
X47500000Y-15500000D01*
X47500000Y-21500000D02*
X47500000Y-22000000D01*
X47500000Y-24000000D02*
X47500000Y-24500000D01*
X47500000Y-10500000D02*
X47500000Y-11000000D01*
X47500000Y-14000000D02*
X47500000Y-14500000D01*
X47500000Y-12500000D02*
X47500000Y-13000000D01*
X47500000Y-19000000D02*
X47500000Y-19500000D01*
X47500000Y-15500000D02*
X47500000Y-16000000D01*
X47500000Y-13000000D02*
X47500000Y-13500000D01*
X47500000Y-20500000D02*
X47500000Y-21000000D01*
X47500000Y-14500000D02*
X47500000Y-15000000D01*
X47500000Y-7500000D02*
X47500000Y-8000000D01*
%TO.N,LCD_D4*%
X60500000Y-23500000D02*
X60500000Y-24000000D01*
X60500000Y-8500000D02*
X60500000Y-9000000D01*
X58500000Y-24000000D02*
X58000000Y-24000000D01*
X56000000Y-24000000D02*
X55500000Y-24000000D01*
X60500000Y-15500000D02*
X60500000Y-16000000D01*
X60500000Y-7500000D02*
X60500000Y-8000000D01*
X60500000Y-21500000D02*
X60500000Y-22000000D01*
X60500000Y-13000000D02*
X60500000Y-13500000D01*
X60500000Y-16000000D02*
X60500000Y-16500000D01*
X60500000Y-18000000D02*
X60500000Y-18500000D01*
X60500000Y-18500000D02*
X60500000Y-19000000D01*
X60500000Y-23000000D02*
X60500000Y-23500000D01*
X58000000Y-24000000D02*
X57500000Y-24000000D01*
X57000000Y-24000000D02*
X56500000Y-24000000D01*
X60500000Y-14000000D02*
X60500000Y-14500000D01*
X60500000Y-22000000D02*
X60500000Y-22500000D01*
X60500000Y-10000000D02*
X60500000Y-10500000D01*
X60500000Y-11000000D02*
X60500000Y-11500000D01*
X60500000Y-20000000D02*
X60500000Y-20500000D01*
X60500000Y-22500000D02*
X60500000Y-23000000D01*
X60500000Y-14500000D02*
X60500000Y-15000000D01*
X60500000Y-21000000D02*
X60500000Y-21500000D01*
X60500000Y-12000000D02*
X60500000Y-12500000D01*
X59000000Y-24000000D02*
X58500000Y-24000000D01*
X60500000Y-8000000D02*
X60500000Y-8500000D01*
X56500000Y-24000000D02*
X56000000Y-24000000D01*
X60500000Y-7000000D02*
X60500000Y-7500000D01*
X60500000Y-17000000D02*
X60500000Y-17500000D01*
X60500000Y-24000000D02*
X60000000Y-24000000D01*
X60500000Y-19500000D02*
X60500000Y-20000000D01*
X60500000Y-13500000D02*
X60500000Y-14000000D01*
X60500000Y-20500000D02*
X60500000Y-21000000D01*
X55000000Y-24000000D02*
X55000000Y-24500000D01*
X57500000Y-24000000D02*
X57000000Y-24000000D01*
X60500000Y-9000000D02*
X60500000Y-9500000D01*
X60500000Y-12500000D02*
X60500000Y-13000000D01*
X60500000Y-19000000D02*
X60500000Y-19500000D01*
X60500000Y-17500000D02*
X60500000Y-18000000D01*
X60500000Y-11500000D02*
X60500000Y-12000000D01*
X60000000Y-24000000D02*
X59500000Y-24000000D01*
X59500000Y-24000000D02*
X59000000Y-24000000D01*
X60500000Y-15000000D02*
X60500000Y-15500000D01*
X60500000Y-16500000D02*
X60500000Y-17000000D01*
X60500000Y-10500000D02*
X60500000Y-11000000D01*
X60500000Y-9500000D02*
X60500000Y-10000000D01*
X55500000Y-24000000D02*
X55000000Y-24000000D01*
%TO.N,LCD_D5*%
X63000000Y-18000000D02*
X63000000Y-18500000D01*
X63000000Y-19500000D02*
X63000000Y-20000000D01*
X63000000Y-17500000D02*
X63000000Y-18000000D01*
X63000000Y-16000000D02*
X63000000Y-16500000D01*
X63000000Y-16500000D02*
X63000000Y-17000000D01*
X63000000Y-9000000D02*
X63000000Y-9500000D01*
X63000000Y-21500000D02*
X63000000Y-22000000D01*
X63000000Y-20000000D02*
X63000000Y-20500000D01*
X63000000Y-10500000D02*
X63000000Y-11000000D01*
X63000000Y-14500000D02*
X63000000Y-15000000D01*
X63000000Y-22000000D02*
X63000000Y-22500000D01*
X63000000Y-7500000D02*
X63000000Y-8000000D01*
X63000000Y-8500000D02*
X63000000Y-9000000D01*
X63000000Y-11000000D02*
X63000000Y-11500000D01*
X63000000Y-7000000D02*
X63000000Y-7500000D01*
X63000000Y-17000000D02*
X63000000Y-17500000D01*
X63000000Y-15500000D02*
X63000000Y-16000000D01*
X63000000Y-10000000D02*
X63000000Y-10500000D01*
X63000000Y-12000000D02*
X63000000Y-12500000D01*
X63000000Y-15000000D02*
X63000000Y-15500000D01*
X63000000Y-20500000D02*
X63000000Y-21000000D01*
X63000000Y-13000000D02*
X63000000Y-13500000D01*
X63000000Y-18500000D02*
X63000000Y-19000000D01*
X63000000Y-14000000D02*
X63000000Y-14500000D01*
X63000000Y-21000000D02*
X63000000Y-21500000D01*
X63000000Y-13500000D02*
X63000000Y-14000000D01*
X63000000Y-8000000D02*
X63000000Y-8500000D01*
X63000000Y-12500000D02*
X63000000Y-13000000D01*
X63000000Y-9500000D02*
X63000000Y-10000000D01*
X63000000Y-22500000D02*
X63000000Y-23000000D01*
X63000000Y-11500000D02*
X63000000Y-12000000D01*
X63000000Y-19000000D02*
X63000000Y-19500000D01*
%TO.N,LCD_D6*%
X65000000Y-12500000D02*
X65000000Y-13000000D01*
X65000000Y-7000000D02*
X65000000Y-7500000D01*
X65000000Y-16500000D02*
X65000000Y-17000000D01*
X65000000Y-14500000D02*
X65000000Y-15000000D01*
X65500000Y-7000000D02*
X65000000Y-7000000D01*
X65000000Y-13500000D02*
X65000000Y-14000000D01*
X65000000Y-13000000D02*
X65000000Y-13500000D01*
X65000000Y-9500000D02*
X65000000Y-10000000D01*
X65000000Y-9000000D02*
X65000000Y-9500000D01*
X65000000Y-17500000D02*
X65000000Y-18000000D01*
X65000000Y-19000000D02*
X65000000Y-19500000D01*
X65000000Y-18500000D02*
X65000000Y-19000000D01*
X65000000Y-21500000D02*
X65000000Y-22000000D01*
X65000000Y-7500000D02*
X65000000Y-8000000D01*
X65000000Y-16000000D02*
X65000000Y-16500000D01*
X65000000Y-8000000D02*
X65000000Y-8500000D01*
X65000000Y-19500000D02*
X65000000Y-20000000D01*
X65000000Y-8500000D02*
X65000000Y-9000000D01*
X65000000Y-12000000D02*
X65000000Y-12500000D01*
X65000000Y-22500000D02*
X65000000Y-23000000D01*
X65000000Y-11000000D02*
X65000000Y-11500000D01*
X65000000Y-14000000D02*
X65000000Y-14500000D01*
X65000000Y-21000000D02*
X65000000Y-21500000D01*
X65000000Y-18000000D02*
X65000000Y-18500000D01*
X65000000Y-22000000D02*
X65000000Y-22500000D01*
X65000000Y-10500000D02*
X65000000Y-11000000D01*
X65000000Y-20500000D02*
X65000000Y-21000000D01*
X65000000Y-15500000D02*
X65000000Y-16000000D01*
X65000000Y-17000000D02*
X65000000Y-17500000D01*
X65000000Y-10000000D02*
X65000000Y-10500000D01*
X65000000Y-11500000D02*
X65000000Y-12000000D01*
X65000000Y-15000000D02*
X65000000Y-15500000D01*
X65000000Y-20000000D02*
X65000000Y-20500000D01*
%TO.N,LCD_D7*%
X66500000Y-30500000D02*
X66500000Y-31000000D01*
X68000000Y-21500000D02*
X68000000Y-22000000D01*
X68000000Y-16000000D02*
X68000000Y-16500000D01*
X67000000Y-28500000D02*
X66500000Y-28500000D01*
X68000000Y-24000000D02*
X68000000Y-24500000D01*
X64000000Y-31000000D02*
X63500000Y-31000000D01*
X64500000Y-31000000D02*
X64000000Y-31000000D01*
X68000000Y-11000000D02*
X68000000Y-11500000D01*
X68000000Y-7500000D02*
X68000000Y-8000000D01*
X68000000Y-13000000D02*
X68000000Y-13500000D01*
X68000000Y-23500000D02*
X68000000Y-24000000D01*
X68000000Y-28000000D02*
X68000000Y-28500000D01*
X68000000Y-21000000D02*
X68000000Y-21500000D01*
X66000000Y-31000000D02*
X65500000Y-31000000D01*
X68000000Y-28500000D02*
X67500000Y-28500000D01*
X63000000Y-31000000D02*
X63000000Y-30500000D01*
X68000000Y-26500000D02*
X68000000Y-27000000D01*
X68000000Y-27500000D02*
X68000000Y-28000000D01*
X68000000Y-27000000D02*
X68000000Y-27500000D01*
X68000000Y-26000000D02*
X68000000Y-26500000D01*
X68000000Y-19000000D02*
X68000000Y-19500000D01*
X68000000Y-13500000D02*
X68000000Y-14000000D01*
X66500000Y-29000000D02*
X66500000Y-29500000D01*
X68000000Y-15000000D02*
X68000000Y-15500000D01*
X68000000Y-9000000D02*
X68000000Y-9500000D01*
X66500000Y-29500000D02*
X66500000Y-30000000D01*
X68000000Y-9500000D02*
X68000000Y-10000000D01*
X63500000Y-31000000D02*
X63000000Y-31000000D01*
X68000000Y-24500000D02*
X68000000Y-25000000D01*
X68000000Y-22000000D02*
X68000000Y-22500000D01*
X65000000Y-31000000D02*
X64500000Y-31000000D01*
X68000000Y-12000000D02*
X68000000Y-12500000D01*
X68000000Y-22500000D02*
X68000000Y-23000000D01*
X68000000Y-10000000D02*
X68000000Y-10500000D01*
X63000000Y-30500000D02*
X63000000Y-30000000D01*
X68000000Y-20000000D02*
X68000000Y-20500000D01*
X68000000Y-25000000D02*
X68000000Y-25500000D01*
X68000000Y-23000000D02*
X68000000Y-23500000D01*
X67500000Y-28500000D02*
X67000000Y-28500000D01*
X68000000Y-19500000D02*
X68000000Y-20000000D01*
X65500000Y-31000000D02*
X65000000Y-31000000D01*
X68000000Y-7000000D02*
X68000000Y-7500000D01*
X66500000Y-30000000D02*
X66500000Y-30500000D01*
X68000000Y-12500000D02*
X68000000Y-13000000D01*
X68000000Y-8000000D02*
X68000000Y-8500000D01*
X68000000Y-20500000D02*
X68000000Y-21000000D01*
X68000000Y-10500000D02*
X68000000Y-11000000D01*
X68000000Y-18500000D02*
X68000000Y-19000000D01*
X68000000Y-15500000D02*
X68000000Y-16000000D01*
X68000000Y-8500000D02*
X68000000Y-9000000D01*
X68000000Y-17500000D02*
X68000000Y-18000000D01*
X66500000Y-31000000D02*
X66000000Y-31000000D01*
X68000000Y-14500000D02*
X68000000Y-15000000D01*
X68000000Y-25500000D02*
X68000000Y-26000000D01*
X68000000Y-14000000D02*
X68000000Y-14500000D01*
X68000000Y-17000000D02*
X68000000Y-17500000D01*
X68000000Y-16500000D02*
X68000000Y-17000000D01*
X68000000Y-11500000D02*
X68000000Y-12000000D01*
X66500000Y-28500000D02*
X66500000Y-29000000D01*
X68000000Y-18000000D02*
X68000000Y-18500000D01*
%TO.N,LCD_LED_A*%
X82500000Y-8000000D02*
X82500000Y-8500000D01*
X70500000Y-7500000D02*
X70500000Y-8000000D01*
X74500000Y-8500000D02*
X75000000Y-8500000D01*
X72500000Y-8500000D02*
X73000000Y-8500000D01*
X78000000Y-8500000D02*
X78000000Y-8000000D01*
X77000000Y-8500000D02*
X77500000Y-8500000D01*
X80500000Y-7500000D02*
X81000000Y-7500000D01*
X70500000Y-8000000D02*
X70500000Y-8500000D01*
X70500000Y-7000000D02*
X70500000Y-7500000D01*
X82500000Y-7500000D02*
X82500000Y-8000000D01*
X76500000Y-8500000D02*
X77000000Y-8500000D01*
X82000000Y-7500000D02*
X82500000Y-7500000D01*
X78000000Y-7500000D02*
X78500000Y-7500000D01*
X74000000Y-8500000D02*
X74500000Y-8500000D01*
X80000000Y-7500000D02*
X80500000Y-7500000D01*
X79500000Y-7500000D02*
X80000000Y-7500000D01*
X82500000Y-8500000D02*
X82500000Y-9000000D01*
X75000000Y-8500000D02*
X75500000Y-8500000D01*
X78500000Y-7500000D02*
X79000000Y-7500000D01*
X71500000Y-8500000D02*
X72000000Y-8500000D01*
X76000000Y-8500000D02*
X76500000Y-8500000D01*
X70500000Y-8500000D02*
X71000000Y-8500000D01*
X72000000Y-8500000D02*
X72500000Y-8500000D01*
X75500000Y-8500000D02*
X76000000Y-8500000D01*
X73500000Y-8500000D02*
X74000000Y-8500000D01*
X73000000Y-8500000D02*
X73500000Y-8500000D01*
X81000000Y-7500000D02*
X81500000Y-7500000D01*
X79000000Y-7500000D02*
X79500000Y-7500000D01*
X81500000Y-7500000D02*
X82000000Y-7500000D01*
X77500000Y-8500000D02*
X78000000Y-8500000D01*
X71000000Y-8500000D02*
X71500000Y-8500000D01*
X80912500Y-9000000D02*
X82500000Y-9000000D01*
X78000000Y-8000000D02*
X78000000Y-7500000D01*
%TO.N,AREF*%
X63500000Y-24000000D02*
X64000000Y-24000000D01*
X62500000Y-24000000D02*
X63000000Y-24000000D01*
X64500000Y-24000000D02*
X65000000Y-24000000D01*
X65000000Y-24500000D02*
X65000000Y-25000000D01*
X65000000Y-30000000D02*
X65500000Y-30000000D01*
X65000000Y-25500000D02*
X65000000Y-26000000D01*
X65000000Y-29000000D02*
X65000000Y-29500000D01*
X65000000Y-24000000D02*
X65000000Y-24500000D01*
X65000000Y-25000000D02*
X65000000Y-25500000D01*
X64050000Y-24000000D02*
X62500000Y-24000000D01*
X65000000Y-28500000D02*
X65000000Y-29000000D01*
X65000000Y-26000000D02*
X65000000Y-26500000D01*
X63000000Y-24000000D02*
X63500000Y-24000000D01*
X65000000Y-26500000D02*
X65000000Y-27000000D01*
X65000000Y-28000000D02*
X65000000Y-28500000D01*
X65000000Y-27500000D02*
X65000000Y-28000000D01*
X64000000Y-24000000D02*
X64500000Y-24000000D01*
X65000000Y-29500000D02*
X65000000Y-30000000D01*
X65000000Y-27000000D02*
X65000000Y-27500000D01*
%TO.N,ALARM_GPIO*%
X89000000Y-54000000D02*
X88500000Y-54000000D01*
X61500000Y-54000000D02*
X61000000Y-54000000D01*
X76500000Y-54000000D02*
X76000000Y-54000000D01*
X68000000Y-54000000D02*
X67500000Y-54000000D01*
X87000000Y-54000000D02*
X86500000Y-54000000D01*
X63000000Y-54000000D02*
X62500000Y-54000000D01*
X93500000Y-62000000D02*
X93500000Y-61500000D01*
X88000000Y-54000000D02*
X87500000Y-54000000D01*
X67000000Y-54000000D02*
X66500000Y-54000000D01*
X64000000Y-54000000D02*
X63500000Y-54000000D01*
X105000000Y-62000000D02*
X104500000Y-62000000D01*
X69000000Y-54000000D02*
X68500000Y-54000000D01*
X93000000Y-54000000D02*
X92500000Y-54000000D01*
X100500000Y-62000000D02*
X100000000Y-62000000D01*
X67500000Y-54000000D02*
X67000000Y-54000000D01*
X91000000Y-54000000D02*
X90500000Y-54000000D01*
X77000000Y-54000000D02*
X76500000Y-54000000D01*
X63500000Y-54000000D02*
X63000000Y-54000000D01*
X104500000Y-62000000D02*
X104000000Y-62000000D01*
X69500000Y-54000000D02*
X69000000Y-54000000D01*
X76000000Y-54000000D02*
X75500000Y-54000000D01*
X81500000Y-54000000D02*
X81000000Y-54000000D01*
X78000000Y-54000000D02*
X77500000Y-54000000D01*
X107087500Y-62000000D02*
X105500000Y-62000000D01*
X96500000Y-62000000D02*
X96000000Y-62000000D01*
X89500000Y-54000000D02*
X89000000Y-54000000D01*
X102500000Y-62000000D02*
X102000000Y-62000000D01*
X73500000Y-54000000D02*
X73000000Y-54000000D01*
X94500000Y-62000000D02*
X94000000Y-62000000D01*
X83000000Y-54000000D02*
X82500000Y-54000000D01*
X93500000Y-54000000D02*
X93000000Y-54000000D01*
X80000000Y-54000000D02*
X79500000Y-54000000D01*
X97000000Y-62000000D02*
X96500000Y-62000000D01*
X70500000Y-54000000D02*
X70000000Y-54000000D01*
X65500000Y-54000000D02*
X65000000Y-54000000D01*
X73000000Y-54000000D02*
X72500000Y-54000000D01*
X66500000Y-54000000D02*
X66000000Y-54000000D01*
X100000000Y-62000000D02*
X99500000Y-62000000D01*
X101000000Y-62000000D02*
X100500000Y-62000000D01*
X95000000Y-62000000D02*
X94500000Y-62000000D01*
X84500000Y-54000000D02*
X84000000Y-54000000D01*
X93500000Y-59500000D02*
X93500000Y-59000000D01*
X77500000Y-54000000D02*
X77000000Y-54000000D01*
X88500000Y-54000000D02*
X88000000Y-54000000D01*
X99000000Y-62000000D02*
X98500000Y-62000000D01*
X62000000Y-54000000D02*
X61500000Y-54000000D01*
X62500000Y-54000000D02*
X62000000Y-54000000D01*
X75500000Y-54000000D02*
X75000000Y-54000000D01*
X101500000Y-62000000D02*
X101000000Y-62000000D01*
X104000000Y-62000000D02*
X103500000Y-62000000D01*
X82000000Y-54000000D02*
X81500000Y-54000000D01*
X87500000Y-54000000D02*
X87000000Y-54000000D01*
X78500000Y-54000000D02*
X78000000Y-54000000D01*
X102000000Y-62000000D02*
X101500000Y-62000000D01*
X93500000Y-58500000D02*
X93500000Y-58000000D01*
X85500000Y-54000000D02*
X85000000Y-54000000D01*
X92500000Y-54000000D02*
X92000000Y-54000000D01*
X85000000Y-54000000D02*
X84500000Y-54000000D01*
X93500000Y-61500000D02*
X93500000Y-61000000D01*
X86500000Y-54000000D02*
X86000000Y-54000000D01*
X90500000Y-54000000D02*
X90000000Y-54000000D01*
X80500000Y-54000000D02*
X80000000Y-54000000D01*
X65000000Y-54000000D02*
X64500000Y-54000000D01*
X105500000Y-62000000D02*
X105000000Y-62000000D01*
X98500000Y-62000000D02*
X98000000Y-62000000D01*
X103000000Y-62000000D02*
X102500000Y-62000000D01*
X93500000Y-58000000D02*
X93500000Y-57500000D01*
X93500000Y-61000000D02*
X93500000Y-60500000D01*
X70000000Y-54000000D02*
X69500000Y-54000000D01*
X93500000Y-60000000D02*
X93500000Y-59500000D01*
X90000000Y-54000000D02*
X89500000Y-54000000D01*
X94000000Y-62000000D02*
X93500000Y-62000000D01*
X72500000Y-54000000D02*
X72000000Y-54000000D01*
X91500000Y-54000000D02*
X91000000Y-54000000D01*
X96000000Y-62000000D02*
X95500000Y-62000000D01*
X84000000Y-54000000D02*
X83500000Y-54000000D01*
X82500000Y-54000000D02*
X82000000Y-54000000D01*
X93500000Y-59000000D02*
X93500000Y-58500000D01*
X97500000Y-62000000D02*
X97000000Y-62000000D01*
X83500000Y-54000000D02*
X83000000Y-54000000D01*
X103500000Y-62000000D02*
X103000000Y-62000000D01*
X75000000Y-54000000D02*
X74500000Y-54000000D01*
X95087500Y-54000000D02*
X93500000Y-54000000D01*
X99500000Y-62000000D02*
X99000000Y-62000000D01*
X79000000Y-54000000D02*
X78500000Y-54000000D01*
X71500000Y-54000000D02*
X71000000Y-54000000D01*
X86000000Y-54000000D02*
X85500000Y-54000000D01*
X71000000Y-54000000D02*
X70500000Y-54000000D01*
X98000000Y-62000000D02*
X97500000Y-62000000D01*
X95500000Y-62000000D02*
X95000000Y-62000000D01*
X93500000Y-60500000D02*
X93500000Y-60000000D01*
X68500000Y-54000000D02*
X68000000Y-54000000D01*
X92000000Y-54000000D02*
X91500000Y-54000000D01*
X74000000Y-54000000D02*
X73500000Y-54000000D01*
X81000000Y-54000000D02*
X80500000Y-54000000D01*
X93500000Y-57500000D02*
X93500000Y-57000000D01*
X79500000Y-54000000D02*
X79000000Y-54000000D01*
X64500000Y-54000000D02*
X64000000Y-54000000D01*
X74500000Y-54000000D02*
X74000000Y-54000000D01*
X66000000Y-54000000D02*
X65500000Y-54000000D01*
X72000000Y-54000000D02*
X71500000Y-54000000D01*
%TO.N,ALARM_BASE*%
X102500000Y-55500000D02*
X102000000Y-55500000D01*
X100500000Y-55500000D02*
X100000000Y-55500000D01*
X96912500Y-54000000D02*
X98500000Y-54000000D01*
X103500000Y-54000000D02*
X103500000Y-54500000D01*
X96500000Y-58500000D02*
X96500000Y-58000000D01*
X101500000Y-55500000D02*
X101000000Y-55500000D01*
X103500000Y-55500000D02*
X103000000Y-55500000D01*
X103500000Y-55000000D02*
X103500000Y-55500000D01*
X96500000Y-58000000D02*
X96500000Y-57500000D01*
X96500000Y-59000000D02*
X96500000Y-58500000D01*
X100000000Y-55500000D02*
X99500000Y-55500000D01*
X98500000Y-55000000D02*
X98500000Y-54500000D01*
X103500000Y-54500000D02*
X103500000Y-55000000D01*
X96500000Y-57500000D02*
X96500000Y-57000000D01*
X98087500Y-60000000D02*
X96500000Y-60000000D01*
X96500000Y-60000000D02*
X96500000Y-59500000D01*
X98500000Y-54500000D02*
X98500000Y-54000000D01*
X99000000Y-55500000D02*
X98500000Y-55500000D01*
X103000000Y-55500000D02*
X102500000Y-55500000D01*
X96500000Y-59500000D02*
X96500000Y-59000000D01*
X98500000Y-55500000D02*
X98500000Y-55000000D01*
X102000000Y-55500000D02*
X101500000Y-55500000D01*
X101000000Y-55500000D02*
X100500000Y-55500000D01*
X99500000Y-55500000D02*
X99000000Y-55500000D01*
%TO.N,RELAY_LOW*%
D35*
X114000000Y-54000000D02*
X113500000Y-54000000D01*
X110000000Y-54000000D02*
X109500000Y-54000000D01*
X113500000Y-54000000D02*
X113000000Y-54000000D01*
X109500000Y-54000000D02*
X109000000Y-54000000D01*
X118000000Y-54000000D02*
X117500000Y-54000000D01*
X108500000Y-54000000D02*
X108000000Y-54000000D01*
X116500000Y-54000000D02*
X116000000Y-54000000D01*
X111000000Y-54000000D02*
X110500000Y-54000000D01*
X120000000Y-54000000D02*
X119500000Y-54000000D01*
X109000000Y-54000000D02*
X108500000Y-54000000D01*
X116000000Y-54000000D02*
X115500000Y-54000000D01*
X118500000Y-54000000D02*
X118000000Y-54000000D01*
X119500000Y-54000000D02*
X119000000Y-54000000D01*
X108000000Y-54000000D02*
X107500000Y-54000000D01*
X114500000Y-54000000D02*
X114000000Y-54000000D01*
X112500000Y-54000000D02*
X112000000Y-54000000D01*
X105500000Y-54000000D02*
X105000000Y-54000000D01*
X121000000Y-54000000D02*
X120500000Y-54000000D01*
X113000000Y-54000000D02*
X112500000Y-54000000D01*
X110500000Y-54000000D02*
X110000000Y-54000000D01*
X117000000Y-54000000D02*
X116500000Y-54000000D01*
X119000000Y-54000000D02*
X118500000Y-54000000D01*
X120500000Y-54000000D02*
X120000000Y-54000000D01*
X117500000Y-54000000D02*
X117000000Y-54000000D01*
X105000000Y-54000000D02*
X104500000Y-54000000D01*
X107500000Y-54000000D02*
X107000000Y-54000000D01*
X106500000Y-54000000D02*
X106000000Y-54000000D01*
X115000000Y-54000000D02*
X114500000Y-54000000D01*
X111500000Y-54000000D02*
X111000000Y-54000000D01*
X112000000Y-54000000D02*
X111500000Y-54000000D01*
X107000000Y-54000000D02*
X106500000Y-54000000D01*
X115500000Y-54000000D02*
X115000000Y-54000000D01*
X106000000Y-54000000D02*
X105500000Y-54000000D01*
%TO.N,ALARM_LED_A*%
D34*
X110500000Y-63500000D02*
X110500000Y-63000000D01*
X110500000Y-63000000D02*
X110500000Y-62500000D01*
X114000000Y-63500000D02*
X113500000Y-63500000D01*
X111000000Y-63500000D02*
X110500000Y-63500000D01*
X118000000Y-63500000D02*
X117500000Y-63500000D01*
X118500000Y-62500000D02*
X118500000Y-63000000D01*
X115000000Y-63500000D02*
X114500000Y-63500000D01*
X115500000Y-63500000D02*
X115000000Y-63500000D01*
X118500000Y-62000000D02*
X118500000Y-62500000D01*
X113500000Y-63500000D02*
X113000000Y-63500000D01*
X112500000Y-63500000D02*
X112000000Y-63500000D01*
X108912500Y-62000000D02*
X110500000Y-62000000D01*
X114500000Y-63500000D02*
X114000000Y-63500000D01*
X112000000Y-63500000D02*
X111500000Y-63500000D01*
X116000000Y-63500000D02*
X115500000Y-63500000D01*
X118500000Y-63000000D02*
X118500000Y-63500000D01*
X113000000Y-63500000D02*
X112500000Y-63500000D01*
X117500000Y-63500000D02*
X117000000Y-63500000D01*
X118500000Y-63500000D02*
X118000000Y-63500000D01*
X111500000Y-63500000D02*
X111000000Y-63500000D01*
X116500000Y-63500000D02*
X116000000Y-63500000D01*
X117000000Y-63500000D02*
X116500000Y-63500000D01*
X110500000Y-62500000D02*
X110500000Y-62000000D01*
%TO.N,RELAY_COM*%
D36*
X141500000Y-38000000D02*
X141000000Y-38000000D01*
X118000000Y-38000000D02*
X117500000Y-38000000D01*
X112500000Y-38000000D02*
X112000000Y-38000000D01*
X116500000Y-38000000D02*
X116000000Y-38000000D01*
X133000000Y-38000000D02*
X132500000Y-38000000D01*
X137000000Y-38000000D02*
X136500000Y-38000000D01*
X125500000Y-38000000D02*
X125000000Y-38000000D01*
X129500000Y-38000000D02*
X129000000Y-38000000D01*
X123000000Y-38000000D02*
X122500000Y-38000000D01*
X138500000Y-38000000D02*
X138000000Y-38000000D01*
X134500000Y-38000000D02*
X134000000Y-38000000D01*
X140500000Y-38000000D02*
X140000000Y-38000000D01*
X142000000Y-38000000D02*
X141500000Y-38000000D01*
X134000000Y-38000000D02*
X133500000Y-38000000D01*
X121000000Y-38000000D02*
X120500000Y-38000000D01*
X128000000Y-38000000D02*
X127500000Y-38000000D01*
X127500000Y-38000000D02*
X127000000Y-38000000D01*
X138000000Y-38000000D02*
X137500000Y-38000000D01*
X122000000Y-38000000D02*
X121500000Y-38000000D01*
X133500000Y-38000000D02*
X133000000Y-38000000D01*
X116000000Y-38000000D02*
X115500000Y-38000000D01*
X136500000Y-38000000D02*
X136000000Y-38000000D01*
X119500000Y-38000000D02*
X119000000Y-38000000D01*
X132500000Y-38000000D02*
X132000000Y-38000000D01*
X114500000Y-38000000D02*
X114000000Y-38000000D01*
X130500000Y-38000000D02*
X130000000Y-38000000D01*
X119000000Y-38000000D02*
X118500000Y-38000000D01*
X124000000Y-38000000D02*
X123500000Y-38000000D01*
X141000000Y-38000000D02*
X140500000Y-38000000D01*
X139000000Y-38000000D02*
X138500000Y-38000000D01*
X118500000Y-38000000D02*
X118000000Y-38000000D01*
X126500000Y-38000000D02*
X126000000Y-38000000D01*
X135000000Y-38000000D02*
X134500000Y-38000000D01*
X115500000Y-38000000D02*
X115000000Y-38000000D01*
X127000000Y-38000000D02*
X126500000Y-38000000D01*
X125000000Y-38000000D02*
X124500000Y-38000000D01*
X137500000Y-38000000D02*
X137000000Y-38000000D01*
X114000000Y-38000000D02*
X113500000Y-38000000D01*
X135500000Y-38000000D02*
X135000000Y-38000000D01*
X120500000Y-38000000D02*
X120000000Y-38000000D01*
X132000000Y-38000000D02*
X131500000Y-38000000D01*
X140000000Y-38000000D02*
X139500000Y-38000000D01*
X136000000Y-38000000D02*
X135500000Y-38000000D01*
X117000000Y-38000000D02*
X116500000Y-38000000D01*
X113500000Y-38000000D02*
X113000000Y-38000000D01*
X128500000Y-38000000D02*
X128000000Y-38000000D01*
X131000000Y-38000000D02*
X130500000Y-38000000D01*
X130000000Y-38000000D02*
X129500000Y-38000000D01*
X117500000Y-38000000D02*
X117000000Y-38000000D01*
X122500000Y-38000000D02*
X122000000Y-38000000D01*
X126000000Y-38000000D02*
X125500000Y-38000000D01*
X124500000Y-38000000D02*
X124000000Y-38000000D01*
X131500000Y-38000000D02*
X131000000Y-38000000D01*
X115000000Y-38000000D02*
X114500000Y-38000000D01*
X139500000Y-38000000D02*
X139000000Y-38000000D01*
X129000000Y-38000000D02*
X128500000Y-38000000D01*
X123500000Y-38000000D02*
X123000000Y-38000000D01*
X120000000Y-38000000D02*
X119500000Y-38000000D01*
X113000000Y-38000000D02*
X112500000Y-38000000D01*
X121500000Y-38000000D02*
X121000000Y-38000000D01*
%TO.N,RELAY_NC*%
X126000000Y-29500000D02*
X126000000Y-30000000D01*
X128500000Y-28000000D02*
X128000000Y-28000000D01*
X137500000Y-28000000D02*
X137000000Y-28000000D01*
X126000000Y-30500000D02*
X126000000Y-31000000D01*
X134000000Y-28000000D02*
X133500000Y-28000000D01*
X142000000Y-28000000D02*
X141500000Y-28000000D01*
X140500000Y-28000000D02*
X140000000Y-28000000D01*
X129500000Y-28000000D02*
X129000000Y-28000000D01*
X129000000Y-28000000D02*
X128500000Y-28000000D01*
X126000000Y-31500000D02*
X126000000Y-32000000D01*
X126000000Y-30000000D02*
X126000000Y-30500000D01*
X140000000Y-28000000D02*
X139500000Y-28000000D01*
X134500000Y-28000000D02*
X134000000Y-28000000D01*
X137000000Y-28000000D02*
X136500000Y-28000000D01*
X135000000Y-28000000D02*
X134500000Y-28000000D01*
X136500000Y-28000000D02*
X136000000Y-28000000D01*
X131000000Y-28000000D02*
X130500000Y-28000000D01*
X126000000Y-29000000D02*
X126000000Y-29500000D01*
X126000000Y-28500000D02*
X126000000Y-29000000D01*
X130500000Y-28000000D02*
X130000000Y-28000000D01*
X138000000Y-28000000D02*
X137500000Y-28000000D01*
X139000000Y-28000000D02*
X138500000Y-28000000D01*
X126000000Y-28000000D02*
X126000000Y-28500000D01*
X128000000Y-28000000D02*
X127500000Y-28000000D01*
X130000000Y-28000000D02*
X129500000Y-28000000D01*
X126000000Y-31000000D02*
X126000000Y-31500000D01*
X132500000Y-28000000D02*
X132000000Y-28000000D01*
X138500000Y-28000000D02*
X138000000Y-28000000D01*
X127500000Y-28000000D02*
X127000000Y-28000000D01*
X133000000Y-28000000D02*
X132500000Y-28000000D01*
X127000000Y-28000000D02*
X126500000Y-28000000D01*
X139500000Y-28000000D02*
X139000000Y-28000000D01*
X141000000Y-28000000D02*
X140500000Y-28000000D01*
X131500000Y-28000000D02*
X131000000Y-28000000D01*
X135500000Y-28000000D02*
X135000000Y-28000000D01*
X136000000Y-28000000D02*
X135500000Y-28000000D01*
X132000000Y-28000000D02*
X131500000Y-28000000D01*
X133500000Y-28000000D02*
X133000000Y-28000000D01*
X126500000Y-28000000D02*
X126000000Y-28000000D01*
X141500000Y-28000000D02*
X141000000Y-28000000D01*
%TD*%
M02*
